<svg xmlns="http://www.w3.org/2000/svg" viewBox="0 0 277.16 37.96"><defs><style>.cls-1{fill:#fff;}</style></defs><g id="Layer_2" data-name="Layer 2"><g id="Layer_1-2" data-name="Layer 1"><path class="cls-1" d="M47.43,33.1V12.71H52V29.05h8.69V33.1Z"/><path class="cls-1" d="M79.76,30.29a11.11,11.11,0,0,1-15.23,0,10.07,10.07,0,0,1-3.1-7.52,10,10,0,0,1,3.1-7.51,11.11,11.11,0,0,1,15.23,0,10.08,10.08,0,0,1,3.09,7.51A10.1,10.1,0,0,1,79.76,30.29Zm-1.55-7.5a6.64,6.64,0,0,0-1.75-4.65,5.77,5.77,0,0,0-8.61,0,6.64,6.64,0,0,0-1.75,4.65,6.62,6.62,0,0,0,1.75,4.64,5.81,5.81,0,0,0,8.61,0A6.62,6.62,0,0,0,78.21,22.79Z"/><path class="cls-1" d="M91.28,24.44,94.9,12.71h4.75l3.59,11.73,4.06-11.73h4.93L105.11,33.1h-3.39L97.26,18.92,92.83,33.1H89.44L82.32,12.71h4.93Z"/><path class="cls-1" d="M128,12.71v4.05H117.8V21h9.13v3.88H117.8v4.23h10.48v4h-15V12.71Z"/><path class="cls-1" d="M136.34,16.78a1.75,1.75,0,0,0-.65,1.43,1.6,1.6,0,0,0,.8,1.41,14.35,14.35,0,0,0,3.7,1.24A10.49,10.49,0,0,1,144.7,23a5.29,5.29,0,0,1,1.61,4.17,5.52,5.52,0,0,1-2.06,4.45,8.19,8.19,0,0,1-5.41,1.71,12.56,12.56,0,0,1-8.73-3.59l2.72-3.33c2.19,1.93,4.23,2.89,6.09,2.89a3.18,3.18,0,0,0,2-.54,1.73,1.73,0,0,0,.72-1.46,1.7,1.7,0,0,0-.76-1.46,10,10,0,0,0-3-1.09,13.21,13.21,0,0,1-5.2-2.2A5.21,5.21,0,0,1,131,18.3a5.27,5.27,0,0,1,2.08-4.48,8.41,8.41,0,0,1,5.21-1.58,12.79,12.79,0,0,1,4.09.7,11,11,0,0,1,3.56,2l-2.31,3.32a9,9,0,0,0-5.48-2A2.76,2.76,0,0,0,136.34,16.78Z"/><path class="cls-1" d="M158.09,16.65V33.1h-4.55V16.65h-5.78V12.71h16.11v3.94Z"/><path class="cls-1" d="M173.5,12.71h4.55V33.1H173.5Z"/><path class="cls-1" d="M187.11,16.78a1.76,1.76,0,0,0-.66,1.43,1.62,1.62,0,0,0,.8,1.41A14.47,14.47,0,0,0,191,20.86,10.55,10.55,0,0,1,195.47,23a5.28,5.28,0,0,1,1.6,4.17A5.52,5.52,0,0,1,195,31.63a8.18,8.18,0,0,1-5.41,1.71,12.52,12.52,0,0,1-8.72-3.59l2.71-3.33q3.3,2.89,6.1,2.89a3.22,3.22,0,0,0,2-.54,1.75,1.75,0,0,0,.71-1.46,1.7,1.7,0,0,0-.76-1.46,9.79,9.79,0,0,0-3-1.09,13.26,13.26,0,0,1-5.21-2.2,5.21,5.21,0,0,1-1.65-4.26,5.28,5.28,0,0,1,2.09-4.48,8.39,8.39,0,0,1,5.21-1.58,12.68,12.68,0,0,1,4.08.7,10.94,10.94,0,0,1,3.56,2l-2.3,3.32a9,9,0,0,0-5.49-2A2.71,2.71,0,0,0,187.11,16.78Z"/><path class="cls-1" d="M216.18,33.1h-8.93V12.71h7.94a11.45,11.45,0,0,1,3.57.49A5.14,5.14,0,0,1,221,14.55a5.24,5.24,0,0,1,1.37,3.56,4.18,4.18,0,0,1-1.54,3.56,6.54,6.54,0,0,1-.73.51l-.73.33a5.33,5.33,0,0,1,3,1.71,4.73,4.73,0,0,1,1.12,3.22,5.47,5.47,0,0,1-1.46,3.77C221,32.47,219,33.1,216.18,33.1ZM211.8,21H214a7.35,7.35,0,0,0,2.82-.41,1.73,1.73,0,0,0,.92-1.77,1.83,1.83,0,0,0-.85-1.79,6.72,6.72,0,0,0-2.86-.44H211.8Zm0,8.28h3.13a6.91,6.91,0,0,0,2.93-.48,1.9,1.9,0,0,0,1-1.9,1.81,1.81,0,0,0-1-1.86,8.89,8.89,0,0,0-3.31-.46H211.8Z"/><path class="cls-1" d="M241.21,12.71v4.05H231.06V21h9.13v3.88h-9.13v4.23h10.47v4h-15V12.71Z"/><path class="cls-1" d="M249.6,16.78a1.76,1.76,0,0,0-.66,1.43,1.61,1.61,0,0,0,.81,1.41,14.35,14.35,0,0,0,3.7,1.24A10.49,10.49,0,0,1,258,23a5.28,5.28,0,0,1,1.6,4.17,5.51,5.51,0,0,1-2.05,4.45,8.19,8.19,0,0,1-5.41,1.71,12.56,12.56,0,0,1-8.73-3.59l2.71-3.33c2.2,1.93,4.24,2.89,6.1,2.89a3.18,3.18,0,0,0,2-.54,1.81,1.81,0,0,0,0-2.92,10,10,0,0,0-3-1.09,13.14,13.14,0,0,1-5.2-2.2,5.21,5.21,0,0,1-1.65-4.26,5.27,5.27,0,0,1,2.08-4.48,8.41,8.41,0,0,1,5.21-1.58,12.79,12.79,0,0,1,4.09.7,10.89,10.89,0,0,1,3.55,2l-2.3,3.32a9,9,0,0,0-5.48-2A2.76,2.76,0,0,0,249.6,16.78Z"/><path class="cls-1" d="M271.38,16.65V33.1h-4.55V16.65h-5.78V12.71h16.11v3.94Z"/><path class="cls-1" d="M38.21,9.67a12.59,12.59,0,0,0-2.27-5.6A8.75,8.75,0,0,0,26.77.17a10.69,10.69,0,0,0-6.15,3.66c-.49.54-1,1-1.46,1.48-.44-.44-1-.93-1.45-1.47A10.48,10.48,0,0,0,10.3,0,8.3,8.3,0,0,0,3.4,2.84a13.12,13.12,0,0,0-2.91,5l3.85,3.83a3.37,3.37,0,0,1,.21.31h.17a2.1,2.1,0,0,1,.22-.3L8.69,8c.35-.35.69-.7,1.05-1a1,1,0,0,1,1.43,0l1,1,12,12,.36.34a4,4,0,0,1,.23-.34l1.63-1.62a.7.7,0,0,1,1.23.51v6c0,.73-.23,1-1,1H20.84c-.37,0-.72,0-.9-.41s0-.7.32-1l.59-.58c.39-.4.79-.79,1.19-1.17C18.14,18.8,14.27,15,10.39,11.1l-.23.22L6.43,15.06,5.37,16.13a1,1,0,0,1-1.46,0L3.79,16,0,12.23A16.89,16.89,0,0,0,.39,15a22.16,22.16,0,0,0,2.82,6.58,46,46,0,0,0,6.46,8.11A102.76,102.76,0,0,0,19,38h.34a99.12,99.12,0,0,0,9.58-8.57,47.29,47.29,0,0,0,5.84-7.25,23.93,23.93,0,0,0,3-6.65,14.11,14.11,0,0,0,.41-5.82"/></g></g></svg>