<svg xmlns="http://www.w3.org/2000/svg" viewBox="0 0 313.45 28.32"><defs><style>.cls-1{fill:#fff;}</style></defs><g id="Layer_2" data-name="Layer 2"><g id="Layer_1-2" data-name="Layer 1"><path class="cls-1" d="M60.74,8.11V12H51.07v4h8.7v3.7h-8.7v4h10v3.83H46.74V8.11Z"/><path class="cls-1" d="M78.86,27.53l-1.81-4.2H68.91l-1.8,4.2H62.49l8.4-19.42h4.19l8.39,19.42ZM73,13.89l-2.45,5.64h4.86Z"/><path class="cls-1" d="M101.06,14.55q0,4.68-3.69,6l4.91,7H97l-4.31-6.2h-3v6.2H85.31V8.11h7.36q4.53,0,6.46,1.52T101.06,14.55Zm-5.22,2.31a3,3,0,0,0,.8-2.29,2.48,2.48,0,0,0-.83-2.16,5.35,5.35,0,0,0-2.92-.58H89.64v5.75h3.17A4.69,4.69,0,0,0,95.84,16.86Z"/><path class="cls-1" d="M105.09,27.53V8.11h4.33V23.67h8.28v3.86Z"/><path class="cls-1" d="M120.18,8.11h4.33V27.53h-4.33Z"/><path class="cls-1" d="M142.82,8.11V12h-9.67v4h8.7v3.7h-8.7v4h10v3.83H128.82V8.11Z"/><path class="cls-1" d="M162.47,14.55c0,3.12-1.24,5.13-3.7,6l4.92,7h-5.34l-4.3-6.2h-3v6.2h-4.34V8.11h7.37c3,0,5.17.51,6.46,1.52S162.47,12.29,162.47,14.55Zm-5.23,2.31a2.93,2.93,0,0,0,.81-2.29,2.46,2.46,0,0,0-.84-2.16,5.29,5.29,0,0,0-2.91-.58h-3.25v5.75h3.16A4.65,4.65,0,0,0,157.24,16.86Z"/><path class="cls-1" d="M174.25,8.11h4.33V27.53h-4.33Z"/><path class="cls-1" d="M187.65,12a1.7,1.7,0,0,0-.62,1.36,1.53,1.53,0,0,0,.76,1.35,13.63,13.63,0,0,0,3.53,1.18,10,10,0,0,1,4.29,2.05,5,5,0,0,1,1.53,4,5.25,5.25,0,0,1-2,4.24A7.8,7.8,0,0,1,190,27.75a11.91,11.91,0,0,1-8.31-3.42l2.58-3.16c2.1,1.83,4,2.75,5.81,2.75A3,3,0,0,0,192,23.4a1.73,1.73,0,0,0,0-2.78,9.58,9.58,0,0,0-2.87-1,12.24,12.24,0,0,1-5-2.1,5,5,0,0,1-1.57-4.05,5.06,5.06,0,0,1,2-4.27,8,8,0,0,1,5-1.5,11.79,11.79,0,0,1,3.89.67,10.18,10.18,0,0,1,3.39,1.89l-2.19,3.17a8.56,8.56,0,0,0-5.23-1.92A2.64,2.64,0,0,0,187.65,12Z"/><path class="cls-1" d="M216.68,27.53h-8.51V8.11h7.56a10.7,10.7,0,0,1,3.4.47,4.8,4.8,0,0,1,2.16,1.28,5,5,0,0,1,1.3,3.39,4,4,0,0,1-1.47,3.39,4.43,4.43,0,0,1-.69.48c-.13.07-.36.17-.7.32a5.08,5.08,0,0,1,2.88,1.63,4.54,4.54,0,0,1,1.07,3.07,5.23,5.23,0,0,1-1.39,3.58Q220.67,27.54,216.68,27.53ZM212.51,16h2.05a7,7,0,0,0,2.69-.39,1.64,1.64,0,0,0,.87-1.68,1.74,1.74,0,0,0-.81-1.71,6.3,6.3,0,0,0-2.72-.42h-2.08Zm0,7.89h3a6.49,6.49,0,0,0,2.79-.46,1.8,1.8,0,0,0,.93-1.8,1.73,1.73,0,0,0-1-1.78,8.42,8.42,0,0,0-3.16-.43h-2.55Z"/><path class="cls-1" d="M241,8.11V12h-9.67v4H240v3.7h-8.7v4h10v3.83H227V8.11Z"/><path class="cls-1" d="M253.1,11.86V27.53h-4.33V11.86h-5.5V8.11H258.6v3.75Z"/><path class="cls-1" d="M270.55,11.86V27.53h-4.33V11.86h-5.5V8.11h15.33v3.75Z"/><path class="cls-1" d="M292.59,8.11V12h-9.67v4h8.69v3.7h-8.69v4h10v3.83H278.58V8.11Z"/><path class="cls-1" d="M312.23,14.55q0,4.68-3.69,6l4.91,7h-5.33l-4.31-6.2h-3v6.2h-4.33V8.11h7.36q4.53,0,6.46,1.52T312.23,14.55ZM307,16.86a3,3,0,0,0,.8-2.29,2.48,2.48,0,0,0-.83-2.16,5.35,5.35,0,0,0-2.92-.58h-3.25v5.75H304A4.69,4.69,0,0,0,307,16.86Z"/><path class="cls-1" d="M31.93,19.31h2V17.25h-2Zm2-5.72h-2v2h2ZM34,10h-2v2h2Zm1.23,5.58h2v-2h-2Zm-25.14-2H8v2h2Zm-5.32,2h2v-2h-2ZM35.2,12.08h2V10h-2Zm-25.14-2H8v2h2Zm-5.3,2h2V10h-2Zm32.48,5.19h-2v2.06h2Zm-27.17,0H8v2h2Zm-5.31,2h2V17.25h-2Zm13.07,5.88h6.09V17.56H17.83Zm2.85-14.24a5.15,5.15,0,1,0-5.13-5.15,5.14,5.14,0,0,0,5.13,5.15M1.5,25.32h.93V8.15a1.81,1.81,0,0,1,1.8-1.8h7.6V6.9q0,8.61,0,17.23v1.16h1V1.68A1.49,1.49,0,0,1,14,.05a2.29,2.29,0,0,1,.52,0H26.93a1.47,1.47,0,0,1,1.61,1.64v23c0,.22,0,.43,0,.67h1V6.35h7.85a2.17,2.17,0,0,1,.36,0,1.41,1.41,0,0,1,1.37,1.46c0,1.23,0,2.45,0,3.68V25.29h.72a1.5,1.5,0,0,1,1.5,1.5v0a1.5,1.5,0,0,1-1.49,1.5H1.5a1.5,1.5,0,0,1,0-3"/><polygon class="cls-1" points="19.41 4.53 19.41 2.58 21.98 2.58 21.98 4.52 23.92 4.52 23.92 7.08 21.99 7.08 21.99 9.03 19.42 9.03 19.42 7.09 17.48 7.09 17.48 4.53 19.41 4.53"/></g></g></svg>