<svg xmlns="http://www.w3.org/2000/svg" viewBox="0 0 921.1 165.6"><defs><style>.cls-1{fill:#fff;}.cls-2{fill:#22295c;}</style></defs><g id="Layer_2" data-name="Layer 2"><g id="Layer_1-2" data-name="Layer 1"><path class="cls-1" d="M16.67,31.41H11.41V19.3L0,.75H5.66L14,14.7,22.42.75h5.65L16.67,19.3Z"/><path class="cls-1" d="M56.63,27.17a15.79,15.79,0,0,1-11.49,4.54,15.82,15.82,0,0,1-11.5-4.54A15.13,15.13,0,0,1,29,15.86,15.17,15.17,0,0,1,33.64,4.54,15.82,15.82,0,0,1,45.14,0,15.79,15.79,0,0,1,56.63,4.54a15.18,15.18,0,0,1,4.65,11.32A15.14,15.14,0,0,1,56.63,27.17ZM52.84,8a10.77,10.77,0,0,0-15.4,0,10.94,10.94,0,0,0-3.14,7.88,10.91,10.91,0,0,0,3.14,7.87,10.75,10.75,0,0,0,15.4,0A10.91,10.91,0,0,0,56,15.86,10.93,10.93,0,0,0,52.84,8Z"/><path class="cls-1" d="M74.7,24.39a7.85,7.85,0,0,0,11.41,0,9.93,9.93,0,0,0,2.1-6.67V.75h5.18V17.94q0,6.63-3.64,10.2a12.78,12.78,0,0,1-9.34,3.57,12.79,12.79,0,0,1-9.35-3.57q-3.65-3.57-3.64-10.2V.75H72.6v17A9.93,9.93,0,0,0,74.7,24.39Z"/><path class="cls-1" d="M113.52,31.41V.75h5.18V26.5h14v4.91Z"/><path class="cls-1" d="M138.35.75h5.18V31.41h-5.18Z"/><path class="cls-1" d="M152,.75h5.18v15l14-14.95h6.58L165.51,14.17,178,31.41h-6.14L161.69,18l-4.47,4.82v8.6H152Z"/><path class="cls-1" d="M204.46.75V5.61H188.1v8.12h14.69v4.61H188.1v8.2H205v4.87H182.92V.75Z"/><path class="cls-1" d="M211.61,31.41V.75h5.18V26.5h14v4.91Z"/><path class="cls-1" d="M245.61,31.41h-5.27V19.3L228.94.75h5.66l8.37,14L251.35.75H257L245.61,19.3Z"/><path class="cls-1" d="M272.93,31.41V.75h5.18V14h15.22V.75h5.18V31.41h-5.18V18.86H278.11V31.41Z"/><path class="cls-1" d="M311.36,24.43l-3.07,7h-5.53L316.27.75h5.53l13.51,30.66h-5.53l-3.07-7Zm13.25-4.78L319,7l-5.57,12.63Z"/><path class="cls-1" d="M351.8,31.41H346L333.69.75h5.79l9.43,22.89L358.34.75h5.79Z"/><path class="cls-1" d="M390.06.75V5.61H373.7v8.12h14.69v4.61H373.7v8.2h16.88v4.87H368.52V.75Z"/><path class="cls-2" d="M436.2,12.11l-8.29,16.75h-4.08l-8.24-16.75v19.3h-6.85V.75H418l7.9,16.84L433.83.75h9.22V31.41H436.2Z"/><path class="cls-2" d="M476.39,27.17a16.71,16.71,0,0,1-22.9,0,15.13,15.13,0,0,1-4.65-11.29,15.17,15.17,0,0,1,4.65-11.3,16.71,16.71,0,0,1,22.9,0A15.2,15.2,0,0,1,481,15.88,15.17,15.17,0,0,1,476.39,27.17ZM474.06,15.9a10.07,10.07,0,0,0-2.63-7,8.69,8.69,0,0,0-12.94,0,10,10,0,0,0-2.63,7,9.94,9.94,0,0,0,2.63,7,8.73,8.73,0,0,0,12.94,0A10,10,0,0,0,474.06,15.9Z"/><path class="cls-2" d="M511.7,10.92q0,7.38-5.84,9.52l7.77,11h-8.42l-6.8-9.78h-4.74v9.78h-6.84V.75h11.62q7.16,0,10.2,2.41C510.68,4.77,511.7,7.35,511.7,10.92Zm-8.25,3.64a4.62,4.62,0,0,0,1.27-3.62c0-1.65-.44-2.78-1.31-3.4s-2.42-.92-4.61-.92h-5.13V15.7h5C501,15.7,502.6,15.32,503.45,14.56Z"/><path class="cls-2" d="M540.82.75V6.84H525.56v6.32h13.73V19H525.56v6.36h15.75v6.06h-22.6V.75Z"/><path class="cls-2" d="M583.86,10.92q0,7.38-5.84,9.52l7.77,11h-8.43l-6.79-9.78h-4.74v9.78H559V.75h11.63q7.15,0,10.2,2.41C582.84,4.77,583.86,7.35,583.86,10.92Zm-8.25,3.64a4.62,4.62,0,0,0,1.27-3.62c0-1.65-.44-2.78-1.31-3.4s-2.42-.92-4.61-.92h-5.13V15.7h5C573.17,15.7,574.76,15.32,575.61,14.56Z"/><path class="cls-2" d="M613,.75V6.84H597.72v6.32h13.73V19H597.72v6.36h15.75v6.06h-22.6V.75Z"/><path class="cls-2" d="M633.64,25.35a10.09,10.09,0,0,0,8.25-4l4.39,4.52q-5.22,5.88-12.31,5.88a16,16,0,0,1-11.67-4.47A15.16,15.16,0,0,1,617.72,16a15.26,15.26,0,0,1,4.67-11.38A15.73,15.73,0,0,1,633.82,0a16.19,16.19,0,0,1,12.63,5.75l-4.25,4.83a10,10,0,0,0-8.07-4,9.42,9.42,0,0,0-6.61,2.52,8.81,8.81,0,0,0-2.74,6.8,9.28,9.28,0,0,0,2.59,6.87A8.57,8.57,0,0,0,633.64,25.35Z"/><path class="cls-2" d="M673.78.75V6.84H658.52v6.32h13.73V19H658.52v6.36h15.74v6.06H651.67V.75Z"/><path class="cls-2" d="M701.81.75h6.85V31.41h-6.85L687.2,12.19V31.41h-6.84V.75h6.41l15,19.74Z"/><path class="cls-2" d="M729.18,6.67V31.41h-6.84V6.67h-8.68V.75h24.21V6.67Z"/><path class="cls-2" d="M781.91,12.11l-8.29,16.75h-4.08l-8.25-16.75v19.3h-6.84V.75h9.26l7.89,16.84L779.54.75h9.21V31.41h-6.84Z"/><path class="cls-2" d="M796.3.75h6.84V31.41H796.3Z"/><path class="cls-2" d="M25.25,56.13c2.14,1.83,3.22,4.63,3.22,8.42s-1.1,6.56-3.31,8.31-5.58,2.63-10.11,2.63H11v8.56H4.12V53.38H15Q22,53.38,25.25,56.13Zm-5,12.06a5.9,5.9,0,0,0,1.23-4,4.28,4.28,0,0,0-1.6-3.77,8.86,8.86,0,0,0-5-1.12H11V69.57h4.6Q19,69.57,20.22,68.19Z"/><path class="cls-2" d="M53.87,84.05,51,77.42H38.16l-2.85,6.63H28L41.28,53.38H47.9L61.15,84.05ZM44.61,62.51l-3.86,8.9h7.68Z"/><path class="cls-2" d="M75.45,59.31V84.05H68.61V59.31H59.92V53.38H84.14v5.93Z"/><path class="cls-2" d="M89.14,53.38H96V84.05H89.14Z"/><path class="cls-2" d="M125.63,53.38v6.1H110.37V65.8H124.1v5.83H110.37V78h15.75v6.06h-22.6V53.38Z"/><path class="cls-2" d="M153.66,53.38h6.85V84.05h-6.85L139.05,64.83V84.05h-6.84V53.38h6.41l15,19.74Z"/><path class="cls-2" d="M181,59.31V84.05h-6.84V59.31h-8.68V53.38h24.21v5.93Z"/><path class="cls-2" d="M201.63,59.5a2.66,2.66,0,0,0-1,2.15,2.42,2.42,0,0,0,1.21,2.13,21.9,21.9,0,0,0,5.57,1.87,15.66,15.66,0,0,1,6.78,3.22,8,8,0,0,1,2.41,6.27,8.28,8.28,0,0,1-3.09,6.69,12.35,12.35,0,0,1-8.14,2.57A18.84,18.84,0,0,1,192.26,79l4.08-5q5,4.35,9.17,4.34a4.73,4.73,0,0,0,3-.81,2.59,2.59,0,0,0,1.08-2.19,2.55,2.55,0,0,0-1.14-2.19,15,15,0,0,0-4.52-1.65q-5.35-1.27-7.83-3.31t-2.48-6.4a7.93,7.93,0,0,1,3.14-6.74,12.61,12.61,0,0,1,7.83-2.37,18.67,18.67,0,0,1,6.14,1.06,16.4,16.4,0,0,1,5.35,3l-3.47,5a13.49,13.49,0,0,0-8.24-3A4.14,4.14,0,0,0,201.63,59.5Z"/><path class="cls-2" d="M255.87,84.05,253,77.42H240.17l-2.86,6.63H230l13.25-30.67h6.62l13.25,30.67Zm-9.26-21.54-3.86,8.9h7.68Z"/><path class="cls-2" d="M277.45,59.31V84.05h-6.84V59.31h-8.69V53.38h24.22v5.93Z"/><path class="cls-2" d="M327.59,63.56q0,7.38-5.83,9.52l7.76,11H321.1l-6.8-9.78h-4.74v9.78h-6.84V53.38h11.62q7.16,0,10.2,2.42C326.57,57.41,327.59,60,327.59,63.56Zm-8.25,3.64a4.62,4.62,0,0,0,1.28-3.62c0-1.65-.44-2.78-1.32-3.4s-2.41-.92-4.61-.92h-5.13v9.08h5C316.9,68.34,318.5,68,319.34,67.2Z"/><path class="cls-2" d="M334.61,53.38h6.84V84.05h-6.84Z"/><path class="cls-2" d="M356.17,59.5a2.66,2.66,0,0,0-1,2.15,2.42,2.42,0,0,0,1.21,2.13A21.9,21.9,0,0,0,362,65.65a15.66,15.66,0,0,1,6.78,3.22,8,8,0,0,1,2.41,6.27,8.28,8.28,0,0,1-3.09,6.69,12.36,12.36,0,0,1-8.14,2.57A18.83,18.83,0,0,1,346.8,79l4.08-5q5,4.35,9.17,4.34a4.75,4.75,0,0,0,3-.81,2.59,2.59,0,0,0,1.08-2.19A2.55,2.55,0,0,0,363,73.15a15.14,15.14,0,0,0-4.52-1.65q-5.35-1.27-7.83-3.31c-1.66-1.36-2.48-3.49-2.48-6.4a8,8,0,0,1,3.13-6.74,12.66,12.66,0,0,1,7.84-2.37,18.67,18.67,0,0,1,6.14,1.06,16.4,16.4,0,0,1,5.35,3l-3.47,5a13.49,13.49,0,0,0-8.24-3A4.14,4.14,0,0,0,356.17,59.5Z"/><path class="cls-2" d="M377,53.38h6.85V66l11.58-12.59h8.46L391.68,66.94q1.57,2.19,5.83,8.18l6.36,8.93h-8l-9-12.11-3.07,3.42v8.69H377Z"/><path class="cls-1" d="M432.21,58.12V84.05H427V58.12h-9.3V53.38h23.78v4.74Z"/><path class="cls-1" d="M447.12,84.05V53.38h5.18v13.3h15.22V53.38h5.18V84.05h-5.18V71.5H452.3V84.05Z"/><path class="cls-1" d="M485.55,77.07l-3.07,7H477l13.51-30.67H496L509.5,84.05H504l-3.07-7Zm13.25-4.78-5.57-12.63-5.57,12.63Z"/><path class="cls-1" d="M536.74,53.38h5.18V84.05H536.3L518.93,61.68V84.05h-5.17V53.38h5.17l17.81,22.9Z"/><path class="cls-1" d="M574.51,84.05h-5.26V71.94L557.84,53.38h5.66l8.38,13.95,8.38-13.95h5.66L574.51,71.94Z"/><path class="cls-1" d="M614.47,79.81a16.81,16.81,0,0,1-23,0,15.14,15.14,0,0,1-4.65-11.31,15.18,15.18,0,0,1,4.65-11.32,16.81,16.81,0,0,1,23,0,15.18,15.18,0,0,1,4.65,11.32A15.14,15.14,0,0,1,614.47,79.81Zm-3.79-19.19a10.77,10.77,0,0,0-15.4,0,11.45,11.45,0,0,0,0,15.75,10.75,10.75,0,0,0,15.4,0,11.47,11.47,0,0,0,0-15.75Z"/><path class="cls-1" d="M632.55,77A7.83,7.83,0,0,0,644,77a9.93,9.93,0,0,0,2.11-6.67v-17h5.17v17.2q0,6.63-3.64,10.2a14,14,0,0,1-18.69,0q-3.63-3.57-3.64-10.2V53.38h5.18v17A9.88,9.88,0,0,0,632.55,77Z"/><path class="cls-1" d="M676.54,84.05h-5.17V53.38h8.07l9.25,19.26L698,53.38h8V84.05H700.8V60.1L690.1,81.37h-2.9L676.54,60.1Z"/><path class="cls-1" d="M718.83,77.07l-3.07,7h-5.53l13.51-30.67h5.53l13.51,30.67h-5.53l-3.07-7Zm13.25-4.78-5.57-12.63-5.58,12.63Z"/><path class="cls-1" d="M756.86,84.05H751.6V71.94L740.19,53.38h5.66l8.38,13.95,8.38-13.95h5.66L756.86,71.94Z"/><path class="cls-1" d="M795.77,58.12V84.05h-5.18V58.12h-9.3V53.38h23.78v4.74Z"/><path class="cls-1" d="M810.68,84.05V53.38h5.18v13.3h15.22V53.38h5.18V84.05h-5.18V71.5H815.86V84.05Z"/><path class="cls-1" d="M844.77,53.38H850V84.05h-5.18Z"/><path class="cls-1" d="M881.44,53.38h5.18V84.05H881L863.63,61.68V84.05h-5.18V53.38h5.18l17.81,22.9Z"/><path class="cls-1" d="M895.13,53.38h5.17v15l14-15h6.58L908.59,66.81,921.1,84.05H915L904.78,70.62l-4.48,4.83v8.6h-5.17Z"/><path class="cls-1" d="M16.94,127.46l-4.56-6.39a14.07,14.07,0,0,1-1.85.14H5.07v6.25H3.68v-19.1h6.85a8.62,8.62,0,0,1,5.65,1.7,5.85,5.85,0,0,1,2,4.74,6.14,6.14,0,0,1-1.16,3.8,6.14,6.14,0,0,1-3.31,2.17l4.77,6.69ZM10.53,120a7.08,7.08,0,0,0,4.66-1.35,5.37,5.37,0,0,0,0-7.67,7.08,7.08,0,0,0-4.66-1.35H5.07V120Z"/><path class="cls-1" d="M34.92,120.66H22.67a6,6,0,0,0,.84,3,5.34,5.34,0,0,0,2.15,2,6.46,6.46,0,0,0,3,.71,6.53,6.53,0,0,0,2.58-.51,4.92,4.92,0,0,0,2-1.48l.79.9A5.92,5.92,0,0,1,31.71,127a7.47,7.47,0,0,1-3,.61,7.63,7.63,0,0,1-3.79-.93,6.78,6.78,0,0,1-2.61-2.57,7.32,7.32,0,0,1-.94-3.74,7.75,7.75,0,0,1,.89-3.72A6.52,6.52,0,0,1,24.66,114a6.76,6.76,0,0,1,3.49-.92,6.7,6.7,0,0,1,3.48.91,6.49,6.49,0,0,1,2.43,2.55,7.68,7.68,0,0,1,.89,3.71ZM25.45,115a5.12,5.12,0,0,0-1.92,1.89,6,6,0,0,0-.83,2.74H33.61a5.79,5.79,0,0,0-.82-2.73,5.31,5.31,0,0,0-4.64-2.56A5.51,5.51,0,0,0,25.45,115Z"/><path class="cls-1" d="M41.11,126.64a6.61,6.61,0,0,1-2.56-2.58,8,8,0,0,1,0-7.48A6.5,6.5,0,0,1,41.11,114a7.47,7.47,0,0,1,3.71-.91,7.21,7.21,0,0,1,3.12.66,5.68,5.68,0,0,1,2.28,2l-1,.74a4.81,4.81,0,0,0-1.89-1.59,5.75,5.75,0,0,0-2.5-.54,6,6,0,0,0-3,.75,5.35,5.35,0,0,0-2.07,2.12,6.93,6.93,0,0,0,0,6.27,5.35,5.35,0,0,0,2.07,2.12,6.26,6.26,0,0,0,5.49.22,4.92,4.92,0,0,0,1.89-1.6l1,.74a5.68,5.68,0,0,1-2.28,2,7.21,7.21,0,0,1-3.12.67A7.38,7.38,0,0,1,41.11,126.64Z"/><path class="cls-1" d="M66.1,120.66H53.85a6,6,0,0,0,.85,3,5.31,5.31,0,0,0,2.14,2,6.83,6.83,0,0,0,5.62.2,5,5,0,0,0,2-1.48l.79.9A6.07,6.07,0,0,1,62.9,127a7.55,7.55,0,0,1-3,.61,7.63,7.63,0,0,1-3.79-.93,6.69,6.69,0,0,1-2.6-2.57,7.32,7.32,0,0,1-1-3.74,7.75,7.75,0,0,1,.89-3.72A6.59,6.59,0,0,1,55.84,114a6.76,6.76,0,0,1,3.49-.92,6.65,6.65,0,0,1,3.48.91,6.49,6.49,0,0,1,2.43,2.55,7.68,7.68,0,0,1,.89,3.71ZM56.63,115a5.12,5.12,0,0,0-1.92,1.89,6.11,6.11,0,0,0-.83,2.74H64.79a5.68,5.68,0,0,0-.82-2.73A5.27,5.27,0,0,0,62,115a5.35,5.35,0,0,0-2.71-.68A5.51,5.51,0,0,0,56.63,115Z"/><path class="cls-1" d="M81.54,114.66a6,6,0,0,1,1.56,4.47v8.33H81.73v-8.22a5,5,0,0,0-1.21-3.65,4.5,4.5,0,0,0-3.4-1.26,5.22,5.22,0,0,0-4,1.5,5.56,5.56,0,0,0-1.45,4v7.59H70.36V113.21h1.31v3.09A5.46,5.46,0,0,1,73.86,114a6.81,6.81,0,0,1,3.45-.84A5.68,5.68,0,0,1,81.54,114.66Z"/><path class="cls-1" d="M95.78,126.56a3.54,3.54,0,0,1-1.29.75,5.18,5.18,0,0,1-1.62.26A3.54,3.54,0,0,1,89,123.69v-9.3H86.37v-1.18H89V110.1h1.37v3.11h4.52v1.18H90.36v9.16a3,3,0,0,0,.66,2.12,2.58,2.58,0,0,0,2,.72,3.15,3.15,0,0,0,2.21-.79Z"/><path class="cls-1" d="M125.08,127.46l0-16.35-8,13.81h-.68l-8-13.75v16.29H107v-19.1h1.18l8.54,14.76,8.54-14.76h1.14l0,19.1Z"/><path class="cls-1" d="M133.11,108.36h1.39v19.1h-1.39Z"/><path class="cls-1" d="M158.48,114A6.69,6.69,0,0,1,161,116.6a7.5,7.5,0,0,1,.92,3.73,7.62,7.62,0,0,1-.92,3.76,6.53,6.53,0,0,1-2.52,2.56,7.2,7.2,0,0,1-3.6.92,6.67,6.67,0,0,1-3.41-.89,6.22,6.22,0,0,1-2.38-2.47v8.54h-1.36V113.21H149v3.36a6.19,6.19,0,0,1,2.39-2.55,6.59,6.59,0,0,1,3.45-.91A7.2,7.2,0,0,1,158.48,114Zm-.74,11.54a5.45,5.45,0,0,0,2.06-2.12,6.37,6.37,0,0,0,.75-3.12,6.29,6.29,0,0,0-.75-3.1,5.48,5.48,0,0,0-2.06-2.13,6,6,0,0,0-5.88,0,5.5,5.5,0,0,0-2,2.13,6.29,6.29,0,0,0-.75,3.1,6.37,6.37,0,0,0,.75,3.12,5.48,5.48,0,0,0,2,2.12,6,6,0,0,0,5.88,0Z"/><path class="cls-1" d="M175,114.46a5.24,5.24,0,0,1,1.42,4v9h-1.31v-2.54a4.71,4.71,0,0,1-2,2,6.63,6.63,0,0,1-3.13.7,5.83,5.83,0,0,1-3.76-1.12,3.88,3.88,0,0,1-.1-5.83,6.05,6.05,0,0,1,4-1.1H175v-1.15a4,4,0,0,0-1.08-3,4.38,4.38,0,0,0-3.15-1,7.52,7.52,0,0,0-2.71.49,6.56,6.56,0,0,0-2.2,1.31l-.68-1a7.59,7.59,0,0,1,2.56-1.48,9.21,9.21,0,0,1,3.14-.53A5.68,5.68,0,0,1,175,114.46Zm-1.82,11.17a5,5,0,0,0,1.87-2.38v-2.67h-4.86a4.89,4.89,0,0,0-3,.76,2.56,2.56,0,0,0-.94,2.11,2.63,2.63,0,0,0,1,2.19,4.63,4.63,0,0,0,2.92.81A5.4,5.4,0,0,0,173.14,125.63Z"/><path class="cls-1" d="M189.06,126.56a3.67,3.67,0,0,1-1.3.75,5.09,5.09,0,0,1-1.62.26,3.54,3.54,0,0,1-3.87-3.88v-9.3h-2.62v-1.18h2.62V110.1h1.36v3.11h4.53v1.18h-4.53v9.16a3,3,0,0,0,.67,2.12,2.57,2.57,0,0,0,2,.72,3.15,3.15,0,0,0,2.21-.79Z"/><path class="cls-1" d="M192.74,109.44a1.06,1.06,0,0,1-.32-.78,1.13,1.13,0,0,1,1.91-.81,1.06,1.06,0,0,1,.32.78,1.1,1.1,0,0,1-.32.79,1.09,1.09,0,0,1-.79.33A1.12,1.12,0,0,1,192.74,109.44Zm.11,3.77h1.37v14.25h-1.37Z"/><path class="cls-1" d="M212,120.66H199.75a6,6,0,0,0,.85,3,5.38,5.38,0,0,0,2.14,2,6.83,6.83,0,0,0,5.62.2,5,5,0,0,0,2-1.48l.79.9A6,6,0,0,1,208.8,127a7.51,7.51,0,0,1-3,.61,7.67,7.67,0,0,1-3.8-.93,6.76,6.76,0,0,1-2.6-2.57,7.32,7.32,0,0,1-.94-3.74,7.74,7.74,0,0,1,.88-3.72,6.62,6.62,0,0,1,2.45-2.58,7.09,7.09,0,0,1,7,0,6.63,6.63,0,0,1,2.43,2.55,7.67,7.67,0,0,1,.88,3.71ZM202.54,115a5.22,5.22,0,0,0-1.93,1.89,6.11,6.11,0,0,0-.83,2.74H210.7a5.79,5.79,0,0,0-.82-2.73,5.31,5.31,0,0,0-4.64-2.56A5.51,5.51,0,0,0,202.54,115Z"/><path class="cls-1" d="M227.45,114.66a6.09,6.09,0,0,1,1.55,4.47v8.33h-1.36v-8.22a5,5,0,0,0-1.22-3.65,4.49,4.49,0,0,0-3.39-1.26,5.23,5.23,0,0,0-4,1.5,5.6,5.6,0,0,0-1.45,4v7.59h-1.36V113.21h1.31v3.09a5.42,5.42,0,0,1,2.2-2.35,6.78,6.78,0,0,1,3.45-.84A5.71,5.71,0,0,1,227.45,114.66Z"/><path class="cls-1" d="M241.69,126.56a3.67,3.67,0,0,1-1.3.75,5.18,5.18,0,0,1-1.62.26,3.54,3.54,0,0,1-3.88-3.88v-9.3h-2.61v-1.18h2.61V110.1h1.37v3.11h4.53v1.18h-4.53v9.16a3,3,0,0,0,.67,2.12,2.55,2.55,0,0,0,2,.72,3.14,3.14,0,0,0,2.21-.79Z"/><path class="cls-1" d="M245.81,127.05a6.92,6.92,0,0,1-2.43-1.31l.63-1.09a7,7,0,0,0,2.25,1.22,8.37,8.37,0,0,0,2.87.5,5.67,5.67,0,0,0,3.18-.71,2.26,2.26,0,0,0,1-2,1.86,1.86,0,0,0-.56-1.42,3.56,3.56,0,0,0-1.38-.76,21.15,21.15,0,0,0-2.27-.52,18.42,18.42,0,0,1-2.72-.66,4.14,4.14,0,0,1-1.78-1.14,3.09,3.09,0,0,1-.73-2.18,3.41,3.41,0,0,1,1.4-2.8,6.33,6.33,0,0,1,4-1.1,9.57,9.57,0,0,1,2.7.38,6.59,6.59,0,0,1,2.18,1l-.63,1.09a6.45,6.45,0,0,0-2-1,8.39,8.39,0,0,0-2.29-.32,5.07,5.07,0,0,0-3,.73,2.3,2.3,0,0,0-1,1.94,1.94,1.94,0,0,0,.57,1.49,3.8,3.8,0,0,0,1.41.79c.55.17,1.33.36,2.33.56a19.58,19.58,0,0,1,2.69.64,4.08,4.08,0,0,1,1.73,1.1,3,3,0,0,1,.71,2.1,3.33,3.33,0,0,1-1.47,2.84,7,7,0,0,1-4.15,1.07A10.37,10.37,0,0,1,245.81,127.05Z"/><path class="cls-1" d="M276.72,114.66a6.09,6.09,0,0,1,1.55,4.47v8.33h-1.36v-8.22a5,5,0,0,0-1.22-3.65,4.49,4.49,0,0,0-3.39-1.26,5.25,5.25,0,0,0-4,1.5,5.59,5.59,0,0,0-1.44,4v7.59h-1.37V113.21h1.31v3.09A5.42,5.42,0,0,1,269,114a6.78,6.78,0,0,1,3.45-.84A5.71,5.71,0,0,1,276.72,114.66Z"/><path class="cls-1" d="M296,120.66H283.7a6,6,0,0,0,.85,3,5.31,5.31,0,0,0,2.14,2,6.83,6.83,0,0,0,5.62.2,5,5,0,0,0,2-1.48l.79.9a6.07,6.07,0,0,1-2.33,1.71,7.55,7.55,0,0,1-3.05.61,7.63,7.63,0,0,1-3.79-.93,6.69,6.69,0,0,1-2.6-2.57,7.32,7.32,0,0,1-.95-3.74,7.75,7.75,0,0,1,.89-3.72,6.59,6.59,0,0,1,2.44-2.58,6.76,6.76,0,0,1,3.49-.92,6.65,6.65,0,0,1,3.48.91,6.49,6.49,0,0,1,2.43,2.55,7.68,7.68,0,0,1,.89,3.71ZM286.48,115a5.12,5.12,0,0,0-1.92,1.89,6.11,6.11,0,0,0-.83,2.74h10.91a5.68,5.68,0,0,0-.82-2.73,5.27,5.27,0,0,0-1.93-1.88,5.37,5.37,0,0,0-2.71-.68A5.51,5.51,0,0,0,286.48,115Z"/><path class="cls-1" d="M312.24,120.66H300a6,6,0,0,0,.84,3,5.4,5.4,0,0,0,2.15,2,6.83,6.83,0,0,0,5.62.2,4.92,4.92,0,0,0,2-1.48l.8.9A6,6,0,0,1,309,127a7.47,7.47,0,0,1-3,.61,7.63,7.63,0,0,1-3.79-.93,6.78,6.78,0,0,1-2.61-2.57,7.32,7.32,0,0,1-.94-3.74,7.75,7.75,0,0,1,.89-3.72A6.52,6.52,0,0,1,302,114a6.76,6.76,0,0,1,3.49-.92A6.7,6.7,0,0,1,309,114a6.49,6.49,0,0,1,2.43,2.55,7.68,7.68,0,0,1,.89,3.71ZM302.77,115a5.12,5.12,0,0,0-1.92,1.89,6.11,6.11,0,0,0-.83,2.74h10.91a5.79,5.79,0,0,0-.82-2.73,5.31,5.31,0,0,0-4.64-2.56A5.51,5.51,0,0,0,302.77,115Z"/><path class="cls-1" d="M329.15,107.21v20.25h-1.33V124.1a6.23,6.23,0,0,1-2.38,2.57,6.78,6.78,0,0,1-3.46.9,7,7,0,0,1-3.6-.93,6.65,6.65,0,0,1-2.53-2.57,7.51,7.51,0,0,1-.91-3.74,7.6,7.6,0,0,1,.91-3.75,6.49,6.49,0,0,1,2.53-2.56,7.14,7.14,0,0,1,3.6-.91,6.57,6.57,0,0,1,3.42.9,6.35,6.35,0,0,1,2.39,2.51v-9.31ZM325,125.57a5.43,5.43,0,0,0,2.05-2.12,6.37,6.37,0,0,0,.75-3.12,6.29,6.29,0,0,0-.75-3.1A5.46,5.46,0,0,0,325,115.1a6,6,0,0,0-5.86,0,5.46,5.46,0,0,0-2.05,2.13,6.29,6.29,0,0,0-.75,3.1,6.37,6.37,0,0,0,.75,3.12,5.43,5.43,0,0,0,2.05,2.12,6,6,0,0,0,5.86,0Z"/><path class="cls-1" d="M363.81,114.66a6.16,6.16,0,0,1,1.52,4.47v8.33H364v-8.22a5.15,5.15,0,0,0-1.17-3.65,4.24,4.24,0,0,0-3.27-1.26,5,5,0,0,0-3.81,1.5,5.66,5.66,0,0,0-1.4,4v7.59h-1.37v-8.22a5.15,5.15,0,0,0-1.17-3.65,4.24,4.24,0,0,0-3.27-1.26,5,5,0,0,0-3.81,1.5,5.67,5.67,0,0,0-1.41,4v7.59h-1.36V113.21h1.31v3.06a5.24,5.24,0,0,1,2.11-2.33,6.41,6.41,0,0,1,3.35-.83A5.92,5.92,0,0,1,352,114a4.76,4.76,0,0,1,1.93,2.56,5.56,5.56,0,0,1,2.22-2.51,6.71,6.71,0,0,1,3.53-.92A5.51,5.51,0,0,1,363.81,114.66Z"/><path class="cls-1" d="M372.9,126.64a6.72,6.72,0,0,1-2.55-2.58,7.93,7.93,0,0,1,0-7.45A6.72,6.72,0,0,1,372.9,114a7.66,7.66,0,0,1,7.28,0,6.66,6.66,0,0,1,2.55,2.58,7.93,7.93,0,0,1,0,7.45,6.66,6.66,0,0,1-2.55,2.58,7.59,7.59,0,0,1-7.28,0Zm6.57-1.07a5.43,5.43,0,0,0,2-2.12,6.37,6.37,0,0,0,.75-3.12,6.29,6.29,0,0,0-.75-3.1,5.46,5.46,0,0,0-2-2.13,6,6,0,0,0-5.86,0,5.46,5.46,0,0,0-2.05,2.13,6.29,6.29,0,0,0-.75,3.1,6.37,6.37,0,0,0,.75,3.12,5.43,5.43,0,0,0,2.05,2.12,6,6,0,0,0,5.86,0Z"/><path class="cls-1" d="M391.25,113.94a6.39,6.39,0,0,1,3.38-.83v1.33l-.33,0a4.73,4.73,0,0,0-3.71,1.48,6,6,0,0,0-1.34,4.14v7.42h-1.36V113.21h1.31v3.12A4.91,4.91,0,0,1,391.25,113.94Z"/><path class="cls-1" d="M410.29,120.66H398a6,6,0,0,0,.84,3,5.4,5.4,0,0,0,2.15,2,6.83,6.83,0,0,0,5.62.2,4.92,4.92,0,0,0,2-1.48l.8.9a6,6,0,0,1-2.34,1.71,7.47,7.47,0,0,1-3,.61,7.63,7.63,0,0,1-3.79-.93,6.78,6.78,0,0,1-2.61-2.57,7.42,7.42,0,0,1-.94-3.74,7.75,7.75,0,0,1,.89-3.72A6.52,6.52,0,0,1,400,114a6.76,6.76,0,0,1,3.49-.92A6.7,6.7,0,0,1,407,114a6.49,6.49,0,0,1,2.43,2.55,7.68,7.68,0,0,1,.89,3.71ZM400.82,115a5.12,5.12,0,0,0-1.92,1.89,6.11,6.11,0,0,0-.83,2.74H409a5.79,5.79,0,0,0-.82-2.73,5.31,5.31,0,0,0-4.64-2.56A5.51,5.51,0,0,0,400.82,115Z"/><path class="cls-1" d="M428.62,126.56a3.63,3.63,0,0,1-1.29.75,5.2,5.2,0,0,1-1.63.26,3.54,3.54,0,0,1-3.87-3.88v-9.3h-2.62v-1.18h2.62V110.1h1.36v3.11h4.53v1.18h-4.53v9.16a3,3,0,0,0,.67,2.12,2.58,2.58,0,0,0,2,.72,3.15,3.15,0,0,0,2.21-.79Z"/><path class="cls-1" d="M443.6,114.66a6,6,0,0,1,1.56,4.47v8.33h-1.37v-8.22a5,5,0,0,0-1.21-3.65,4.5,4.5,0,0,0-3.4-1.26,5.26,5.26,0,0,0-4,1.5,5.59,5.59,0,0,0-1.44,4v7.59h-1.37V107.21h1.37v9a5.27,5.27,0,0,1,2.18-2.28,6.85,6.85,0,0,1,3.41-.8A5.71,5.71,0,0,1,443.6,114.66Z"/><path class="cls-1" d="M459.64,114.46a5.21,5.21,0,0,1,1.42,4v9h-1.31v-2.54a4.68,4.68,0,0,1-2,2,6.65,6.65,0,0,1-3.14.7,5.82,5.82,0,0,1-3.75-1.12,3.62,3.62,0,0,1-1.38-3,3.67,3.67,0,0,1,1.27-2.88,6.09,6.09,0,0,1,4.05-1.1h4.89v-1.15a4,4,0,0,0-1.08-3,4.38,4.38,0,0,0-3.15-1,7.58,7.58,0,0,0-2.72.49,6.62,6.62,0,0,0-2.19,1.31l-.69-1a7.64,7.64,0,0,1,2.57-1.48,9.21,9.21,0,0,1,3.14-.53A5.65,5.65,0,0,1,459.64,114.46Zm-1.81,11.17a5.06,5.06,0,0,0,1.87-2.38v-2.67h-4.86a4.89,4.89,0,0,0-3,.76,2.56,2.56,0,0,0-.94,2.11,2.62,2.62,0,0,0,1,2.19,4.65,4.65,0,0,0,2.92.81A5.43,5.43,0,0,0,457.83,125.63Z"/><path class="cls-1" d="M477.87,114.66a6.09,6.09,0,0,1,1.55,4.47v8.33h-1.36v-8.22a5,5,0,0,0-1.22-3.65,4.49,4.49,0,0,0-3.39-1.26,5.23,5.23,0,0,0-4,1.5,5.6,5.6,0,0,0-1.45,4v7.59h-1.36V113.21H468v3.09a5.42,5.42,0,0,1,2.2-2.35,6.78,6.78,0,0,1,3.45-.84A5.71,5.71,0,0,1,477.87,114.66Z"/><path class="cls-1" d="M500.92,114.46a5.24,5.24,0,0,1,1.42,4v9H501v-2.54a4.74,4.74,0,0,1-2,2,6.68,6.68,0,0,1-3.14.7,5.82,5.82,0,0,1-3.75-1.12,3.87,3.87,0,0,1-.11-5.83,6.05,6.05,0,0,1,4-1.1H501v-1.15a4,4,0,0,0-1.07-3,4.38,4.38,0,0,0-3.15-1,7.54,7.54,0,0,0-2.72.49,6.67,6.67,0,0,0-2.2,1.31l-.68-1a7.64,7.64,0,0,1,2.57-1.48,9.15,9.15,0,0,1,3.13-.53A5.68,5.68,0,0,1,500.92,114.46Zm-1.82,11.17a5,5,0,0,0,1.87-2.38v-2.67h-4.85a4.87,4.87,0,0,0-3,.76,2.57,2.57,0,0,0-.95,2.11,2.63,2.63,0,0,0,1,2.19,4.63,4.63,0,0,0,2.92.81A5.37,5.37,0,0,0,499.1,125.63Z"/><path class="cls-1" d="M515.3,127.05a6.92,6.92,0,0,1-2.43-1.31l.63-1.09a7,7,0,0,0,2.25,1.22,8.41,8.41,0,0,0,2.87.5,5.67,5.67,0,0,0,3.18-.71,2.26,2.26,0,0,0,1-2,1.86,1.86,0,0,0-.56-1.42,3.56,3.56,0,0,0-1.38-.76,21.15,21.15,0,0,0-2.27-.52,18.42,18.42,0,0,1-2.72-.66,4.2,4.2,0,0,1-1.78-1.14,3.09,3.09,0,0,1-.73-2.18,3.41,3.41,0,0,1,1.4-2.8,6.33,6.33,0,0,1,4-1.1,9.57,9.57,0,0,1,2.7.38,6.59,6.59,0,0,1,2.18,1l-.63,1.09a6.45,6.45,0,0,0-2-1,8.39,8.39,0,0,0-2.29-.32,5.07,5.07,0,0,0-3,.73,2.3,2.3,0,0,0-1,1.94,1.94,1.94,0,0,0,.57,1.49,3.8,3.8,0,0,0,1.41.79c.55.17,1.33.36,2.33.56a19.58,19.58,0,0,1,2.69.64,4.08,4.08,0,0,1,1.73,1.1,3,3,0,0,1,.71,2.1,3.33,3.33,0,0,1-1.47,2.84,7,7,0,0,1-4.15,1.07A10.37,10.37,0,0,1,515.3,127.05Z"/><path class="cls-1" d="M535.08,126.56a3.67,3.67,0,0,1-1.3.75,5.18,5.18,0,0,1-1.62.26,3.54,3.54,0,0,1-3.88-3.88v-9.3h-2.62v-1.18h2.62V110.1h1.37v3.11h4.53v1.18h-4.53v9.16a3,3,0,0,0,.67,2.12,2.55,2.55,0,0,0,2,.72,3.15,3.15,0,0,0,2.21-.79Z"/><path class="cls-1" d="M547.74,114.46a5.24,5.24,0,0,1,1.41,4v9h-1.31v-2.54a4.63,4.63,0,0,1-2,2,6.65,6.65,0,0,1-3.14.7,5.82,5.82,0,0,1-3.75-1.12,3.61,3.61,0,0,1-1.37-3,3.66,3.66,0,0,1,1.26-2.88,6.1,6.1,0,0,1,4.06-1.1h4.88v-1.15a4,4,0,0,0-1.08-3,4.38,4.38,0,0,0-3.15-1,7.52,7.52,0,0,0-2.71.49,6.56,6.56,0,0,0-2.2,1.31l-.68-1a7.59,7.59,0,0,1,2.56-1.48,9.21,9.21,0,0,1,3.14-.53A5.7,5.7,0,0,1,547.74,114.46Zm-1.82,11.17a5,5,0,0,0,1.87-2.38v-2.67h-4.86a4.89,4.89,0,0,0-3,.76,2.56,2.56,0,0,0-.94,2.11,2.63,2.63,0,0,0,1,2.19,4.63,4.63,0,0,0,2.92.81A5.4,5.4,0,0,0,545.92,125.63Z"/><path class="cls-1" d="M561.84,126.56a3.67,3.67,0,0,1-1.3.75,5.14,5.14,0,0,1-1.62.26,3.54,3.54,0,0,1-3.87-3.88v-9.3h-2.62v-1.18h2.62V110.1h1.36v3.11h4.53v1.18h-4.53v9.16a3,3,0,0,0,.67,2.12,2.56,2.56,0,0,0,2,.72,3.17,3.17,0,0,0,2.21-.79Z"/><path class="cls-1" d="M565.52,109.44a1,1,0,0,1-.32-.78,1.11,1.11,0,0,1,1.11-1.12,1.12,1.12,0,0,1,.8.31,1.06,1.06,0,0,1,.32.78,1.13,1.13,0,0,1-1.91.81Zm.11,3.77H567v14.25h-1.37Z"/><path class="cls-1" d="M583.94,114.66a6.09,6.09,0,0,1,1.55,4.47v8.33h-1.36v-8.22a5.07,5.07,0,0,0-1.21-3.65,4.51,4.51,0,0,0-3.4-1.26,5.25,5.25,0,0,0-4,1.5,5.59,5.59,0,0,0-1.44,4v7.59h-1.37V113.21h1.31v3.09a5.48,5.48,0,0,1,2.2-2.35,6.78,6.78,0,0,1,3.45-.84A5.71,5.71,0,0,1,583.94,114.66Z"/><path class="cls-1" d="M607,114.46a5.21,5.21,0,0,1,1.42,4v9H607.1v-2.54a4.68,4.68,0,0,1-2,2,6.65,6.65,0,0,1-3.14.7,5.82,5.82,0,0,1-3.75-1.12,3.87,3.87,0,0,1-.11-5.83,6.09,6.09,0,0,1,4-1.1h4.89v-1.15a4,4,0,0,0-1.08-3,4.38,4.38,0,0,0-3.15-1,7.58,7.58,0,0,0-2.72.49,6.62,6.62,0,0,0-2.19,1.31l-.69-1a7.64,7.64,0,0,1,2.57-1.48,9.16,9.16,0,0,1,3.14-.53A5.67,5.67,0,0,1,607,114.46Zm-1.81,11.17a5.06,5.06,0,0,0,1.87-2.38v-2.67h-4.86a4.89,4.89,0,0,0-3,.76,2.56,2.56,0,0,0-.94,2.11,2.62,2.62,0,0,0,1,2.19,4.65,4.65,0,0,0,2.92.81A5.43,5.43,0,0,0,605.18,125.63Z"/><path class="cls-1" d="M625.22,114.66a6.09,6.09,0,0,1,1.55,4.47v8.33h-1.36v-8.22a5,5,0,0,0-1.22-3.65,4.49,4.49,0,0,0-3.39-1.26,5.23,5.23,0,0,0-4,1.5,5.6,5.6,0,0,0-1.45,4v7.59H614V113.21h1.31v3.09a5.42,5.42,0,0,1,2.2-2.35,6.78,6.78,0,0,1,3.45-.84A5.71,5.71,0,0,1,625.22,114.66Z"/><path class="cls-1" d="M645.08,107.21v20.25h-1.34V124.1a6.21,6.21,0,0,1-2.37,2.57,6.82,6.82,0,0,1-3.47.9,7,7,0,0,1-3.6-.93,6.69,6.69,0,0,1-2.52-2.57,7.51,7.51,0,0,1-.92-3.74,7.6,7.6,0,0,1,.92-3.75A6.53,6.53,0,0,1,634.3,114a7.14,7.14,0,0,1,3.6-.91,6.6,6.6,0,0,1,3.43.9,6.4,6.4,0,0,1,2.38,2.51v-9.31Zm-4.16,18.36a5.48,5.48,0,0,0,2-2.12,6.37,6.37,0,0,0,.75-3.12,6.29,6.29,0,0,0-.75-3.1,5.5,5.5,0,0,0-2-2.13,5.71,5.71,0,0,0-2.94-.77,5.65,5.65,0,0,0-2.93.77,5.53,5.53,0,0,0-2,2.13,6.29,6.29,0,0,0-.75,3.1,6.37,6.37,0,0,0,.75,3.12,5.5,5.5,0,0,0,2,2.12,5.65,5.65,0,0,0,2.93.77A5.71,5.71,0,0,0,640.92,125.57Z"/><path class="cls-1" d="M656.32,104.48h1.25l-9,25.7h-1.26Z"/><path class="cls-1" d="M659.6,126.64a6.72,6.72,0,0,1-2.55-2.58,8,8,0,0,1,0-7.45A6.72,6.72,0,0,1,659.6,114a7.68,7.68,0,0,1,7.29,0,6.72,6.72,0,0,1,2.55,2.58,7.93,7.93,0,0,1,0,7.45,6.72,6.72,0,0,1-2.55,2.58,7.61,7.61,0,0,1-7.29,0Zm6.58-1.07a5.5,5.5,0,0,0,2.05-2.12,6.37,6.37,0,0,0,.75-3.12,6.29,6.29,0,0,0-.75-3.1,5.53,5.53,0,0,0-2.05-2.13,5.65,5.65,0,0,0-2.93-.77,5.71,5.71,0,0,0-2.94.77,5.5,5.5,0,0,0-2,2.13,6.29,6.29,0,0,0-.75,3.1,6.37,6.37,0,0,0,.75,3.12,5.48,5.48,0,0,0,2,2.12,5.71,5.71,0,0,0,2.94.77A5.65,5.65,0,0,0,666.18,125.57Z"/><path class="cls-1" d="M678,113.94a6.44,6.44,0,0,1,3.38-.83v1.33l-.32,0a4.72,4.72,0,0,0-3.71,1.48A5.93,5.93,0,0,0,676,120v7.42h-1.37V113.21h1.31v3.12A4.91,4.91,0,0,1,678,113.94Z"/><path class="cls-1" d="M704.39,120.66H692.14a6,6,0,0,0,.84,3,5.38,5.38,0,0,0,2.14,2,6.85,6.85,0,0,0,5.63.2,4.92,4.92,0,0,0,2-1.48l.79.9a5.92,5.92,0,0,1-2.33,1.71,7.47,7.47,0,0,1-3,.61,7.63,7.63,0,0,1-3.79-.93,6.78,6.78,0,0,1-2.61-2.57,7.32,7.32,0,0,1-.94-3.74,7.75,7.75,0,0,1,.89-3.72,6.52,6.52,0,0,1,2.44-2.58,6.76,6.76,0,0,1,3.49-.92,6.7,6.7,0,0,1,3.48.91,6.49,6.49,0,0,1,2.43,2.55,7.68,7.68,0,0,1,.89,3.71ZM694.92,115a5.12,5.12,0,0,0-1.92,1.89,6,6,0,0,0-.83,2.74h10.91a5.79,5.79,0,0,0-.82-2.73,5.31,5.31,0,0,0-4.64-2.56A5.51,5.51,0,0,0,694.92,115Z"/><path class="cls-1" d="M718.14,126.28v1.18H706.82v-.93l9.38-12.14H707v-1.18h11v.93l-9.41,12.14Z"/><path class="cls-1" d="M734,120.66H721.77a5.84,5.84,0,0,0,.84,3,5.38,5.38,0,0,0,2.14,2,6.83,6.83,0,0,0,5.62.2,5,5,0,0,0,2-1.48l.79.9a6,6,0,0,1-2.33,1.71,7.51,7.51,0,0,1-3,.61,7.63,7.63,0,0,1-3.79-.93,6.78,6.78,0,0,1-2.61-2.57,7.32,7.32,0,0,1-.94-3.74,7.63,7.63,0,0,1,.89-3.72,6.52,6.52,0,0,1,2.44-2.58,7.09,7.09,0,0,1,7,0,6.49,6.49,0,0,1,2.43,2.55,7.67,7.67,0,0,1,.88,3.71ZM724.55,115a5.12,5.12,0,0,0-1.92,1.89,6.12,6.12,0,0,0-.84,2.74h10.92a5.79,5.79,0,0,0-.82-2.73,5.31,5.31,0,0,0-4.64-2.56A5.51,5.51,0,0,0,724.55,115Z"/><path class="cls-1" d="M745.34,126.56a3.67,3.67,0,0,1-1.3.75,5.18,5.18,0,0,1-1.62.26,3.54,3.54,0,0,1-3.88-3.88v-9.3h-2.61v-1.18h2.61V110.1h1.37v3.11h4.53v1.18h-4.53v9.16a3,3,0,0,0,.67,2.12,2.55,2.55,0,0,0,2,.72,3.14,3.14,0,0,0,2.21-.79Z"/><path class="cls-1" d="M749,109.44a1,1,0,0,1-.33-.78,1.13,1.13,0,0,1,1.12-1.12,1.09,1.09,0,0,1,.79.31,1,1,0,0,1,.33.78,1.13,1.13,0,0,1-1.12,1.12A1.09,1.09,0,0,1,749,109.44Zm.11,3.77h1.36v14.25h-1.36Z"/><path class="cls-1" d="M778.14,114.66a6.16,6.16,0,0,1,1.52,4.47v8.33h-1.37v-8.22a5.15,5.15,0,0,0-1.17-3.65,4.24,4.24,0,0,0-3.27-1.26,5,5,0,0,0-3.81,1.5,5.66,5.66,0,0,0-1.4,4v7.59h-1.37v-8.22a5.15,5.15,0,0,0-1.17-3.65,4.24,4.24,0,0,0-3.27-1.26,5,5,0,0,0-3.81,1.5,5.67,5.67,0,0,0-1.41,4v7.59h-1.36V113.21h1.31v3.06a5.24,5.24,0,0,1,2.11-2.33,6.41,6.41,0,0,1,3.35-.83,5.92,5.92,0,0,1,3.28.87,4.76,4.76,0,0,1,1.93,2.56,5.56,5.56,0,0,1,2.22-2.51,6.71,6.71,0,0,1,3.53-.92A5.51,5.51,0,0,1,778.14,114.66Z"/><path class="cls-1" d="M785.17,109.44a1,1,0,0,1-.33-.78,1.13,1.13,0,0,1,1.12-1.12,1.09,1.09,0,0,1,.79.31,1,1,0,0,1,.33.78,1.13,1.13,0,0,1-1.12,1.12A1.09,1.09,0,0,1,785.17,109.44Zm.11,3.77h1.36v14.25h-1.36Z"/><path class="cls-1" d="M803.15,114a6.53,6.53,0,0,1,2.52,2.56,7.6,7.6,0,0,1,.92,3.75,7.51,7.51,0,0,1-.92,3.74,6.69,6.69,0,0,1-2.52,2.57,7.1,7.1,0,0,1-3.6.93,6.59,6.59,0,0,1-3.45-.92,6.19,6.19,0,0,1-2.39-2.55v3.36H792.4V107.21h1.36v9.25a6.22,6.22,0,0,1,2.38-2.47,6.67,6.67,0,0,1,3.41-.88A7.19,7.19,0,0,1,803.15,114Zm-.74,11.55a5.45,5.45,0,0,0,2.06-2.12,6.37,6.37,0,0,0,.75-3.12,6.29,6.29,0,0,0-.75-3.1,5.48,5.48,0,0,0-2.06-2.13,6,6,0,0,0-5.88,0,5.5,5.5,0,0,0-2,2.13,6.29,6.29,0,0,0-.75,3.1,6.37,6.37,0,0,0,.75,3.12,5.48,5.48,0,0,0,2,2.12,6,6,0,0,0,5.88,0Z"/><path class="cls-1" d="M822.85,120.66H810.6a5.84,5.84,0,0,0,.84,3,5.38,5.38,0,0,0,2.14,2,6.83,6.83,0,0,0,5.62.2,5,5,0,0,0,2-1.48l.79.9a6,6,0,0,1-2.33,1.71,7.51,7.51,0,0,1-3,.61,7.63,7.63,0,0,1-3.79-.93,6.78,6.78,0,0,1-2.61-2.57,7.32,7.32,0,0,1-.94-3.74,7.63,7.63,0,0,1,.89-3.72,6.52,6.52,0,0,1,2.44-2.58,7.09,7.09,0,0,1,7,0,6.63,6.63,0,0,1,2.43,2.55,7.67,7.67,0,0,1,.88,3.71ZM813.38,115a5.12,5.12,0,0,0-1.92,1.89,6.12,6.12,0,0,0-.84,2.74h10.92a5.79,5.79,0,0,0-.82-2.73,5.31,5.31,0,0,0-4.64-2.56A5.51,5.51,0,0,0,813.38,115Z"/><path class="cls-1" d="M10.31,159.29A3.4,3.4,0,0,1,9,160a4.87,4.87,0,0,1-1.62.26,3.83,3.83,0,0,1-2.86-1,3.85,3.85,0,0,1-1-2.85v-9.3H.9V146H3.52v-3.11H4.88V146H9.41v1.18H4.88v9.16a3,3,0,0,0,.67,2.12,2.56,2.56,0,0,0,2,.72,3.17,3.17,0,0,0,2.21-.79Z"/><path class="cls-1" d="M15.51,159.38A6.59,6.59,0,0,1,13,156.8a7.93,7.93,0,0,1,0-7.45,6.59,6.59,0,0,1,2.55-2.58,7.17,7.17,0,0,1,3.64-.93,7.17,7.17,0,0,1,3.64.93,6.72,6.72,0,0,1,2.55,2.58,7.93,7.93,0,0,1,0,7.45,6.72,6.72,0,0,1-2.55,2.58,7.16,7.16,0,0,1-3.64.92A7.16,7.16,0,0,1,15.51,159.38Zm6.57-1.07a5.46,5.46,0,0,0,2.05-2.13,6.82,6.82,0,0,0,0-6.22,5.43,5.43,0,0,0-2.05-2.12,6,6,0,0,0-5.86,0,5.43,5.43,0,0,0-2,2.12,6.82,6.82,0,0,0,0,6.22,5.46,5.46,0,0,0,2,2.13,6,6,0,0,0,5.86,0Z"/><path class="cls-1" d="M50.33,146v12.72q0,3.54-1.72,5.24a7.13,7.13,0,0,1-5.18,1.69,11.32,11.32,0,0,1-3.71-.6,7.25,7.25,0,0,1-2.81-1.67l.74-1a7.5,7.5,0,0,0,2.56,1.52,9.14,9.14,0,0,0,3.19.55A5.74,5.74,0,0,0,47.6,163,5.68,5.68,0,0,0,49,158.83v-2.4a6,6,0,0,1-2.43,2.4,7.13,7.13,0,0,1-3.49.85,7.47,7.47,0,0,1-3.62-.89,6.51,6.51,0,0,1-2.55-2.47,7.41,7.41,0,0,1,0-7.15,6.46,6.46,0,0,1,2.55-2.45,7.57,7.57,0,0,1,3.62-.88,7.2,7.2,0,0,1,3.54.88A5.91,5.91,0,0,1,49,149.17V146Zm-4.17,11.78a5.34,5.34,0,0,0,2.09-2,5.82,5.82,0,0,0,.75-3,5.75,5.75,0,0,0-.75-2.95,5.3,5.3,0,0,0-2.09-2,6.11,6.11,0,0,0-3-.73,6,6,0,0,0-3,.73,5.31,5.31,0,0,0-2.07,2,5.75,5.75,0,0,0-.75,2.95,5.82,5.82,0,0,0,.75,3,5.36,5.36,0,0,0,2.07,2,6.15,6.15,0,0,0,3,.72A6.22,6.22,0,0,0,46.16,157.73Z"/><path class="cls-1" d="M68.15,153.4H55.9a5.84,5.84,0,0,0,.84,3,5.45,5.45,0,0,0,2.14,2,6.53,6.53,0,0,0,3,.71,6.44,6.44,0,0,0,2.57-.51,4.82,4.82,0,0,0,2-1.49l.79.91a6,6,0,0,1-2.33,1.71,8.15,8.15,0,0,1-6.83-.32,6.78,6.78,0,0,1-2.61-2.57,7.32,7.32,0,0,1-.94-3.74,7.75,7.75,0,0,1,.89-3.72,6.52,6.52,0,0,1,2.44-2.58,7,7,0,0,1,7,0,6.49,6.49,0,0,1,2.43,2.55,7.67,7.67,0,0,1,.88,3.71Zm-9.47-5.69a5.12,5.12,0,0,0-1.92,1.89,6.12,6.12,0,0,0-.84,2.74H66.84a5.79,5.79,0,0,0-.82-2.73A5.34,5.34,0,0,0,61.38,147,5.51,5.51,0,0,0,58.68,147.71Z"/><path class="cls-1" d="M79.47,159.29a3.4,3.4,0,0,1-1.3.75,4.91,4.91,0,0,1-1.62.26,3.52,3.52,0,0,1-3.87-3.87v-9.3H70.06V146h2.62v-3.11H74V146h4.53v1.18H74v9.16a3,3,0,0,0,.67,2.12,2.56,2.56,0,0,0,2,.72,3.17,3.17,0,0,0,2.21-.79Z"/><path class="cls-1" d="M101,146.76a6.56,6.56,0,0,1,2.53,2.56,7.6,7.6,0,0,1,.91,3.75,7.51,7.51,0,0,1-.91,3.74,6.72,6.72,0,0,1-2.53,2.57,7,7,0,0,1-3.6.92,6.64,6.64,0,0,1-3.45-.91,6.26,6.26,0,0,1-2.39-2.55v3.36H90.27V140h1.37v9.25A6.13,6.13,0,0,1,94,146.73a6.7,6.7,0,0,1,3.41-.89A7.14,7.14,0,0,1,101,146.76Zm-.73,11.55a5.55,5.55,0,0,0,2.06-2.13,6.82,6.82,0,0,0,0-6.22,5.52,5.52,0,0,0-2.06-2.12,5.77,5.77,0,0,0-3-.77,5.65,5.65,0,0,0-2.93.77,5.43,5.43,0,0,0-2,2.12,6.82,6.82,0,0,0,0,6.22,5.46,5.46,0,0,0,2,2.13,5.65,5.65,0,0,0,2.93.77A5.77,5.77,0,0,0,100.29,158.31Z"/><path class="cls-1" d="M120.72,153.4H108.47a6,6,0,0,0,.85,3,5.38,5.38,0,0,0,2.14,2,6.83,6.83,0,0,0,5.62.2,4.85,4.85,0,0,0,2-1.49l.8.91a6.13,6.13,0,0,1-2.34,1.71,8.15,8.15,0,0,1-6.83-.32,6.78,6.78,0,0,1-2.61-2.57,7.42,7.42,0,0,1-.94-3.74,7.75,7.75,0,0,1,.89-3.72,6.52,6.52,0,0,1,2.44-2.58,7,7,0,0,1,7,0,6.49,6.49,0,0,1,2.43,2.55,7.68,7.68,0,0,1,.89,3.71Zm-9.47-5.69a5.12,5.12,0,0,0-1.92,1.89,6.11,6.11,0,0,0-.83,2.74h10.91a5.68,5.68,0,0,0-.82-2.73A5.34,5.34,0,0,0,114,147,5.51,5.51,0,0,0,111.25,147.71Z"/><path class="cls-1" d="M125,140h1.37V160.2H125Z"/><path class="cls-1" d="M134,159.38a6.72,6.72,0,0,1-2.55-2.58,7.93,7.93,0,0,1,0-7.45,6.72,6.72,0,0,1,2.55-2.58,7.59,7.59,0,0,1,7.28,0,6.66,6.66,0,0,1,2.55,2.58,7.93,7.93,0,0,1,0,7.45,6.66,6.66,0,0,1-2.55,2.58,7.66,7.66,0,0,1-7.28,0Zm6.57-1.07a5.46,5.46,0,0,0,2-2.13,6.82,6.82,0,0,0,0-6.22,5.43,5.43,0,0,0-2-2.12,6,6,0,0,0-5.86,0,5.43,5.43,0,0,0-2,2.12,6.82,6.82,0,0,0,0,6.22,5.46,5.46,0,0,0,2,2.13,6,6,0,0,0,5.86,0Z"/><path class="cls-1" d="M169,146l-5.4,14.25h-1.28l-4.8-12.36-4.83,12.36h-1.26L146,146h1.31L152,158.67,156.89,146h1.18l4.83,12.69L167.7,146Z"/><path class="cls-1" d="M186.2,159.29a3.4,3.4,0,0,1-1.3.75,4.91,4.91,0,0,1-1.62.26,3.53,3.53,0,0,1-3.88-3.87v-9.3h-2.62V146h2.62v-3.11h1.37V146h4.52v1.18h-4.52v9.16a3,3,0,0,0,.66,2.12,2.58,2.58,0,0,0,2,.72,3.15,3.15,0,0,0,2.21-.79Z"/><path class="cls-1" d="M201.17,147.4a6,6,0,0,1,1.56,4.47v8.33h-1.37V152a5,5,0,0,0-1.21-3.65,4.5,4.5,0,0,0-3.4-1.26,5.22,5.22,0,0,0-3.95,1.5,5.56,5.56,0,0,0-1.45,4v7.59H190V140h1.36v9a5.27,5.27,0,0,1,2.18-2.28,6.88,6.88,0,0,1,3.41-.81A5.68,5.68,0,0,1,201.17,147.4Z"/><path class="cls-1" d="M220.41,153.4H208.16a5.84,5.84,0,0,0,.84,3,5.45,5.45,0,0,0,2.14,2,6.83,6.83,0,0,0,5.62.2,4.88,4.88,0,0,0,2-1.49l.79.91a6,6,0,0,1-2.33,1.71,8.15,8.15,0,0,1-6.83-.32,6.78,6.78,0,0,1-2.61-2.57,7.32,7.32,0,0,1-.94-3.74,7.75,7.75,0,0,1,.89-3.72,6.52,6.52,0,0,1,2.44-2.58,7,7,0,0,1,7,0,6.49,6.49,0,0,1,2.43,2.55,7.67,7.67,0,0,1,.88,3.71Zm-9.47-5.69A5.12,5.12,0,0,0,209,149.6a6.12,6.12,0,0,0-.84,2.74H219.1a5.79,5.79,0,0,0-.82-2.73,5.34,5.34,0,0,0-4.64-2.57A5.51,5.51,0,0,0,210.94,147.71Z"/><path class="cls-1" d="M235,146.68a6.42,6.42,0,0,1,3.38-.84v1.34l-.32,0a4.73,4.73,0,0,0-3.71,1.49,5.92,5.92,0,0,0-1.34,4.13v7.43h-1.37V146H233v3.11A4.93,4.93,0,0,1,235,146.68Z"/><path class="cls-1" d="M254.07,153.4H241.82a6,6,0,0,0,.85,3,5.45,5.45,0,0,0,2.14,2,6.83,6.83,0,0,0,5.62.2,5,5,0,0,0,2-1.49l.79.91a6.17,6.17,0,0,1-2.33,1.71,8.17,8.17,0,0,1-6.84-.32,6.69,6.69,0,0,1-2.6-2.57,7.32,7.32,0,0,1-.94-3.74,7.74,7.74,0,0,1,.88-3.72,6.59,6.59,0,0,1,2.44-2.58,7,7,0,0,1,7,0,6.53,6.53,0,0,1,2.42,2.55,7.68,7.68,0,0,1,.89,3.71Zm-9.46-5.69a5.15,5.15,0,0,0-1.93,1.89,6.11,6.11,0,0,0-.83,2.74h10.91a5.67,5.67,0,0,0-.81-2.73,5.37,5.37,0,0,0-1.94-1.88,5.32,5.32,0,0,0-2.7-.69A5.51,5.51,0,0,0,244.61,147.71Z"/><path class="cls-1" d="M260.27,159.38a6.64,6.64,0,0,1-2.57-2.58,8,8,0,0,1,0-7.48,6.52,6.52,0,0,1,2.57-2.56,7.45,7.45,0,0,1,3.71-.92,7.27,7.27,0,0,1,3.12.67,5.68,5.68,0,0,1,2.28,2l-1,.74a4.88,4.88,0,0,0-1.9-1.6,5.85,5.85,0,0,0-2.49-.53,6,6,0,0,0-3,.75,5.35,5.35,0,0,0-2.07,2.12,6.93,6.93,0,0,0,0,6.27,5.35,5.35,0,0,0,2.07,2.12,6,6,0,0,0,3,.75,5.71,5.71,0,0,0,2.49-.54,4.77,4.77,0,0,0,1.9-1.59l1,.74a5.68,5.68,0,0,1-2.28,1.95,7.27,7.27,0,0,1-3.12.66A7.35,7.35,0,0,1,260.27,159.38Z"/><path class="cls-1" d="M275.15,159.38a6.72,6.72,0,0,1-2.55-2.58,7.93,7.93,0,0,1,0-7.45,6.72,6.72,0,0,1,2.55-2.58,7.59,7.59,0,0,1,7.28,0,6.66,6.66,0,0,1,2.55,2.58,7.93,7.93,0,0,1,0,7.45,6.66,6.66,0,0,1-2.55,2.58,7.66,7.66,0,0,1-7.28,0Zm6.57-1.07a5.46,5.46,0,0,0,2-2.13,6.82,6.82,0,0,0,0-6.22,5.43,5.43,0,0,0-2-2.12,6,6,0,0,0-5.86,0,5.43,5.43,0,0,0-2.05,2.12,6.82,6.82,0,0,0,0,6.22,5.46,5.46,0,0,0,2.05,2.13,6,6,0,0,0,5.86,0Z"/><path class="cls-1" d="M312,147.4a6.16,6.16,0,0,1,1.52,4.47v8.33h-1.37V152a5.15,5.15,0,0,0-1.17-3.65,4.24,4.24,0,0,0-3.27-1.26,5,5,0,0,0-3.81,1.5,5.66,5.66,0,0,0-1.4,4v7.59h-1.37V152a5.15,5.15,0,0,0-1.17-3.65,4.25,4.25,0,0,0-3.28-1.26,5,5,0,0,0-3.8,1.5,5.67,5.67,0,0,0-1.41,4v7.59h-1.36V146h1.31V149a5.24,5.24,0,0,1,2.11-2.33,6.41,6.41,0,0,1,3.35-.84,5.92,5.92,0,0,1,3.28.88,4.76,4.76,0,0,1,1.93,2.56,5.56,5.56,0,0,1,2.22-2.51,6.62,6.62,0,0,1,3.53-.93A5.52,5.52,0,0,1,312,147.4Z"/><path class="cls-1" d="M341.06,147.4a6.16,6.16,0,0,1,1.52,4.47v8.33h-1.37V152a5.15,5.15,0,0,0-1.17-3.65,4.24,4.24,0,0,0-3.27-1.26,5,5,0,0,0-3.81,1.5,5.67,5.67,0,0,0-1.41,4v7.59h-1.36V152a5.15,5.15,0,0,0-1.17-3.65,4.26,4.26,0,0,0-3.28-1.26,4.94,4.94,0,0,0-3.8,1.5,5.67,5.67,0,0,0-1.41,4v7.59h-1.36V146h1.31V149a5.24,5.24,0,0,1,2.11-2.33,6.4,6.4,0,0,1,3.34-.84,5.93,5.93,0,0,1,3.29.88,4.81,4.81,0,0,1,1.93,2.56,5.56,5.56,0,0,1,2.22-2.51,6.62,6.62,0,0,1,3.53-.93A5.52,5.52,0,0,1,341.06,147.4Z"/><path class="cls-1" d="M360.26,153.4H348a5.84,5.84,0,0,0,.84,3,5.45,5.45,0,0,0,2.14,2,6.83,6.83,0,0,0,5.62.2,5,5,0,0,0,2-1.49l.79.91a6.09,6.09,0,0,1-2.33,1.71,8.15,8.15,0,0,1-6.83-.32,6.78,6.78,0,0,1-2.61-2.57,7.32,7.32,0,0,1-.94-3.74,7.63,7.63,0,0,1,.89-3.72,6.52,6.52,0,0,1,2.44-2.58,7,7,0,0,1,7,0,6.56,6.56,0,0,1,2.43,2.55,7.67,7.67,0,0,1,.88,3.71Zm-9.47-5.69a5.12,5.12,0,0,0-1.92,1.89,6.12,6.12,0,0,0-.84,2.74H359a5.79,5.79,0,0,0-.82-2.73,5.34,5.34,0,0,0-4.64-2.57A5.51,5.51,0,0,0,350.79,147.71Z"/><path class="cls-1" d="M375.7,147.4a6.09,6.09,0,0,1,1.55,4.47v8.33h-1.36V152a5,5,0,0,0-1.22-3.65,4.49,4.49,0,0,0-3.39-1.26,5.25,5.25,0,0,0-4,1.5,5.59,5.59,0,0,0-1.44,4v7.59h-1.37V146h1.31V149a5.37,5.37,0,0,1,2.2-2.35,6.79,6.79,0,0,1,3.45-.85A5.72,5.72,0,0,1,375.7,147.4Z"/><path class="cls-1" d="M395.56,140V160.2h-1.34v-3.36a6.06,6.06,0,0,1-2.37,2.56,6.72,6.72,0,0,1-3.47.9,7,7,0,0,1-3.6-.92,6.69,6.69,0,0,1-2.52-2.57,7.51,7.51,0,0,1-.92-3.74,7.6,7.6,0,0,1,.92-3.75,6.53,6.53,0,0,1,2.52-2.56,7.14,7.14,0,0,1,3.6-.92,6.49,6.49,0,0,1,3.43.91,6.37,6.37,0,0,1,2.38,2.5V140Zm-4.16,18.36a5.5,5.5,0,0,0,2-2.13,6.82,6.82,0,0,0,0-6.22,5.48,5.48,0,0,0-2-2.12,6,6,0,0,0-5.87,0,5.48,5.48,0,0,0-2,2.12,6.82,6.82,0,0,0,0,6.22,5.5,5.5,0,0,0,2,2.13,6,6,0,0,0,5.87,0Z"/><path class="cls-1" d="M413.35,153.4H401.1a5.84,5.84,0,0,0,.84,3,5.45,5.45,0,0,0,2.14,2,6.83,6.83,0,0,0,5.62.2,5,5,0,0,0,2-1.49l.79.91a6.09,6.09,0,0,1-2.33,1.71,8.15,8.15,0,0,1-6.83-.32,6.78,6.78,0,0,1-2.61-2.57,7.32,7.32,0,0,1-.94-3.74,7.63,7.63,0,0,1,.89-3.72,6.52,6.52,0,0,1,2.44-2.58,6.72,6.72,0,0,1,9.4,2.54,7.67,7.67,0,0,1,.88,3.71Zm-9.47-5.69A5.12,5.12,0,0,0,402,149.6a6.12,6.12,0,0,0-.84,2.74H412a5.79,5.79,0,0,0-.82-2.73,5.34,5.34,0,0,0-4.64-2.57A5.51,5.51,0,0,0,403.88,147.71Z"/><path class="cls-1" d="M430.26,140V160.2h-1.34v-3.36a6.06,6.06,0,0,1-2.37,2.56,6.7,6.7,0,0,1-3.47.9,7.09,7.09,0,0,1-3.6-.92,6.69,6.69,0,0,1-2.52-2.57,7.51,7.51,0,0,1-.91-3.74,7.6,7.6,0,0,1,.91-3.75,6.53,6.53,0,0,1,2.52-2.56,7.2,7.2,0,0,1,3.6-.92,6.47,6.47,0,0,1,5.82,3.41V140Zm-4.16,18.36a5.53,5.53,0,0,0,2-2.13,6.82,6.82,0,0,0,0-6.22,5.5,5.5,0,0,0-2-2.12,5.65,5.65,0,0,0-2.93-.77,5.71,5.71,0,0,0-2.94.77,5.48,5.48,0,0,0-2,2.12,6.82,6.82,0,0,0,0,6.22,5.5,5.5,0,0,0,2,2.13,5.71,5.71,0,0,0,2.94.77A5.65,5.65,0,0,0,426.1,158.31Z"/><path class="cls-1" d="M443.46,141.1h1.4v17.84h11v1.26H443.46Z"/><path class="cls-1" d="M459.42,141.1H467a11.06,11.06,0,0,1,5.28,1.23,9,9,0,0,1,3.59,3.39,10.11,10.11,0,0,1,0,9.85,9,9,0,0,1-3.59,3.4A11.06,11.06,0,0,1,467,160.2h-7.56Zm7.45,17.84a10,10,0,0,0,4.67-1.05,7.59,7.59,0,0,0,3.11-2.93,9.07,9.07,0,0,0,0-8.62,7.55,7.55,0,0,0-3.11-2.94,10,10,0,0,0-4.67-1.05h-6.05v16.59Z"/><path class="cls-1" d="M482,141.1h1.39v17.84h11v1.26H482Z"/><path class="cls-1" d="M495.85,152.26h7v1.22h-7Z"/><path class="cls-1" d="M511.14,159.08a9.32,9.32,0,0,1-3.55-3.47,10.13,10.13,0,0,1,0-9.93,9.22,9.22,0,0,1,3.55-3.46A10.16,10.16,0,0,1,516.2,141a10.54,10.54,0,0,1,3.82.67,7.87,7.87,0,0,1,3,2l-.87.9a8,8,0,0,0-5.87-2.27,8.9,8.9,0,0,0-4.36,1.09,8.08,8.08,0,0,0-3.09,3,8.86,8.86,0,0,0,0,8.59,8,8,0,0,0,3.09,3,8.79,8.79,0,0,0,4.36,1.09,8,8,0,0,0,5.87-2.29l.87.9a7.93,7.93,0,0,1-3,2,10.51,10.51,0,0,1-3.8.68A10.26,10.26,0,0,1,511.14,159.08Z"/><path class="cls-1" d="M541.3,159.29a3.4,3.4,0,0,1-1.3.75,4.91,4.91,0,0,1-1.62.26,3.53,3.53,0,0,1-3.88-3.87v-9.3h-2.62V146h2.62v-3.11h1.37V146h4.53v1.18h-4.53v9.16a3,3,0,0,0,.67,2.12,2.55,2.55,0,0,0,2,.72,3.14,3.14,0,0,0,2.21-.79Z"/><path class="cls-1" d="M556.28,147.4a6.09,6.09,0,0,1,1.55,4.47v8.33h-1.36V152a5,5,0,0,0-1.22-3.65,4.49,4.49,0,0,0-3.39-1.26,5.23,5.23,0,0,0-4,1.5,5.56,5.56,0,0,0-1.45,4v7.59h-1.36V140h1.36v9a5.24,5.24,0,0,1,2.19-2.28,6.85,6.85,0,0,1,3.41-.81A5.72,5.72,0,0,1,556.28,147.4Z"/><path class="cls-1" d="M566.81,146.68a6.4,6.4,0,0,1,3.38-.84v1.34l-.33,0a4.74,4.74,0,0,0-3.71,1.49,6,6,0,0,0-1.34,4.13v7.43h-1.36V146h1.31v3.11A4.93,4.93,0,0,1,566.81,146.68Z"/><path class="cls-1" d="M585.85,153.4H573.6a6,6,0,0,0,.84,3,5.47,5.47,0,0,0,2.15,2,6.83,6.83,0,0,0,5.62.2,4.85,4.85,0,0,0,2-1.49l.8.91a6.13,6.13,0,0,1-2.34,1.71,8.15,8.15,0,0,1-6.83-.32,6.78,6.78,0,0,1-2.61-2.57,7.42,7.42,0,0,1-.94-3.74,7.75,7.75,0,0,1,.89-3.72,6.52,6.52,0,0,1,2.44-2.58,7,7,0,0,1,7,0,6.49,6.49,0,0,1,2.43,2.55,7.68,7.68,0,0,1,.89,3.71Zm-9.47-5.69a5.12,5.12,0,0,0-1.92,1.89,6.11,6.11,0,0,0-.83,2.74h10.91a5.79,5.79,0,0,0-.82-2.73,5.34,5.34,0,0,0-4.64-2.57A5.51,5.51,0,0,0,576.38,147.71Z"/><path class="cls-1" d="M590.43,159.79a6.92,6.92,0,0,1-2.43-1.31l.63-1.1a6.86,6.86,0,0,0,2.25,1.23,8.46,8.46,0,0,0,2.88.49,5.59,5.59,0,0,0,3.18-.71,2.25,2.25,0,0,0,1-2,1.86,1.86,0,0,0-.56-1.42,3.43,3.43,0,0,0-1.38-.76,20.87,20.87,0,0,0-2.26-.52,18.28,18.28,0,0,1-2.73-.66,4.17,4.17,0,0,1-1.77-1.14,3.09,3.09,0,0,1-.74-2.18,3.42,3.42,0,0,1,1.41-2.8,6.3,6.3,0,0,1,4-1.11,9.58,9.58,0,0,1,2.7.39,6.65,6.65,0,0,1,2.19,1l-.63,1.09a6.56,6.56,0,0,0-2-1,8.08,8.08,0,0,0-2.29-.33,5.06,5.06,0,0,0-3,.74,2.28,2.28,0,0,0-1,1.94,1.94,1.94,0,0,0,.57,1.49,3.76,3.76,0,0,0,1.4.79c.56.17,1.34.36,2.34.56a19.39,19.39,0,0,1,2.68.64,4,4,0,0,1,1.74,1.1,3,3,0,0,1,.71,2.1,3.34,3.34,0,0,1-1.48,2.84,7,7,0,0,1-4.14,1.06A10.47,10.47,0,0,1,590.43,159.79Z"/><path class="cls-1" d="M614.33,147.4a6,6,0,0,1,1.56,4.47v8.33h-1.37V152a5,5,0,0,0-1.21-3.65,4.5,4.5,0,0,0-3.4-1.26,5.22,5.22,0,0,0-3.95,1.5,5.56,5.56,0,0,0-1.45,4v7.59h-1.37V140h1.37v9a5.27,5.27,0,0,1,2.18-2.28,6.88,6.88,0,0,1,3.41-.81A5.72,5.72,0,0,1,614.33,147.4Z"/><path class="cls-1" d="M623.46,159.38a6.59,6.59,0,0,1-2.55-2.58,7.93,7.93,0,0,1,0-7.45,6.59,6.59,0,0,1,2.55-2.58,7.59,7.59,0,0,1,7.28,0,6.72,6.72,0,0,1,2.55,2.58,7.93,7.93,0,0,1,0,7.45,6.72,6.72,0,0,1-2.55,2.58,7.66,7.66,0,0,1-7.28,0Zm6.57-1.07a5.53,5.53,0,0,0,2.05-2.13,6.82,6.82,0,0,0,0-6.22,5.5,5.5,0,0,0-2.05-2.12,6,6,0,0,0-5.86,0,5.43,5.43,0,0,0-2,2.12,6.82,6.82,0,0,0,0,6.22,5.46,5.46,0,0,0,2,2.13,6,6,0,0,0,5.86,0Z"/><path class="cls-1" d="M638.45,140h1.36V160.2h-1.36Z"/><path class="cls-1" d="M658.23,140V160.2h-1.34v-3.36a6.06,6.06,0,0,1-2.37,2.56,6.72,6.72,0,0,1-3.47.9,7,7,0,0,1-3.6-.92,6.69,6.69,0,0,1-2.52-2.57,7.51,7.51,0,0,1-.92-3.74,7.6,7.6,0,0,1,.92-3.75,6.53,6.53,0,0,1,2.52-2.56,7.14,7.14,0,0,1,3.6-.92,6.52,6.52,0,0,1,3.43.91,6.44,6.44,0,0,1,2.38,2.5V140Zm-4.16,18.36a5.5,5.5,0,0,0,2-2.13,6.82,6.82,0,0,0,0-6.22,5.48,5.48,0,0,0-2-2.12,5.71,5.71,0,0,0-2.94-.77,5.65,5.65,0,0,0-2.93.77,5.5,5.5,0,0,0-2.05,2.12,6.82,6.82,0,0,0,0,6.22,5.53,5.53,0,0,0,2.05,2.13,5.65,5.65,0,0,0,2.93.77A5.71,5.71,0,0,0,654.07,158.31Z"/><path class="cls-1" d="M664.31,159.79a6.92,6.92,0,0,1-2.43-1.31l.63-1.1a6.86,6.86,0,0,0,2.25,1.23,8.46,8.46,0,0,0,2.88.49,5.59,5.59,0,0,0,3.18-.71,2.25,2.25,0,0,0,1-2,1.86,1.86,0,0,0-.56-1.42,3.43,3.43,0,0,0-1.38-.76,20.87,20.87,0,0,0-2.26-.52,18.28,18.28,0,0,1-2.73-.66,4.17,4.17,0,0,1-1.77-1.14,3.09,3.09,0,0,1-.74-2.18,3.42,3.42,0,0,1,1.41-2.8,6.3,6.3,0,0,1,4-1.11,9.58,9.58,0,0,1,2.7.39,6.65,6.65,0,0,1,2.19,1l-.63,1.09a6.56,6.56,0,0,0-2-1,8.08,8.08,0,0,0-2.29-.33,5.06,5.06,0,0,0-3,.74,2.28,2.28,0,0,0-1,1.94,1.94,1.94,0,0,0,.57,1.49,3.76,3.76,0,0,0,1.4.79c.56.17,1.34.36,2.34.56a19.39,19.39,0,0,1,2.68.64,4,4,0,0,1,1.74,1.1,3,3,0,0,1,.71,2.1,3.34,3.34,0,0,1-1.48,2.84,7,7,0,0,1-4.15,1.06A10.46,10.46,0,0,1,664.31,159.79Z"/><path class="cls-1" d="M677.81,140v11.13H677v-10.4h-2.72V140Z"/></g></g></svg>