<svg xmlns="http://www.w3.org/2000/svg" viewBox="0 0 925.7 165.6"><defs><style>.cls-1{fill:#fff;}.cls-2{fill:#22295c;}</style></defs><g id="Layer_2" data-name="Layer 2"><g id="Layer_1-2" data-name="Layer 1"><path class="cls-1" d="M16.67,31.41H11.41V19.3L0,.75H5.66L14,14.7,22.42.75h5.65L16.67,19.3Z"/><path class="cls-1" d="M56.63,27.17a15.79,15.79,0,0,1-11.49,4.54,15.82,15.82,0,0,1-11.5-4.54A15.13,15.13,0,0,1,29,15.86,15.17,15.17,0,0,1,33.64,4.54,15.82,15.82,0,0,1,45.14,0,15.79,15.79,0,0,1,56.63,4.54a15.18,15.18,0,0,1,4.65,11.32A15.14,15.14,0,0,1,56.63,27.17ZM52.84,8a10.77,10.77,0,0,0-15.4,0,10.94,10.94,0,0,0-3.14,7.88,10.91,10.91,0,0,0,3.14,7.87,10.75,10.75,0,0,0,15.4,0A10.91,10.91,0,0,0,56,15.86,10.93,10.93,0,0,0,52.84,8Z"/><path class="cls-1" d="M74.7,24.39a7.85,7.85,0,0,0,11.41,0,9.93,9.93,0,0,0,2.1-6.67V.75h5.18V17.94q0,6.63-3.64,10.2a12.78,12.78,0,0,1-9.34,3.57,12.79,12.79,0,0,1-9.35-3.57q-3.65-3.57-3.64-10.2V.75H72.6v17A9.93,9.93,0,0,0,74.7,24.39Z"/><path class="cls-1" d="M113.52,31.41V.75h5.18V26.5h14v4.91Z"/><path class="cls-1" d="M138.35.75h5.18V31.41h-5.18Z"/><path class="cls-1" d="M152,.75h5.18v15l14-14.95h6.58L165.51,14.17,178,31.41h-6.14L161.69,18l-4.47,4.82v8.6H152Z"/><path class="cls-1" d="M204.46.75V5.61H188.1v8.12h14.69v4.61H188.1v8.2H205v4.87H182.92V.75Z"/><path class="cls-1" d="M211.61,31.41V.75h5.18V26.5h14v4.91Z"/><path class="cls-1" d="M245.61,31.41h-5.27V19.3L228.94.75h5.66l8.37,14L251.35.75H257L245.61,19.3Z"/><path class="cls-1" d="M272.93,31.41V.75h5.18V14h15.22V.75h5.18V31.41h-5.18V18.86H278.11V31.41Z"/><path class="cls-1" d="M311.36,24.43l-3.07,7h-5.53L316.27.75h5.53l13.51,30.66h-5.53l-3.07-7Zm13.25-4.78L319,7l-5.57,12.63Z"/><path class="cls-1" d="M351.8,31.41H346L333.69.75h5.79l9.43,22.89L358.34.75h5.79Z"/><path class="cls-1" d="M390.06.75V5.61H373.7v8.12h14.69v4.61H373.7v8.2h16.88v4.87H368.52V.75Z"/><path class="cls-2" d="M435.77,12.11l-8.3,16.75h-4.08l-8.24-16.75v19.3H408.3V.75h9.26l7.9,16.84L433.4.75h9.21V31.41h-6.84Z"/><path class="cls-2" d="M476,27.17a16.71,16.71,0,0,1-22.9,0,15.13,15.13,0,0,1-4.65-11.29,15.17,15.17,0,0,1,4.65-11.3,16.71,16.71,0,0,1,22.9,0,15.17,15.17,0,0,1,4.65,11.3A15.13,15.13,0,0,1,476,27.17ZM473.62,15.9a10,10,0,0,0-2.63-7,8.69,8.69,0,0,0-12.94,0,10,10,0,0,0-2.63,7,9.94,9.94,0,0,0,2.63,7,8.73,8.73,0,0,0,12.94,0A9.94,9.94,0,0,0,473.62,15.9Z"/><path class="cls-2" d="M511.26,10.92q0,7.38-5.84,9.52l7.77,11h-8.42L498,21.63h-4.74v9.78h-6.84V.75H498q7.15,0,10.2,2.41C510.24,4.77,511.26,7.35,511.26,10.92ZM503,14.56a4.62,4.62,0,0,0,1.27-3.62c0-1.65-.43-2.78-1.31-3.4s-2.41-.92-4.61-.92h-5.13V15.7h5C500.57,15.7,502.16,15.32,503,14.56Z"/><path class="cls-2" d="M540.38.75V6.84H525.12v6.32h13.73V19H525.12v6.36h15.75v6.06H518.28V.75Z"/><path class="cls-2" d="M580.65.75V6.84H565.39v6.32h13.73V19H565.39v6.36h15.75v6.06H558.55V.75Z"/><path class="cls-2" d="M594.41,6.87a2.62,2.62,0,0,0-1,2.14,2.41,2.41,0,0,0,1.21,2.13A21.9,21.9,0,0,0,600.2,13,15.56,15.56,0,0,1,607,16.23a8,8,0,0,1,2.42,6.27,8.26,8.26,0,0,1-3.1,6.69,12.32,12.32,0,0,1-8.13,2.57A18.83,18.83,0,0,1,585,26.36l4.08-5q4.95,4.35,9.17,4.35a4.75,4.75,0,0,0,3-.82,2.59,2.59,0,0,0,1.07-2.19,2.55,2.55,0,0,0-1.14-2.19,14.94,14.94,0,0,0-4.51-1.65q-5.35-1.27-7.83-3.31c-1.66-1.36-2.48-3.49-2.48-6.4a8,8,0,0,1,3.13-6.74A12.61,12.61,0,0,1,597.32,0a18.58,18.58,0,0,1,6.14,1.06,16.35,16.35,0,0,1,5.36,3l-3.47,5a13.49,13.49,0,0,0-8.25-3A4,4,0,0,0,594.41,6.87Z"/><path class="cls-2" d="M627.94,6.67V31.41H621.1V6.67h-8.69V.75h24.22V6.67Z"/><path class="cls-2" d="M661.24,31.41l-2.86-6.63H645.53l-2.85,6.63H635.4L648.65.75h6.62l13.25,30.66ZM652,9.87l-3.86,8.9h7.68Z"/><path class="cls-2" d="M685.49,31.41H672.07V.75H684a17.18,17.18,0,0,1,5.38.74,7.75,7.75,0,0,1,3.4,2,8,8,0,0,1,2.06,5.35,6.27,6.27,0,0,1-2.33,5.35,8.14,8.14,0,0,1-1.09.77c-.21.1-.57.27-1.1.5a8.07,8.07,0,0,1,4.54,2.57,7.13,7.13,0,0,1,1.69,4.85,8.27,8.27,0,0,1-2.19,5.66C692.66,30.46,689.71,31.41,685.49,31.41Zm-6.58-18.25h3.25a11,11,0,0,0,4.23-.61,2.59,2.59,0,0,0,1.39-2.66,2.75,2.75,0,0,0-1.28-2.7,10.06,10.06,0,0,0-4.3-.65h-3.29Zm0,12.46h4.7a10.25,10.25,0,0,0,4.41-.73A2.86,2.86,0,0,0,689.49,22a2.73,2.73,0,0,0-1.56-2.8,13.22,13.22,0,0,0-5-.68h-4Z"/><path class="cls-2" d="M702.29,31.41V.75h6.85V25.31h13.07v6.1Z"/><path class="cls-2" d="M727.21.75h6.84V31.41h-6.84Z"/><path class="cls-2" d="M748.77,6.87a2.62,2.62,0,0,0-1,2.14A2.43,2.43,0,0,0,749,11.14,21.9,21.9,0,0,0,754.56,13a15.66,15.66,0,0,1,6.78,3.22,7.94,7.94,0,0,1,2.41,6.27,8.28,8.28,0,0,1-3.09,6.69,12.35,12.35,0,0,1-8.14,2.57,18.8,18.8,0,0,1-13.11-5.4l4.08-5q4.95,4.35,9.16,4.35a4.73,4.73,0,0,0,3-.82,2.59,2.59,0,0,0,1.08-2.19,2.55,2.55,0,0,0-1.14-2.19A15,15,0,0,0,751,18.86q-5.35-1.27-7.83-3.31t-2.48-6.4a8,8,0,0,1,3.14-6.74A12.61,12.61,0,0,1,751.69,0a18.67,18.67,0,0,1,6.14,1.06,16.3,16.3,0,0,1,5.35,3l-3.46,5a13.53,13.53,0,0,0-8.25-3A4.09,4.09,0,0,0,748.77,6.87Z"/><path class="cls-2" d="M788.62.75h6.84V31.41h-6.84V19.34H776.43V31.41h-6.85V.75h6.85v12.8h12.19Z"/><path class="cls-2" d="M825.12.75V6.84H809.85v6.32h13.73V19H809.85v6.36H825.6v6.06H803V.75Z"/><path class="cls-2" d="M855.12,4.76q4.39,4,4.39,11.16t-4.28,11.32q-4.28,4.17-13.05,4.17H831.7V.75h10.83Q850.74.75,855.12,4.76ZM850.1,23q2.52-2.37,2.52-6.89t-2.52-7q-2.52-2.45-7.74-2.44h-3.82V25.35h4.34C846,25.35,848.42,24.57,850.1,23Z"/><path class="cls-2" d="M904.47,12.11l-8.29,16.75H892.1l-8.24-16.75v19.3H877V.75h9.26l7.9,16.84L902.1.75h9.22V31.41h-6.85Z"/><path class="cls-2" d="M918.86.75h6.84V31.41h-6.84Z"/><path class="cls-2" d="M25.25,56.13c2.14,1.83,3.22,4.63,3.22,8.42s-1.1,6.56-3.31,8.31-5.58,2.63-10.11,2.63H11v8.56H4.12V53.38H15Q22,53.38,25.25,56.13Zm-5,12.06a5.9,5.9,0,0,0,1.23-4,4.28,4.28,0,0,0-1.6-3.77,8.86,8.86,0,0,0-5-1.12H11V69.57h4.6Q19,69.57,20.22,68.19Z"/><path class="cls-2" d="M53.87,84.05,51,77.42H38.16l-2.85,6.63H28L41.28,53.38H47.9L61.15,84.05ZM44.61,62.51l-3.86,8.9h7.68Z"/><path class="cls-2" d="M75.45,59.31V84.05H68.61V59.31H59.92V53.38H84.14v5.93Z"/><path class="cls-2" d="M89.14,53.38H96V84.05H89.14Z"/><path class="cls-2" d="M125.63,53.38v6.1H110.37V65.8H124.1v5.83H110.37V78h15.75v6.06h-22.6V53.38Z"/><path class="cls-2" d="M153.66,53.38h6.85V84.05h-6.85L139.05,64.83V84.05h-6.84V53.38h6.41l15,19.74Z"/><path class="cls-2" d="M181,59.31V84.05h-6.84V59.31h-8.68V53.38h24.21v5.93Z"/><path class="cls-2" d="M201.63,59.5a2.66,2.66,0,0,0-1,2.15,2.42,2.42,0,0,0,1.21,2.13,21.9,21.9,0,0,0,5.57,1.87,15.66,15.66,0,0,1,6.78,3.22,8,8,0,0,1,2.41,6.27,8.28,8.28,0,0,1-3.09,6.69,12.35,12.35,0,0,1-8.14,2.57A18.84,18.84,0,0,1,192.26,79l4.08-5q5,4.35,9.17,4.34a4.73,4.73,0,0,0,3-.81,2.59,2.59,0,0,0,1.08-2.19,2.55,2.55,0,0,0-1.14-2.19,15,15,0,0,0-4.52-1.65q-5.35-1.27-7.83-3.31t-2.48-6.4a7.93,7.93,0,0,1,3.14-6.74,12.61,12.61,0,0,1,7.83-2.37,18.67,18.67,0,0,1,6.14,1.06,16.4,16.4,0,0,1,5.35,3l-3.47,5a13.49,13.49,0,0,0-8.24-3A4.14,4.14,0,0,0,201.63,59.5Z"/><path class="cls-2" d="M255.87,84.05,253,77.42H240.17l-2.86,6.63H230l13.25-30.67h6.62l13.25,30.67Zm-9.26-21.54-3.86,8.9h7.68Z"/><path class="cls-2" d="M277.45,59.31V84.05h-6.84V59.31h-8.69V53.38h24.22v5.93Z"/><path class="cls-2" d="M327.59,63.56q0,7.38-5.83,9.52l7.76,11H321.1l-6.8-9.78h-4.74v9.78h-6.84V53.38h11.62q7.16,0,10.2,2.42C326.57,57.41,327.59,60,327.59,63.56Zm-8.25,3.64a4.62,4.62,0,0,0,1.28-3.62c0-1.65-.44-2.78-1.32-3.4s-2.41-.92-4.61-.92h-5.13v9.08h5C316.9,68.34,318.5,68,319.34,67.2Z"/><path class="cls-2" d="M334.61,53.38h6.84V84.05h-6.84Z"/><path class="cls-2" d="M356.17,59.5a2.66,2.66,0,0,0-1,2.15,2.42,2.42,0,0,0,1.21,2.13A21.9,21.9,0,0,0,362,65.65a15.66,15.66,0,0,1,6.78,3.22,8,8,0,0,1,2.41,6.27,8.28,8.28,0,0,1-3.09,6.69,12.36,12.36,0,0,1-8.14,2.57A18.83,18.83,0,0,1,346.8,79l4.08-5q5,4.35,9.17,4.34a4.75,4.75,0,0,0,3-.81,2.59,2.59,0,0,0,1.08-2.19A2.55,2.55,0,0,0,363,73.15a15.14,15.14,0,0,0-4.52-1.65q-5.35-1.27-7.83-3.31c-1.66-1.36-2.48-3.49-2.48-6.4a8,8,0,0,1,3.13-6.74,12.66,12.66,0,0,1,7.84-2.37,18.67,18.67,0,0,1,6.14,1.06,16.4,16.4,0,0,1,5.35,3l-3.47,5a13.49,13.49,0,0,0-8.24-3A4.14,4.14,0,0,0,356.17,59.5Z"/><path class="cls-2" d="M377,53.38h6.85V66l11.58-12.59h8.46L391.68,66.94q1.57,2.19,5.83,8.18l6.36,8.93h-8l-9-12.11-3.07,3.42v8.69H377Z"/><path class="cls-1" d="M431.77,58.12V84.05h-5.18V58.12h-9.3V53.38h23.78v4.74Z"/><path class="cls-1" d="M446.68,84.05V53.38h5.18v13.3h15.22V53.38h5.18V84.05h-5.18V71.5H451.86V84.05Z"/><path class="cls-1" d="M485.11,77.07l-3.07,7h-5.53L490,53.38h5.53l13.51,30.67h-5.52l-3.08-7Zm13.25-4.78-5.57-12.63-5.57,12.63Z"/><path class="cls-1" d="M536.3,53.38h5.18V84.05h-5.61L518.49,61.68V84.05h-5.17V53.38h5.17l17.81,22.9Z"/><path class="cls-1" d="M574.07,84.05h-5.26V71.94L557.4,53.38h5.66l8.38,13.95,8.38-13.95h5.66L574.07,71.94Z"/><path class="cls-1" d="M614,79.81a16.81,16.81,0,0,1-23,0A15.14,15.14,0,0,1,586.4,68.5a15.18,15.18,0,0,1,4.65-11.32,16.81,16.81,0,0,1,23,0,15.18,15.18,0,0,1,4.65,11.32A15.14,15.14,0,0,1,614,79.81Zm-3.79-19.19a10.77,10.77,0,0,0-15.4,0,11.47,11.47,0,0,0,0,15.75,10.75,10.75,0,0,0,15.4,0,11.45,11.45,0,0,0,0-15.75Z"/><path class="cls-1" d="M632.11,77a7.83,7.83,0,0,0,11.4,0,9.88,9.88,0,0,0,2.11-6.67v-17h5.17v17.2q0,6.63-3.64,10.2a14,14,0,0,1-18.68,0q-3.65-3.57-3.64-10.2V53.38H630v17A9.88,9.88,0,0,0,632.11,77Z"/><path class="cls-1" d="M676.1,84.05h-5.17V53.38H679l9.25,19.26,9.26-19.26h8V84.05h-5.18V60.1l-10.7,21.27h-2.9L676.1,60.1Z"/><path class="cls-1" d="M718.39,77.07l-3.07,7h-5.53L723.3,53.38h5.53l13.51,30.67h-5.53l-3.07-7Zm13.25-4.78-5.57-12.63L720.5,72.29Z"/><path class="cls-1" d="M756.42,84.05h-5.26V71.94L739.75,53.38h5.66l8.38,13.95,8.38-13.95h5.66L756.42,71.94Z"/><path class="cls-1" d="M795.33,58.12V84.05h-5.17V58.12h-9.3V53.38h23.77v4.74Z"/><path class="cls-1" d="M810.25,84.05V53.38h5.17v13.3h15.22V53.38h5.18V84.05h-5.18V71.5H815.42V84.05Z"/><path class="cls-1" d="M844.33,53.38h5.18V84.05h-5.18Z"/><path class="cls-1" d="M881,53.38h5.18V84.05h-5.62L863.19,61.68V84.05H858V53.38h5.17L881,76.28Z"/><path class="cls-1" d="M894.69,53.38h5.18v15l14-15h6.58L908.16,66.81l12.5,17.24h-6.14L904.34,70.62l-4.47,4.83v8.6h-5.18Z"/><path class="cls-1" d="M7.33,109.61H.46v-1.25H15.6v1.25H8.73v17.85H7.33Z"/><path class="cls-1" d="M29.79,114.66a6.09,6.09,0,0,1,1.55,4.47v8.33H30v-8.22a5,5,0,0,0-1.22-3.65,4.47,4.47,0,0,0-3.39-1.26,5.25,5.25,0,0,0-4,1.5,5.59,5.59,0,0,0-1.44,4v7.59H18.6V107.21H20v9a5.22,5.22,0,0,1,2.18-2.28,7,7,0,0,1,3.41-.8A5.71,5.71,0,0,1,29.79,114.66Z"/><path class="cls-1" d="M49,120.66H36.77a6,6,0,0,0,.85,3,5.31,5.31,0,0,0,2.14,2,6.83,6.83,0,0,0,5.62.2,5,5,0,0,0,2-1.48l.79.9A6.07,6.07,0,0,1,45.82,127a7.55,7.55,0,0,1-3,.61,7.63,7.63,0,0,1-3.79-.93,6.69,6.69,0,0,1-2.6-2.57,7.31,7.31,0,0,1-1-3.73,7.76,7.76,0,0,1,.89-3.73A6.59,6.59,0,0,1,38.76,114a6.76,6.76,0,0,1,3.49-.92,6.65,6.65,0,0,1,3.48.91,6.49,6.49,0,0,1,2.43,2.55,7.68,7.68,0,0,1,.89,3.71ZM39.55,115a5.12,5.12,0,0,0-1.92,1.89,6.11,6.11,0,0,0-.83,2.74H47.71a5.68,5.68,0,0,0-.82-2.73A5.27,5.27,0,0,0,45,115a5.35,5.35,0,0,0-2.71-.68A5.51,5.51,0,0,0,39.55,115Z"/><path class="cls-1" d="M53.6,127.05a6.8,6.8,0,0,1-2.42-1.31l.62-1.09a7.49,7.49,0,0,0,2.25,1.23,8.71,8.71,0,0,0,2.88.49,5.67,5.67,0,0,0,3.18-.71,2.28,2.28,0,0,0,1-2,1.85,1.85,0,0,0-.55-1.42,3.56,3.56,0,0,0-1.38-.76c-.55-.16-1.3-.34-2.27-.52a20.16,20.16,0,0,1-2.73-.65,4.28,4.28,0,0,1-1.77-1.15,3.08,3.08,0,0,1-.74-2.18,3.42,3.42,0,0,1,1.41-2.8,6.33,6.33,0,0,1,4-1.1,9.57,9.57,0,0,1,2.7.38,6.59,6.59,0,0,1,2.18,1l-.63,1.09a6.45,6.45,0,0,0-2-1,8.44,8.44,0,0,0-2.29-.32,5.07,5.07,0,0,0-3,.73,2.28,2.28,0,0,0-1,1.94,1.94,1.94,0,0,0,.57,1.49,3.6,3.6,0,0,0,1.41.79c.55.17,1.33.36,2.33.56a20,20,0,0,1,2.69.64,4.08,4.08,0,0,1,1.73,1.1,3,3,0,0,1,.71,2.1A3.31,3.31,0,0,1,61,126.5a7,7,0,0,1-4.14,1.07A10.48,10.48,0,0,1,53.6,127.05Z"/><path class="cls-1" d="M78.35,120.66H66.1a6,6,0,0,0,.85,3,5.31,5.31,0,0,0,2.14,2,6.83,6.83,0,0,0,5.62.2,4.92,4.92,0,0,0,2-1.48l.8.9A6,6,0,0,1,75.14,127a7.47,7.47,0,0,1-3,.61,7.63,7.63,0,0,1-3.79-.93,6.78,6.78,0,0,1-2.61-2.57,7.41,7.41,0,0,1-.94-3.73,7.76,7.76,0,0,1,.89-3.73A6.52,6.52,0,0,1,68.09,114a6.76,6.76,0,0,1,3.49-.92,6.7,6.7,0,0,1,3.48.91,6.49,6.49,0,0,1,2.43,2.55,7.68,7.68,0,0,1,.89,3.71ZM68.88,115A5.12,5.12,0,0,0,67,116.86a6.11,6.11,0,0,0-.83,2.74H77a5.68,5.68,0,0,0-.82-2.73,5.31,5.31,0,0,0-4.64-2.56A5.51,5.51,0,0,0,68.88,115Z"/><path class="cls-1" d="M100.37,114a6.69,6.69,0,0,1,2.52,2.57,8.16,8.16,0,0,1,0,7.49,6.53,6.53,0,0,1-2.52,2.56,7.21,7.21,0,0,1-3.61.92,6.7,6.7,0,0,1-3.41-.89A6.07,6.07,0,0,1,91,124.21v8.54H89.62V113.21h1.31v3.36A6.23,6.23,0,0,1,93.31,114a6.64,6.64,0,0,1,3.45-.91A7.21,7.21,0,0,1,100.37,114Zm-.74,11.54a5.45,5.45,0,0,0,2.06-2.12,6.82,6.82,0,0,0,0-6.22,5.48,5.48,0,0,0-2.06-2.13,5.74,5.74,0,0,0-2.95-.77,5.65,5.65,0,0,0-2.93.77,5.53,5.53,0,0,0-2,2.13,6.82,6.82,0,0,0,0,6.22,5.5,5.5,0,0,0,2,2.12,5.65,5.65,0,0,0,2.93.77A5.74,5.74,0,0,0,99.63,125.57Z"/><path class="cls-1" d="M116.84,114.46a5.21,5.21,0,0,1,1.42,4v9H117v-2.54a4.68,4.68,0,0,1-2,2,6.65,6.65,0,0,1-3.14.7,5.82,5.82,0,0,1-3.75-1.12,3.62,3.62,0,0,1-1.38-3,3.67,3.67,0,0,1,1.27-2.88,6.09,6.09,0,0,1,4.05-1.1h4.89v-1.15a4,4,0,0,0-1.08-3,4.38,4.38,0,0,0-3.15-1,7.48,7.48,0,0,0-2.71.49,6.56,6.56,0,0,0-2.2,1.31l-.68-1a7.59,7.59,0,0,1,2.56-1.48,9.21,9.21,0,0,1,3.14-.53A5.65,5.65,0,0,1,116.84,114.46ZM115,125.63a5,5,0,0,0,1.87-2.37v-2.68H112a4.82,4.82,0,0,0-3,.77,2.54,2.54,0,0,0-.94,2.1,2.6,2.6,0,0,0,1,2.19,4.62,4.62,0,0,0,2.91.81A5.41,5.41,0,0,0,115,125.63Z"/><path class="cls-1" d="M131,126.56a3.67,3.67,0,0,1-1.3.75,5.18,5.18,0,0,1-1.62.26,3.53,3.53,0,0,1-3.87-3.88v-9.3h-2.62v-1.18h2.62v-3.1h1.36v3.1h4.53v1.18h-4.53v9.16a3,3,0,0,0,.67,2.12,2.56,2.56,0,0,0,2,.72,3.17,3.17,0,0,0,2.21-.79Z"/><path class="cls-1" d="M134.63,109.44a1,1,0,0,1-.33-.78,1.13,1.13,0,0,1,1.91-.81,1,1,0,0,1,.33.78,1.13,1.13,0,0,1-1.12,1.12A1.09,1.09,0,0,1,134.63,109.44Zm.11,3.77h1.36v14.25h-1.36Z"/><path class="cls-1" d="M153.89,120.66H141.64a6,6,0,0,0,.85,3,5.38,5.38,0,0,0,2.14,2,6.83,6.83,0,0,0,5.62.2,5,5,0,0,0,2-1.48l.79.9a6.07,6.07,0,0,1-2.33,1.71,7.52,7.52,0,0,1-3.05.61,7.66,7.66,0,0,1-3.79-.93,6.69,6.69,0,0,1-2.6-2.57,7.31,7.31,0,0,1-.94-3.73,7.75,7.75,0,0,1,.88-3.73,6.59,6.59,0,0,1,2.44-2.58,6.77,6.77,0,0,1,3.5-.92,6.63,6.63,0,0,1,3.47.91,6.49,6.49,0,0,1,2.43,2.55,7.68,7.68,0,0,1,.89,3.71ZM144.42,115a5.12,5.12,0,0,0-1.92,1.89,6.11,6.11,0,0,0-.83,2.74h10.91a5.68,5.68,0,0,0-.82-2.73,5.27,5.27,0,0,0-4.63-2.56A5.57,5.57,0,0,0,144.42,115Z"/><path class="cls-1" d="M169.33,114.66a6,6,0,0,1,1.56,4.47v8.33h-1.37v-8.22a5,5,0,0,0-1.21-3.65,4.5,4.5,0,0,0-3.4-1.26,5.22,5.22,0,0,0-3.95,1.5,5.56,5.56,0,0,0-1.45,4v7.59h-1.36V113.21h1.31v3.09a5.46,5.46,0,0,1,2.19-2.35,6.84,6.84,0,0,1,3.45-.84A5.68,5.68,0,0,1,169.33,114.66Z"/><path class="cls-1" d="M183.58,126.56a3.67,3.67,0,0,1-1.3.75,5.18,5.18,0,0,1-1.62.26,3.54,3.54,0,0,1-3.88-3.88v-9.3h-2.62v-1.18h2.62v-3.1h1.37v3.1h4.52v1.18h-4.52v9.16a3,3,0,0,0,.66,2.12,2.58,2.58,0,0,0,2,.72,3.15,3.15,0,0,0,2.21-.79Z"/><path class="cls-1" d="M187.7,127.05a6.76,6.76,0,0,1-2.43-1.31l.62-1.09a7.43,7.43,0,0,0,2.26,1.23,8.61,8.61,0,0,0,2.87.49,5.67,5.67,0,0,0,3.18-.71,2.28,2.28,0,0,0,1-2,1.85,1.85,0,0,0-.55-1.42,3.56,3.56,0,0,0-1.38-.76c-.55-.16-1.3-.34-2.27-.52a20.54,20.54,0,0,1-2.73-.65,4.28,4.28,0,0,1-1.77-1.15,3.07,3.07,0,0,1-.73-2.18,3.41,3.41,0,0,1,1.4-2.8,6.33,6.33,0,0,1,4-1.1,9.57,9.57,0,0,1,2.7.38,6.59,6.59,0,0,1,2.18,1l-.63,1.09a6.45,6.45,0,0,0-2-1,8.39,8.39,0,0,0-2.29-.32,5.07,5.07,0,0,0-3,.73,2.3,2.3,0,0,0-1,1.94,1.94,1.94,0,0,0,.57,1.49,3.6,3.6,0,0,0,1.41.79c.55.17,1.33.36,2.33.56a20,20,0,0,1,2.69.64,4.08,4.08,0,0,1,1.73,1.1,3,3,0,0,1,.71,2.1,3.33,3.33,0,0,1-1.47,2.84,7,7,0,0,1-4.15,1.07A10.37,10.37,0,0,1,187.7,127.05Z"/><path class="cls-1" d="M229.31,114.66a6.16,6.16,0,0,1,1.52,4.47v8.33h-1.37v-8.22a5.16,5.16,0,0,0-1.17-3.65,4.24,4.24,0,0,0-3.27-1.26,5,5,0,0,0-3.81,1.5,5.66,5.66,0,0,0-1.4,4v7.59h-1.37v-8.22a5.16,5.16,0,0,0-1.17-3.65,4.26,4.26,0,0,0-3.28-1.26,4.94,4.94,0,0,0-3.8,1.5,5.67,5.67,0,0,0-1.41,4v7.59h-1.36V113.21h1.31v3.06a5.24,5.24,0,0,1,2.11-2.33,6.41,6.41,0,0,1,3.35-.83,5.92,5.92,0,0,1,3.28.87,4.81,4.81,0,0,1,1.93,2.56,5.56,5.56,0,0,1,2.22-2.51,6.71,6.71,0,0,1,3.53-.92A5.51,5.51,0,0,1,229.31,114.66Z"/><path class="cls-1" d="M245.31,114.46a5.21,5.21,0,0,1,1.42,4v9h-1.31v-2.54a4.68,4.68,0,0,1-2,2,6.65,6.65,0,0,1-3.14.7,5.82,5.82,0,0,1-3.75-1.12,3.61,3.61,0,0,1-1.37-3,3.66,3.66,0,0,1,1.26-2.88,6.1,6.1,0,0,1,4.06-1.1h4.88v-1.15a4,4,0,0,0-1.08-3,4.38,4.38,0,0,0-3.15-1,7.48,7.48,0,0,0-2.71.49,6.56,6.56,0,0,0-2.2,1.31l-.68-1a7.59,7.59,0,0,1,2.56-1.48,9.21,9.21,0,0,1,3.14-.53A5.65,5.65,0,0,1,245.31,114.46Zm-1.81,11.17a5,5,0,0,0,1.87-2.37v-2.68h-4.86a4.82,4.82,0,0,0-3,.77,2.54,2.54,0,0,0-.94,2.1,2.63,2.63,0,0,0,1,2.19,4.63,4.63,0,0,0,2.92.81A5.4,5.4,0,0,0,243.5,125.63Z"/><path class="cls-1" d="M263.51,113.21l-7.31,16.18a6.44,6.44,0,0,1-1.9,2.68,4.22,4.22,0,0,1-2.55.79,5.09,5.09,0,0,1-1.84-.33,4.06,4.06,0,0,1-1.46-.95l.68-1a3.55,3.55,0,0,0,2.65,1.12,2.8,2.8,0,0,0,1.77-.57,5.23,5.23,0,0,0,1.37-2l.76-1.72-6.41-14.19h1.45l5.7,12.75,5.7-12.75Z"/><path class="cls-1" d="M284.68,114.66a6,6,0,0,1,1.56,4.47v8.33h-1.37v-8.22a5,5,0,0,0-1.21-3.65,4.5,4.5,0,0,0-3.4-1.26,5.22,5.22,0,0,0-3.95,1.5,5.56,5.56,0,0,0-1.45,4v7.59H273.5V113.21h1.31v3.09A5.46,5.46,0,0,1,277,114a6.81,6.81,0,0,1,3.45-.84A5.68,5.68,0,0,1,284.68,114.66Z"/><path class="cls-1" d="M303.92,120.66H291.67a5.84,5.84,0,0,0,.84,3,5.38,5.38,0,0,0,2.14,2,6.83,6.83,0,0,0,5.62.2,5,5,0,0,0,2-1.48l.79.9a6,6,0,0,1-2.33,1.71,7.51,7.51,0,0,1-3,.61,7.63,7.63,0,0,1-3.79-.93,6.78,6.78,0,0,1-2.61-2.57,7.31,7.31,0,0,1-.94-3.73,7.65,7.65,0,0,1,.89-3.73,6.52,6.52,0,0,1,2.44-2.58,7.09,7.09,0,0,1,7,0,6.56,6.56,0,0,1,2.43,2.55,7.67,7.67,0,0,1,.88,3.71ZM294.45,115a5.12,5.12,0,0,0-1.92,1.89,6.12,6.12,0,0,0-.84,2.74h10.92a5.79,5.79,0,0,0-.82-2.73,5.31,5.31,0,0,0-4.64-2.56A5.51,5.51,0,0,0,294.45,115Z"/><path class="cls-1" d="M320.2,120.66H308a6,6,0,0,0,.85,3,5.38,5.38,0,0,0,2.14,2,6.83,6.83,0,0,0,5.62.2,5,5,0,0,0,2-1.48l.79.9A6.07,6.07,0,0,1,317,127a7.51,7.51,0,0,1-3,.61,7.67,7.67,0,0,1-3.8-.93,6.69,6.69,0,0,1-2.6-2.57,7.31,7.31,0,0,1-.94-3.73,7.75,7.75,0,0,1,.88-3.73,6.59,6.59,0,0,1,2.44-2.58,6.8,6.8,0,0,1,3.5-.92,6.7,6.7,0,0,1,3.48.91,6.53,6.53,0,0,1,2.42,2.55,7.68,7.68,0,0,1,.89,3.71ZM310.74,115a5.15,5.15,0,0,0-1.93,1.89,6.11,6.11,0,0,0-.83,2.74h10.91a5.67,5.67,0,0,0-.81-2.73,5.37,5.37,0,0,0-1.94-1.88,5.31,5.31,0,0,0-2.7-.68A5.51,5.51,0,0,0,310.74,115Z"/><path class="cls-1" d="M337.12,107.21v20.25h-1.34V124.1a6.14,6.14,0,0,1-2.37,2.57,6.72,6.72,0,0,1-3.47.9,7,7,0,0,1-3.6-.93,6.69,6.69,0,0,1-2.52-2.57,7.5,7.5,0,0,1-.92-3.73,7.67,7.67,0,0,1,.92-3.76,6.53,6.53,0,0,1,2.52-2.56,7.14,7.14,0,0,1,3.6-.91,6.6,6.6,0,0,1,3.43.9,6.33,6.33,0,0,1,2.38,2.51v-9.31ZM333,125.57a5.48,5.48,0,0,0,2-2.12,6.82,6.82,0,0,0,0-6.22,5.5,5.5,0,0,0-2-2.13,6,6,0,0,0-5.87,0,5.53,5.53,0,0,0-2,2.13,6.82,6.82,0,0,0,0,6.22,5.5,5.5,0,0,0,2,2.12,6,6,0,0,0,5.87,0Z"/><path class="cls-1" d="M371.78,114.66a6.15,6.15,0,0,1,1.51,4.47v8.33h-1.36v-8.22a5.16,5.16,0,0,0-1.17-3.65,4.28,4.28,0,0,0-3.28-1.26,4.94,4.94,0,0,0-3.8,1.5,5.67,5.67,0,0,0-1.41,4v7.59h-1.36v-8.22a5.12,5.12,0,0,0-1.18-3.65,4.24,4.24,0,0,0-3.27-1.26,5,5,0,0,0-3.81,1.5,5.7,5.7,0,0,0-1.4,4v7.59h-1.37V113.21h1.31v3.06a5.26,5.26,0,0,1,2.12-2.33,6.39,6.39,0,0,1,3.34-.83,6,6,0,0,1,3.29.87,4.75,4.75,0,0,1,1.92,2.56,5.58,5.58,0,0,1,2.23-2.51,6.66,6.66,0,0,1,3.53-.92A5.53,5.53,0,0,1,371.78,114.66Z"/><path class="cls-1" d="M380.86,126.64a6.72,6.72,0,0,1-2.55-2.58,8,8,0,0,1,0-7.45,6.72,6.72,0,0,1,2.55-2.58,7.68,7.68,0,0,1,7.29,0,6.72,6.72,0,0,1,2.55,2.58,7.93,7.93,0,0,1,0,7.45,6.72,6.72,0,0,1-2.55,2.58,7.61,7.61,0,0,1-7.29,0Zm6.58-1.07a5.5,5.5,0,0,0,2.05-2.12,6.82,6.82,0,0,0,0-6.22,5.53,5.53,0,0,0-2.05-2.13,5.65,5.65,0,0,0-2.93-.77,5.71,5.71,0,0,0-2.94.77,5.5,5.5,0,0,0-2,2.13,6.82,6.82,0,0,0,0,6.22,5.48,5.48,0,0,0,2,2.12,5.71,5.71,0,0,0,2.94.77A5.65,5.65,0,0,0,387.44,125.57Z"/><path class="cls-1" d="M399.21,113.94a6.44,6.44,0,0,1,3.38-.83v1.33l-.32,0a4.72,4.72,0,0,0-3.71,1.48,6,6,0,0,0-1.34,4.14v7.42h-1.36V113.21h1.31v3.12A4.84,4.84,0,0,1,399.21,113.94Z"/><path class="cls-1" d="M418.25,120.66H406a6,6,0,0,0,.85,3,5.38,5.38,0,0,0,2.14,2,6.83,6.83,0,0,0,5.62.2,5,5,0,0,0,2-1.48l.79.9a6,6,0,0,1-2.33,1.71,7.51,7.51,0,0,1-3,.61,7.67,7.67,0,0,1-3.8-.93,6.76,6.76,0,0,1-2.6-2.57,7.31,7.31,0,0,1-.94-3.73,7.75,7.75,0,0,1,.88-3.73A6.62,6.62,0,0,1,408,114a7.09,7.09,0,0,1,7,0,6.63,6.63,0,0,1,2.43,2.55,7.67,7.67,0,0,1,.88,3.71ZM408.79,115a5.22,5.22,0,0,0-1.93,1.89,6.11,6.11,0,0,0-.83,2.74H417a5.79,5.79,0,0,0-.82-2.73,5.31,5.31,0,0,0-4.64-2.56A5.51,5.51,0,0,0,408.79,115Z"/><path class="cls-1" d="M436.59,126.56a3.67,3.67,0,0,1-1.3.75,5.18,5.18,0,0,1-1.62.26,3.54,3.54,0,0,1-3.88-3.88v-9.3h-2.62v-1.18h2.62v-3.1h1.37v3.1h4.53v1.18h-4.53v9.16a3,3,0,0,0,.67,2.12,2.55,2.55,0,0,0,2,.72,3.14,3.14,0,0,0,2.21-.79Z"/><path class="cls-1" d="M451.57,114.66a6.09,6.09,0,0,1,1.55,4.47v8.33h-1.36v-8.22a5,5,0,0,0-1.22-3.65,4.49,4.49,0,0,0-3.39-1.26,5.23,5.23,0,0,0-4,1.5,5.56,5.56,0,0,0-1.45,4v7.59h-1.36V107.21h1.36v9a5.24,5.24,0,0,1,2.19-2.28,7,7,0,0,1,3.41-.8A5.71,5.71,0,0,1,451.57,114.66Z"/><path class="cls-1" d="M467.61,114.46a5.24,5.24,0,0,1,1.42,4v9h-1.31v-2.54a4.71,4.71,0,0,1-2,2,6.61,6.61,0,0,1-3.13.7,5.78,5.78,0,0,1-3.75-1.12,3.87,3.87,0,0,1-.11-5.83,6.05,6.05,0,0,1,4-1.1h4.88v-1.15a4,4,0,0,0-1.08-3,4.35,4.35,0,0,0-3.15-1,7.52,7.52,0,0,0-2.71.49,6.56,6.56,0,0,0-2.2,1.31l-.68-1a7.54,7.54,0,0,1,2.57-1.48,9.15,9.15,0,0,1,3.13-.53A5.68,5.68,0,0,1,467.61,114.46Zm-1.82,11.17a5,5,0,0,0,1.87-2.37v-2.68h-4.85a4.86,4.86,0,0,0-3.05.77,2.57,2.57,0,0,0-.94,2.1,2.63,2.63,0,0,0,1,2.19,4.63,4.63,0,0,0,2.92.81A5.4,5.4,0,0,0,465.79,125.63Z"/><path class="cls-1" d="M485.83,114.66a6,6,0,0,1,1.56,4.47v8.33H486v-8.22a5,5,0,0,0-1.21-3.65,4.5,4.5,0,0,0-3.4-1.26,5.22,5.22,0,0,0-4,1.5,5.56,5.56,0,0,0-1.45,4v7.59h-1.36V113.21H476v3.09a5.46,5.46,0,0,1,2.19-2.35,6.81,6.81,0,0,1,3.45-.84A5.71,5.71,0,0,1,485.83,114.66Z"/><path class="cls-1" d="M508.88,114.46a5.21,5.21,0,0,1,1.42,4v9H509v-2.54a4.63,4.63,0,0,1-2,2,6.65,6.65,0,0,1-3.14.7,5.82,5.82,0,0,1-3.75-1.12,3.61,3.61,0,0,1-1.37-3,3.66,3.66,0,0,1,1.26-2.88,6.1,6.1,0,0,1,4.06-1.1h4.88v-1.15a4,4,0,0,0-1.08-3,4.38,4.38,0,0,0-3.15-1,7.48,7.48,0,0,0-2.71.49,6.56,6.56,0,0,0-2.2,1.31l-.68-1a7.59,7.59,0,0,1,2.56-1.48,9.21,9.21,0,0,1,3.14-.53A5.65,5.65,0,0,1,508.88,114.46Zm-1.81,11.17a5,5,0,0,0,1.87-2.37v-2.68h-4.86a4.82,4.82,0,0,0-3,.77,2.54,2.54,0,0,0-.94,2.1,2.63,2.63,0,0,0,1,2.19,4.63,4.63,0,0,0,2.92.81A5.4,5.4,0,0,0,507.07,125.63Z"/><path class="cls-1" d="M523.26,127.05a6.85,6.85,0,0,1-2.43-1.31l.63-1.09a7.25,7.25,0,0,0,2.25,1.23,8.71,8.71,0,0,0,2.88.49,5.67,5.67,0,0,0,3.18-.71,2.28,2.28,0,0,0,1-2,1.86,1.86,0,0,0-.56-1.42,3.43,3.43,0,0,0-1.38-.76c-.54-.16-1.3-.34-2.26-.52a19.8,19.8,0,0,1-2.73-.65,4.28,4.28,0,0,1-1.77-1.15,3.08,3.08,0,0,1-.74-2.18,3.42,3.42,0,0,1,1.41-2.8,6.3,6.3,0,0,1,4-1.1,9.57,9.57,0,0,1,2.7.38,6.65,6.65,0,0,1,2.19,1l-.63,1.09a6.56,6.56,0,0,0-2-1,8.44,8.44,0,0,0-2.29-.32,5.07,5.07,0,0,0-3,.73,2.28,2.28,0,0,0-1,1.94,1.94,1.94,0,0,0,.57,1.49,3.63,3.63,0,0,0,1.4.79c.56.17,1.34.36,2.34.56a19.39,19.39,0,0,1,2.68.64,4.11,4.11,0,0,1,1.74,1.1,3,3,0,0,1,.71,2.1,3.34,3.34,0,0,1-1.48,2.84,7,7,0,0,1-4.14,1.07A10.48,10.48,0,0,1,523.26,127.05Z"/><path class="cls-1" d="M543,126.56a3.63,3.63,0,0,1-1.29.75,5.2,5.2,0,0,1-1.63.26,3.54,3.54,0,0,1-3.87-3.88v-9.3h-2.62v-1.18h2.62v-3.1h1.36v3.1h4.53v1.18h-4.53v9.16a3,3,0,0,0,.67,2.12,2.57,2.57,0,0,0,2,.72,3.15,3.15,0,0,0,2.21-.79Z"/><path class="cls-1" d="M555.7,114.46a5.21,5.21,0,0,1,1.42,4v9h-1.31v-2.54a4.74,4.74,0,0,1-2,2,6.68,6.68,0,0,1-3.14.7,5.82,5.82,0,0,1-3.75-1.12,3.87,3.87,0,0,1-.11-5.83,6.09,6.09,0,0,1,4-1.1h4.88v-1.15a4,4,0,0,0-1.07-3,4.38,4.38,0,0,0-3.15-1,7.54,7.54,0,0,0-2.72.49,6.52,6.52,0,0,0-2.19,1.31l-.69-1a7.64,7.64,0,0,1,2.57-1.48,9.15,9.15,0,0,1,3.13-.53A5.68,5.68,0,0,1,555.7,114.46Zm-1.81,11.17a5,5,0,0,0,1.86-2.37v-2.68H550.9a4.8,4.8,0,0,0-3,.77,2.54,2.54,0,0,0-.94,2.1,2.62,2.62,0,0,0,1,2.19,4.65,4.65,0,0,0,2.92.81A5.43,5.43,0,0,0,553.89,125.63Z"/><path class="cls-1" d="M569.8,126.56a3.54,3.54,0,0,1-1.29.75,5.18,5.18,0,0,1-1.62.26,3.54,3.54,0,0,1-3.88-3.88v-9.3h-2.62v-1.18H563v-3.1h1.37v3.1h4.52v1.18h-4.52v9.16a3,3,0,0,0,.66,2.12,2.58,2.58,0,0,0,2,.72,3.15,3.15,0,0,0,2.21-.79Z"/><path class="cls-1" d="M573.49,109.44a1,1,0,0,1-.33-.78,1.13,1.13,0,0,1,1.12-1.12,1.09,1.09,0,0,1,.79.31,1,1,0,0,1,.33.78,1.06,1.06,0,0,1-.33.79,1.07,1.07,0,0,1-.79.33A1.09,1.09,0,0,1,573.49,109.44Zm.11,3.77H575v14.25H573.6Z"/><path class="cls-1" d="M591.9,114.66a6,6,0,0,1,1.56,4.47v8.33h-1.37v-8.22a5,5,0,0,0-1.21-3.65,4.5,4.5,0,0,0-3.4-1.26,5.22,5.22,0,0,0-4,1.5,5.56,5.56,0,0,0-1.45,4v7.59h-1.36V113.21H582v3.09a5.46,5.46,0,0,1,2.19-2.35,6.84,6.84,0,0,1,3.45-.84A5.68,5.68,0,0,1,591.9,114.66Z"/><path class="cls-1" d="M615,114.46a5.24,5.24,0,0,1,1.42,4v9h-1.31v-2.54a4.71,4.71,0,0,1-2,2,6.63,6.63,0,0,1-3.13.7,5.83,5.83,0,0,1-3.76-1.12,3.88,3.88,0,0,1-.1-5.83,6.05,6.05,0,0,1,4-1.1H615v-1.15a4,4,0,0,0-1.08-3,4.38,4.38,0,0,0-3.15-1,7.52,7.52,0,0,0-2.71.49,6.56,6.56,0,0,0-2.2,1.31l-.68-1a7.59,7.59,0,0,1,2.56-1.48,9.21,9.21,0,0,1,3.14-.53A5.68,5.68,0,0,1,615,114.46Zm-1.82,11.17a5,5,0,0,0,1.87-2.37v-2.68h-4.86a4.82,4.82,0,0,0-3,.77,2.54,2.54,0,0,0-.94,2.1,2.63,2.63,0,0,0,1,2.19,4.63,4.63,0,0,0,2.92.81A5.4,5.4,0,0,0,613.14,125.63Z"/><path class="cls-1" d="M633.18,114.66a6,6,0,0,1,1.56,4.47v8.33h-1.37v-8.22a5,5,0,0,0-1.21-3.65,4.5,4.5,0,0,0-3.4-1.26,5.26,5.26,0,0,0-4,1.5,5.59,5.59,0,0,0-1.44,4v7.59H622V113.21h1.31v3.09a5.48,5.48,0,0,1,2.2-2.35,6.78,6.78,0,0,1,3.45-.84A5.71,5.71,0,0,1,633.18,114.66Z"/><path class="cls-1" d="M653,107.21v20.25H651.7V124.1a6.14,6.14,0,0,1-2.37,2.57,6.69,6.69,0,0,1-3.46.9,7.11,7.11,0,0,1-3.61-.93,6.69,6.69,0,0,1-2.52-2.57,7.5,7.5,0,0,1-.91-3.73,7.66,7.66,0,0,1,.91-3.76,6.53,6.53,0,0,1,2.52-2.56,7.2,7.2,0,0,1,3.61-.91,6.57,6.57,0,0,1,3.42.9,6.42,6.42,0,0,1,2.39,2.51v-9.31Zm-4.16,18.36a5.5,5.5,0,0,0,2-2.12,6.82,6.82,0,0,0,0-6.22,5.53,5.53,0,0,0-2-2.13,5.65,5.65,0,0,0-2.93-.77,5.71,5.71,0,0,0-2.94.77,5.5,5.5,0,0,0-2,2.13,6.82,6.82,0,0,0,0,6.22,5.48,5.48,0,0,0,2,2.12,5.71,5.71,0,0,0,2.94.77A5.65,5.65,0,0,0,648.88,125.57Z"/><path class="cls-1" d="M664.28,104.48h1.26l-9,25.71h-1.25Z"/><path class="cls-1" d="M667.57,126.64a6.72,6.72,0,0,1-2.55-2.58,7.93,7.93,0,0,1,0-7.45,6.72,6.72,0,0,1,2.55-2.58,7.66,7.66,0,0,1,7.28,0,6.59,6.59,0,0,1,2.55,2.58,7.93,7.93,0,0,1,0,7.45,6.59,6.59,0,0,1-2.55,2.58,7.59,7.59,0,0,1-7.28,0Zm6.57-1.07a5.43,5.43,0,0,0,2.05-2.12,6.82,6.82,0,0,0,0-6.22,5.46,5.46,0,0,0-2.05-2.13,6,6,0,0,0-5.86,0,5.46,5.46,0,0,0-2,2.13,6.82,6.82,0,0,0,0,6.22,5.43,5.43,0,0,0,2,2.12,6,6,0,0,0,5.86,0Z"/><path class="cls-1" d="M685.92,113.94a6.39,6.39,0,0,1,3.38-.83v1.33l-.33,0a4.73,4.73,0,0,0-3.71,1.48,6,6,0,0,0-1.34,4.14v7.42h-1.36V113.21h1.31v3.12A4.91,4.91,0,0,1,685.92,113.94Z"/><path class="cls-1" d="M712.35,120.66H700.1a6,6,0,0,0,.85,3,5.38,5.38,0,0,0,2.14,2,6.83,6.83,0,0,0,5.62.2,5,5,0,0,0,2-1.48l.79.9a6.07,6.07,0,0,1-2.33,1.71,7.52,7.52,0,0,1-3,.61,7.66,7.66,0,0,1-3.79-.93,6.69,6.69,0,0,1-2.6-2.57,7.31,7.31,0,0,1-.94-3.73,7.75,7.75,0,0,1,.88-3.73,6.59,6.59,0,0,1,2.44-2.58,6.77,6.77,0,0,1,3.5-.92,6.63,6.63,0,0,1,3.47.91,6.49,6.49,0,0,1,2.43,2.55,7.68,7.68,0,0,1,.89,3.71ZM702.88,115a5.12,5.12,0,0,0-1.92,1.89,6.11,6.11,0,0,0-.83,2.74H711a5.68,5.68,0,0,0-.82-2.73,5.27,5.27,0,0,0-4.63-2.56A5.57,5.57,0,0,0,702.88,115Z"/><path class="cls-1" d="M726.1,126.28v1.18H714.78v-.93l9.39-12.14h-9.25v-1.18h11v.93l-9.41,12.14Z"/><path class="cls-1" d="M742,120.66H729.73a6,6,0,0,0,.85,3,5.31,5.31,0,0,0,2.14,2,6.83,6.83,0,0,0,5.62.2,5,5,0,0,0,2-1.48l.79.9a6.07,6.07,0,0,1-2.33,1.71,7.55,7.55,0,0,1-3,.61,7.63,7.63,0,0,1-3.79-.93,6.69,6.69,0,0,1-2.6-2.57,7.31,7.31,0,0,1-1-3.73,7.76,7.76,0,0,1,.89-3.73,6.59,6.59,0,0,1,2.44-2.58,6.76,6.76,0,0,1,3.49-.92,6.65,6.65,0,0,1,3.48.91,6.49,6.49,0,0,1,2.43,2.55,7.68,7.68,0,0,1,.89,3.71ZM732.51,115a5.12,5.12,0,0,0-1.92,1.89,6.11,6.11,0,0,0-.83,2.74h10.91a5.68,5.68,0,0,0-.82-2.73,5.27,5.27,0,0,0-1.93-1.88,5.35,5.35,0,0,0-2.71-.68A5.51,5.51,0,0,0,732.51,115Z"/><path class="cls-1" d="M753.3,126.56a3.54,3.54,0,0,1-1.29.75,5.2,5.2,0,0,1-1.63.26,3.54,3.54,0,0,1-3.87-3.88v-9.3h-2.62v-1.18h2.62v-3.1h1.36v3.1h4.53v1.18h-4.53v9.16a3,3,0,0,0,.67,2.12,2.58,2.58,0,0,0,2,.72,3.15,3.15,0,0,0,2.21-.79Z"/><path class="cls-1" d="M757,109.44a1,1,0,0,1-.33-.78,1.07,1.07,0,0,1,.33-.79,1.06,1.06,0,0,1,.79-.33,1.09,1.09,0,0,1,.79.31,1,1,0,0,1,.33.78,1.06,1.06,0,0,1-.33.79,1.14,1.14,0,0,1-1.58,0Zm.1,3.77h1.37v14.25h-1.37Z"/><path class="cls-1" d="M786.11,114.66a6.15,6.15,0,0,1,1.51,4.47v8.33h-1.36v-8.22a5.16,5.16,0,0,0-1.17-3.65,4.28,4.28,0,0,0-3.28-1.26,4.94,4.94,0,0,0-3.8,1.5,5.67,5.67,0,0,0-1.41,4v7.59h-1.36v-8.22a5.12,5.12,0,0,0-1.18-3.65,4.24,4.24,0,0,0-3.27-1.26,5,5,0,0,0-3.81,1.5,5.7,5.7,0,0,0-1.4,4v7.59h-1.37V113.21h1.31v3.06a5.26,5.26,0,0,1,2.12-2.33,6.39,6.39,0,0,1,3.34-.83,6,6,0,0,1,3.29.87,4.75,4.75,0,0,1,1.92,2.56,5.64,5.64,0,0,1,2.23-2.51,6.66,6.66,0,0,1,3.53-.92A5.53,5.53,0,0,1,786.11,114.66Z"/><path class="cls-1" d="M793.13,109.44a1.06,1.06,0,0,1-.32-.78,1.13,1.13,0,0,1,1.91-.81,1.06,1.06,0,0,1,.32.78,1.11,1.11,0,0,1-1.11,1.12A1.12,1.12,0,0,1,793.13,109.44Zm.11,3.77h1.37v14.25h-1.37Z"/><path class="cls-1" d="M811.11,114a6.49,6.49,0,0,1,2.53,2.56,7.66,7.66,0,0,1,.91,3.76,7.5,7.5,0,0,1-.91,3.73,6.65,6.65,0,0,1-2.53,2.57,7,7,0,0,1-3.6.93,6.65,6.65,0,0,1-3.45-.92,6.26,6.26,0,0,1-2.39-2.55v3.36h-1.31V107.21h1.37v9.25A6.13,6.13,0,0,1,804.1,114a6.69,6.69,0,0,1,3.41-.88A7.14,7.14,0,0,1,811.11,114Zm-.73,11.55a5.45,5.45,0,0,0,2.06-2.12,6.82,6.82,0,0,0,0-6.22,5.48,5.48,0,0,0-2.06-2.13,5.77,5.77,0,0,0-3-.77,5.65,5.65,0,0,0-2.93.77,5.46,5.46,0,0,0-2,2.13,6.82,6.82,0,0,0,0,6.22,5.43,5.43,0,0,0,2,2.12,5.65,5.65,0,0,0,2.93.77A5.77,5.77,0,0,0,810.38,125.57Z"/><path class="cls-1" d="M830.81,120.66H818.56a6,6,0,0,0,.85,3,5.31,5.31,0,0,0,2.14,2,6.83,6.83,0,0,0,5.62.2,5,5,0,0,0,2-1.48l.79.9a6.07,6.07,0,0,1-2.33,1.71,7.55,7.55,0,0,1-3.05.61,7.63,7.63,0,0,1-3.79-.93,6.69,6.69,0,0,1-2.6-2.57,7.31,7.31,0,0,1-.95-3.73,7.76,7.76,0,0,1,.89-3.73,6.59,6.59,0,0,1,2.44-2.58,6.76,6.76,0,0,1,3.49-.92,6.65,6.65,0,0,1,3.48.91,6.49,6.49,0,0,1,2.43,2.55,7.68,7.68,0,0,1,.89,3.71ZM821.34,115a5.12,5.12,0,0,0-1.92,1.89,6.11,6.11,0,0,0-.83,2.74H829.5a5.68,5.68,0,0,0-.82-2.73,5.27,5.27,0,0,0-1.93-1.88,5.35,5.35,0,0,0-2.71-.68A5.51,5.51,0,0,0,821.34,115Z"/><path class="cls-1" d="M10.31,159.29A3.4,3.4,0,0,1,9,160a4.91,4.91,0,0,1-1.62.26,3.87,3.87,0,0,1-2.87-1,3.88,3.88,0,0,1-1-2.85v-9.3H.9V146H3.52v-3.12H4.88V146H9.41v1.17H4.88v9.16a3,3,0,0,0,.67,2.12,2.56,2.56,0,0,0,2,.72,3.17,3.17,0,0,0,2.21-.79Z"/><path class="cls-1" d="M15.51,159.38A6.59,6.59,0,0,1,13,156.8a7.93,7.93,0,0,1,0-7.45,6.59,6.59,0,0,1,2.55-2.58,7.16,7.16,0,0,1,3.64-.92,7.19,7.19,0,0,1,3.64.92,6.72,6.72,0,0,1,2.55,2.58,7.93,7.93,0,0,1,0,7.45,6.72,6.72,0,0,1-2.55,2.58,7.19,7.19,0,0,1-3.64.92A7.16,7.16,0,0,1,15.51,159.38Zm6.57-1.07a5.5,5.5,0,0,0,2.05-2.12,6.84,6.84,0,0,0,0-6.23,5.5,5.5,0,0,0-2.05-2.12,5.65,5.65,0,0,0-2.93-.77,5.71,5.71,0,0,0-2.94.77,5.48,5.48,0,0,0-2,2.12,6.84,6.84,0,0,0,0,6.23,5.48,5.48,0,0,0,2,2.12,5.71,5.71,0,0,0,2.94.77A5.65,5.65,0,0,0,22.08,158.31Z"/><path class="cls-1" d="M50.33,146v12.71q0,3.54-1.72,5.24a7.13,7.13,0,0,1-5.18,1.69,11.32,11.32,0,0,1-3.71-.6,7.18,7.18,0,0,1-2.81-1.67l.74-1a7.41,7.41,0,0,0,2.56,1.52,9.1,9.1,0,0,0,3.19.55A5.76,5.76,0,0,0,47.6,163,5.68,5.68,0,0,0,49,158.83v-2.4a6,6,0,0,1-2.43,2.4,7.13,7.13,0,0,1-3.49.85,7.44,7.44,0,0,1-3.62-.89,6.51,6.51,0,0,1-2.55-2.47,7.34,7.34,0,0,1,0-7.15,6.46,6.46,0,0,1,2.55-2.45,7.54,7.54,0,0,1,3.62-.87,7.2,7.2,0,0,1,3.54.87A5.91,5.91,0,0,1,49,149.17V146Zm-4.17,11.77a5.41,5.41,0,0,0,2.09-2,5.82,5.82,0,0,0,.75-3,5.75,5.75,0,0,0-.75-2.95,5.36,5.36,0,0,0-2.09-2,6.11,6.11,0,0,0-3-.73,6,6,0,0,0-3,.73,5.31,5.31,0,0,0-2.07,2,5.75,5.75,0,0,0-.75,2.95,5.82,5.82,0,0,0,.75,3,5.36,5.36,0,0,0,2.07,2,6.15,6.15,0,0,0,3,.72A6.22,6.22,0,0,0,46.16,157.73Z"/><path class="cls-1" d="M68.15,153.4H55.9a5.84,5.84,0,0,0,.84,3,5.45,5.45,0,0,0,2.14,2,6.83,6.83,0,0,0,5.62.2,5,5,0,0,0,2-1.48l.79.9a6.22,6.22,0,0,1-2.33,1.72,8.2,8.2,0,0,1-6.83-.33,6.78,6.78,0,0,1-2.61-2.57,7.32,7.32,0,0,1-.94-3.74,7.63,7.63,0,0,1,.89-3.72,6.52,6.52,0,0,1,2.44-2.58,7.09,7.09,0,0,1,7,0,6.49,6.49,0,0,1,2.43,2.55,7.67,7.67,0,0,1,.88,3.71Zm-9.47-5.69a5.12,5.12,0,0,0-1.92,1.89,6.12,6.12,0,0,0-.84,2.74H66.84a5.79,5.79,0,0,0-.82-2.73A5.34,5.34,0,0,0,61.38,147,5.51,5.51,0,0,0,58.68,147.71Z"/><path class="cls-1" d="M79.47,159.29a3.4,3.4,0,0,1-1.3.75,4.91,4.91,0,0,1-1.62.26,3.53,3.53,0,0,1-3.88-3.87v-9.3H70.06V146h2.61v-3.12H74V146h4.53v1.17H74v9.16a3,3,0,0,0,.67,2.12,2.55,2.55,0,0,0,2,.72,3.14,3.14,0,0,0,2.21-.79Z"/><path class="cls-1" d="M101,146.76a6.46,6.46,0,0,1,2.52,2.56,7.6,7.6,0,0,1,.92,3.75,7.51,7.51,0,0,1-.92,3.74,6.62,6.62,0,0,1-2.52,2.57,7,7,0,0,1-3.6.92,6.64,6.64,0,0,1-3.45-.91,6.19,6.19,0,0,1-2.39-2.55v3.36H90.27V140h1.37v9.25A6.13,6.13,0,0,1,94,146.73a6.69,6.69,0,0,1,3.41-.88A7.14,7.14,0,0,1,101,146.76Zm-.74,11.55a5.39,5.39,0,0,0,2.06-2.12,6.84,6.84,0,0,0,0-6.23,5.39,5.39,0,0,0-2.06-2.12,5.71,5.71,0,0,0-2.94-.77,5.65,5.65,0,0,0-2.93.77,5.43,5.43,0,0,0-2,2.12,6.84,6.84,0,0,0,0,6.23,5.43,5.43,0,0,0,2,2.12,5.65,5.65,0,0,0,2.93.77A5.71,5.71,0,0,0,100.28,158.31Z"/><path class="cls-1" d="M120.72,153.4H108.47a6,6,0,0,0,.84,3,5.47,5.47,0,0,0,2.15,2,6.83,6.83,0,0,0,5.62.2,4.92,4.92,0,0,0,2-1.48l.8.9a6.26,6.26,0,0,1-2.34,1.72,8.2,8.2,0,0,1-6.83-.33,6.78,6.78,0,0,1-2.61-2.57,7.42,7.42,0,0,1-.94-3.74,7.75,7.75,0,0,1,.89-3.72,6.52,6.52,0,0,1,2.44-2.58,7.09,7.09,0,0,1,7,0,6.49,6.49,0,0,1,2.43,2.55,7.68,7.68,0,0,1,.89,3.71Zm-9.47-5.69a5.12,5.12,0,0,0-1.92,1.89,6.11,6.11,0,0,0-.83,2.74h10.91a5.79,5.79,0,0,0-.82-2.73A5.34,5.34,0,0,0,114,147,5.51,5.51,0,0,0,111.25,147.71Z"/><path class="cls-1" d="M125,140h1.37V160.2H125Z"/><path class="cls-1" d="M134,159.38a6.66,6.66,0,0,1-2.55-2.58,7.93,7.93,0,0,1,0-7.45,6.66,6.66,0,0,1,2.55-2.58,7.66,7.66,0,0,1,7.28,0,6.72,6.72,0,0,1,2.55,2.58,7.93,7.93,0,0,1,0,7.45,6.72,6.72,0,0,1-2.55,2.58,7.66,7.66,0,0,1-7.28,0Zm6.57-1.07a5.43,5.43,0,0,0,2-2.12,6.84,6.84,0,0,0,0-6.23,5.43,5.43,0,0,0-2-2.12,6,6,0,0,0-5.86,0,5.43,5.43,0,0,0-2,2.12,6.84,6.84,0,0,0,0,6.23,5.43,5.43,0,0,0,2,2.12,6,6,0,0,0,5.86,0Z"/><path class="cls-1" d="M169,146l-5.4,14.24h-1.28l-4.8-12.36-4.83,12.36h-1.26L146,146h1.31L152,158.67,156.89,146h1.18l4.83,12.68L167.7,146Z"/><path class="cls-1" d="M186.19,159.29a3.28,3.28,0,0,1-1.29.75,4.91,4.91,0,0,1-1.62.26,3.53,3.53,0,0,1-3.88-3.87v-9.3h-2.62V146h2.62v-3.12h1.37V146h4.52v1.17h-4.52v9.16a3,3,0,0,0,.66,2.12,2.58,2.58,0,0,0,2,.72,3.15,3.15,0,0,0,2.21-.79Z"/><path class="cls-1" d="M201.17,147.4a6.06,6.06,0,0,1,1.56,4.48v8.32h-1.37V152a5,5,0,0,0-1.21-3.65,4.5,4.5,0,0,0-3.4-1.26,5.22,5.22,0,0,0-3.95,1.5,5.56,5.56,0,0,0-1.45,4v7.59H190V140h1.36v9a5.27,5.27,0,0,1,2.18-2.28,6.88,6.88,0,0,1,3.41-.8A5.68,5.68,0,0,1,201.17,147.4Z"/><path class="cls-1" d="M220.41,153.4H208.16a5.84,5.84,0,0,0,.84,3,5.45,5.45,0,0,0,2.14,2,6.83,6.83,0,0,0,5.62.2,5,5,0,0,0,2-1.48l.79.9a6.22,6.22,0,0,1-2.33,1.72,8.2,8.2,0,0,1-6.83-.33,6.78,6.78,0,0,1-2.61-2.57,7.32,7.32,0,0,1-.94-3.74,7.63,7.63,0,0,1,.89-3.72,6.52,6.52,0,0,1,2.44-2.58,7.09,7.09,0,0,1,7,0,6.49,6.49,0,0,1,2.43,2.55,7.67,7.67,0,0,1,.88,3.71Zm-9.47-5.69A5.12,5.12,0,0,0,209,149.6a6.12,6.12,0,0,0-.84,2.74H219.1a5.79,5.79,0,0,0-.82-2.73,5.34,5.34,0,0,0-4.64-2.57A5.51,5.51,0,0,0,210.94,147.71Z"/><path class="cls-1" d="M235,146.68a6.42,6.42,0,0,1,3.38-.83v1.33l-.33,0a4.74,4.74,0,0,0-3.71,1.49,6,6,0,0,0-1.33,4.14v7.42h-1.37V146H233v3.1A4.93,4.93,0,0,1,235,146.68Z"/><path class="cls-1" d="M254.07,153.4H241.82a6,6,0,0,0,.85,3,5.45,5.45,0,0,0,2.14,2,6.83,6.83,0,0,0,5.62.2,5,5,0,0,0,2-1.48l.79.9a6.3,6.3,0,0,1-2.33,1.72,8.23,8.23,0,0,1-6.84-.33,6.69,6.69,0,0,1-2.6-2.57,7.32,7.32,0,0,1-.94-3.74,7.74,7.74,0,0,1,.88-3.72,6.59,6.59,0,0,1,2.44-2.58,7.09,7.09,0,0,1,7,0,6.49,6.49,0,0,1,2.43,2.55,7.68,7.68,0,0,1,.89,3.71Zm-9.47-5.69a5.12,5.12,0,0,0-1.92,1.89,6.11,6.11,0,0,0-.83,2.74h10.91a5.68,5.68,0,0,0-.82-2.73,5.31,5.31,0,0,0-4.63-2.57A5.58,5.58,0,0,0,244.6,147.71Z"/><path class="cls-1" d="M260.26,159.38a6.68,6.68,0,0,1-2.56-2.58,8,8,0,0,1,0-7.48,6.56,6.56,0,0,1,2.56-2.56,7.5,7.5,0,0,1,3.71-.91,7.28,7.28,0,0,1,3.13.66,5.74,5.74,0,0,1,2.28,2l-1,.74a4.77,4.77,0,0,0-1.9-1.59,5.72,5.72,0,0,0-2.5-.54,5.94,5.94,0,0,0-3,.75,5.37,5.37,0,0,0-2.08,2.12,6.93,6.93,0,0,0,0,6.27,5.37,5.37,0,0,0,2.08,2.12,5.94,5.94,0,0,0,3,.75,5.72,5.72,0,0,0,2.5-.54,4.77,4.77,0,0,0,1.9-1.59l1,.74a5.74,5.74,0,0,1-2.28,1.95,7.28,7.28,0,0,1-3.13.66A7.4,7.4,0,0,1,260.26,159.38Z"/><path class="cls-1" d="M275.15,159.38a6.66,6.66,0,0,1-2.55-2.58,7.93,7.93,0,0,1,0-7.45,6.66,6.66,0,0,1,2.55-2.58,7.66,7.66,0,0,1,7.28,0,6.72,6.72,0,0,1,2.55,2.58,7.93,7.93,0,0,1,0,7.45,6.72,6.72,0,0,1-2.55,2.58,7.66,7.66,0,0,1-7.28,0Zm6.57-1.07a5.43,5.43,0,0,0,2-2.12,6.84,6.84,0,0,0,0-6.23,5.43,5.43,0,0,0-2-2.12,6,6,0,0,0-5.86,0,5.43,5.43,0,0,0-2.05,2.12,6.84,6.84,0,0,0,0,6.23,5.43,5.43,0,0,0,2.05,2.12,6,6,0,0,0,5.86,0Z"/><path class="cls-1" d="M312,147.4a6.17,6.17,0,0,1,1.52,4.48v8.32h-1.37V152a5.15,5.15,0,0,0-1.17-3.65,4.24,4.24,0,0,0-3.27-1.26,5,5,0,0,0-3.81,1.5,5.66,5.66,0,0,0-1.4,4v7.59h-1.37V152a5.15,5.15,0,0,0-1.17-3.65,4.26,4.26,0,0,0-3.28-1.26,4.94,4.94,0,0,0-3.8,1.5,5.67,5.67,0,0,0-1.41,4v7.59h-1.36V146h1.31v3a5.24,5.24,0,0,1,2.11-2.33,6.41,6.41,0,0,1,3.35-.83,5.92,5.92,0,0,1,3.28.87,4.81,4.81,0,0,1,1.93,2.56,5.56,5.56,0,0,1,2.22-2.51,6.61,6.61,0,0,1,3.53-.92A5.51,5.51,0,0,1,312,147.4Z"/><path class="cls-1" d="M341.06,147.4a6.17,6.17,0,0,1,1.52,4.48v8.32h-1.37V152a5.15,5.15,0,0,0-1.17-3.65,4.25,4.25,0,0,0-3.28-1.26,5,5,0,0,0-3.8,1.5,5.67,5.67,0,0,0-1.41,4v7.59h-1.36V152a5.15,5.15,0,0,0-1.17-3.65,4.28,4.28,0,0,0-3.28-1.26,4.94,4.94,0,0,0-3.8,1.5,5.67,5.67,0,0,0-1.41,4v7.59h-1.36V146h1.31v3a5.19,5.19,0,0,1,2.11-2.33,6.39,6.39,0,0,1,3.34-.83,6,6,0,0,1,3.29.87,4.75,4.75,0,0,1,1.92,2.56,5.64,5.64,0,0,1,2.23-2.51,6.59,6.59,0,0,1,3.53-.92A5.51,5.51,0,0,1,341.06,147.4Z"/><path class="cls-1" d="M360.25,153.4H348a6,6,0,0,0,.85,3,5.45,5.45,0,0,0,2.14,2,6.83,6.83,0,0,0,5.62.2,5,5,0,0,0,2-1.48l.79.9a6.22,6.22,0,0,1-2.33,1.72,8.23,8.23,0,0,1-6.84-.33,6.76,6.76,0,0,1-2.6-2.57,7.32,7.32,0,0,1-.94-3.74,7.74,7.74,0,0,1,.88-3.72,6.56,6.56,0,0,1,5.94-3.5,6.51,6.51,0,0,1,5.91,3.46,7.67,7.67,0,0,1,.88,3.71Zm-9.46-5.69a5.22,5.22,0,0,0-1.93,1.89,6.11,6.11,0,0,0-.83,2.74H359a5.79,5.79,0,0,0-.82-2.73,5.34,5.34,0,0,0-4.64-2.57A5.51,5.51,0,0,0,350.79,147.71Z"/><path class="cls-1" d="M375.7,147.4a6.1,6.1,0,0,1,1.55,4.48v8.32h-1.36V152a5,5,0,0,0-1.22-3.65,4.49,4.49,0,0,0-3.39-1.26,5.23,5.23,0,0,0-4,1.5,5.6,5.6,0,0,0-1.45,4v7.59h-1.36V146h1.31V149a5.42,5.42,0,0,1,2.2-2.35,6.78,6.78,0,0,1,3.45-.84A5.71,5.71,0,0,1,375.7,147.4Z"/><path class="cls-1" d="M395.56,140V160.2h-1.34v-3.36a6.06,6.06,0,0,1-2.37,2.56,6.72,6.72,0,0,1-3.47.9,7,7,0,0,1-3.6-.92,6.69,6.69,0,0,1-2.52-2.57,7.51,7.51,0,0,1-.92-3.74,7.6,7.6,0,0,1,.92-3.75,6.53,6.53,0,0,1,2.52-2.56,7.14,7.14,0,0,1,3.6-.91,6.51,6.51,0,0,1,3.43.9,6.4,6.4,0,0,1,2.38,2.51V140Zm-4.16,18.36a5.48,5.48,0,0,0,2-2.12,6.84,6.84,0,0,0,0-6.23,5.48,5.48,0,0,0-2-2.12,5.71,5.71,0,0,0-2.94-.77,5.65,5.65,0,0,0-2.93.77,5.5,5.5,0,0,0-2,2.12,6.84,6.84,0,0,0,0,6.23,5.5,5.5,0,0,0,2,2.12,5.65,5.65,0,0,0,2.93.77A5.71,5.71,0,0,0,391.4,158.31Z"/><path class="cls-1" d="M413.34,153.4H401.09a6,6,0,0,0,.85,3,5.45,5.45,0,0,0,2.14,2,6.83,6.83,0,0,0,5.62.2,5,5,0,0,0,2-1.48l.79.9a6.22,6.22,0,0,1-2.33,1.72,8.23,8.23,0,0,1-6.84-.33,6.76,6.76,0,0,1-2.6-2.57,7.32,7.32,0,0,1-.94-3.74,7.74,7.74,0,0,1,.88-3.72,6.56,6.56,0,0,1,5.94-3.5,6.51,6.51,0,0,1,5.91,3.46,7.67,7.67,0,0,1,.88,3.71Zm-9.46-5.69A5.22,5.22,0,0,0,402,149.6a6.11,6.11,0,0,0-.83,2.74H412a5.79,5.79,0,0,0-.82-2.73,5.34,5.34,0,0,0-4.64-2.57A5.51,5.51,0,0,0,403.88,147.71Z"/><path class="cls-1" d="M430.26,140V160.2h-1.34v-3.36a6.06,6.06,0,0,1-2.37,2.56,6.7,6.7,0,0,1-3.47.9,7.09,7.09,0,0,1-3.6-.92,6.69,6.69,0,0,1-2.52-2.57,7.51,7.51,0,0,1-.92-3.74,7.6,7.6,0,0,1,.92-3.75,6.53,6.53,0,0,1,2.52-2.56,7.19,7.19,0,0,1,3.6-.91,6.49,6.49,0,0,1,3.43.9,6.33,6.33,0,0,1,2.38,2.51V140Zm-4.16,18.36a5.48,5.48,0,0,0,2-2.12,6.84,6.84,0,0,0,0-6.23,5.48,5.48,0,0,0-2-2.12,6,6,0,0,0-5.87,0,5.48,5.48,0,0,0-2,2.12,6.84,6.84,0,0,0,0,6.23,5.48,5.48,0,0,0,2,2.12,6,6,0,0,0,5.87,0Z"/><path class="cls-1" d="M443.46,141.1h1.39v17.84h11v1.26H443.46Z"/><path class="cls-1" d="M459.42,141.1H467a11.06,11.06,0,0,1,5.28,1.23,9,9,0,0,1,3.59,3.39,10.11,10.11,0,0,1,0,9.85,9,9,0,0,1-3.59,3.4A11.06,11.06,0,0,1,467,160.2h-7.56Zm7.45,17.84a10,10,0,0,0,4.67-1.05,7.59,7.59,0,0,0,3.11-2.93,9.07,9.07,0,0,0,0-8.62,7.55,7.55,0,0,0-3.11-2.94,10,10,0,0,0-4.67-1.05h-6.06v16.59Z"/><path class="cls-1" d="M482,141.1h1.39v17.84h11v1.26H482Z"/><path class="cls-1" d="M495.84,152.26h7v1.22h-7Z"/><path class="cls-1" d="M511.14,159.08a9.25,9.25,0,0,1-3.55-3.47,10.13,10.13,0,0,1,0-9.93,9.22,9.22,0,0,1,3.55-3.46A10.16,10.16,0,0,1,516.2,141a10.76,10.76,0,0,1,3.82.67,7.87,7.87,0,0,1,3,2l-.87.9a8,8,0,0,0-5.87-2.27,8.8,8.8,0,0,0-4.36,1.1,8,8,0,0,0-3.09,3,8.8,8.8,0,0,0,0,8.59,8,8,0,0,0,3.09,3,8.79,8.79,0,0,0,4.36,1.09,8,8,0,0,0,5.87-2.29l.87.9a7.93,7.93,0,0,1-3,2,10.9,10.9,0,0,1-8.86-.57Z"/><path class="cls-1" d="M541.3,159.29a3.4,3.4,0,0,1-1.3.75,4.91,4.91,0,0,1-1.62.26,3.53,3.53,0,0,1-3.88-3.87v-9.3h-2.62V146h2.62v-3.12h1.37V146h4.53v1.17h-4.53v9.16a3,3,0,0,0,.67,2.12,2.55,2.55,0,0,0,2,.72,3.15,3.15,0,0,0,2.21-.79Z"/><path class="cls-1" d="M556.27,147.4a6.06,6.06,0,0,1,1.56,4.48v8.32h-1.37V152a5,5,0,0,0-1.21-3.65,4.5,4.5,0,0,0-3.4-1.26,5.22,5.22,0,0,0-4,1.5,5.56,5.56,0,0,0-1.45,4v7.59h-1.36V140h1.36v9a5.27,5.27,0,0,1,2.18-2.28,6.9,6.9,0,0,1,3.41-.8A5.68,5.68,0,0,1,556.27,147.4Z"/><path class="cls-1" d="M566.8,146.68a6.46,6.46,0,0,1,3.39-.83v1.33l-.33,0a4.74,4.74,0,0,0-3.71,1.49,6,6,0,0,0-1.34,4.14v7.42h-1.36V146h1.31v3.1A4.91,4.91,0,0,1,566.8,146.68Z"/><path class="cls-1" d="M585.85,153.4H573.6a6,6,0,0,0,.84,3,5.45,5.45,0,0,0,2.14,2,6.85,6.85,0,0,0,5.63.2,4.92,4.92,0,0,0,2-1.48l.79.9a6.14,6.14,0,0,1-2.33,1.72,8.2,8.2,0,0,1-6.83-.33,6.78,6.78,0,0,1-2.61-2.57,7.32,7.32,0,0,1-.94-3.74,7.75,7.75,0,0,1,.89-3.72,6.52,6.52,0,0,1,2.44-2.58,7.09,7.09,0,0,1,7,0,6.49,6.49,0,0,1,2.43,2.55,7.68,7.68,0,0,1,.89,3.71Zm-9.47-5.69a5.12,5.12,0,0,0-1.92,1.89,6.12,6.12,0,0,0-.84,2.74h10.92a5.79,5.79,0,0,0-.82-2.73,5.34,5.34,0,0,0-4.64-2.57A5.51,5.51,0,0,0,576.38,147.71Z"/><path class="cls-1" d="M590.43,159.79a6.92,6.92,0,0,1-2.43-1.31l.63-1.1a6.86,6.86,0,0,0,2.25,1.23,8.47,8.47,0,0,0,2.88.5,5.6,5.6,0,0,0,3.18-.72,2.25,2.25,0,0,0,1-2,1.86,1.86,0,0,0-.56-1.42,3.43,3.43,0,0,0-1.38-.76,20.87,20.87,0,0,0-2.26-.52,18.28,18.28,0,0,1-2.73-.66,4.17,4.17,0,0,1-1.77-1.14,3.09,3.09,0,0,1-.74-2.18,3.42,3.42,0,0,1,1.41-2.8,6.28,6.28,0,0,1,4-1.1,9.57,9.57,0,0,1,2.7.38,6.75,6.75,0,0,1,2.19,1l-.63,1.09a6.56,6.56,0,0,0-2-1,8.08,8.08,0,0,0-2.29-.33,5.12,5.12,0,0,0-3,.74,2.3,2.3,0,0,0-1,1.94,2,2,0,0,0,.58,1.49,3.76,3.76,0,0,0,1.4.79c.56.17,1.33.36,2.34.56a19.75,19.75,0,0,1,2.68.64,4.18,4.18,0,0,1,1.74,1.1,3,3,0,0,1,.7,2.1,3.33,3.33,0,0,1-1.47,2.84,7,7,0,0,1-4.15,1.06A10.46,10.46,0,0,1,590.43,159.79Z"/><path class="cls-1" d="M614.33,147.4a6.05,6.05,0,0,1,1.55,4.48v8.32h-1.36V152a5,5,0,0,0-1.21-3.65,4.5,4.5,0,0,0-3.4-1.26,5.26,5.26,0,0,0-4,1.5,5.59,5.59,0,0,0-1.44,4v7.59h-1.37V140h1.37v9a5.27,5.27,0,0,1,2.18-2.28,6.85,6.85,0,0,1,3.41-.8A5.71,5.71,0,0,1,614.33,147.4Z"/><path class="cls-1" d="M623.46,159.38a6.68,6.68,0,0,1-2.56-2.58,8,8,0,0,1,0-7.45,6.68,6.68,0,0,1,2.56-2.58,7.66,7.66,0,0,1,7.28,0,6.72,6.72,0,0,1,2.55,2.58,7.93,7.93,0,0,1,0,7.45,6.72,6.72,0,0,1-2.55,2.58,7.66,7.66,0,0,1-7.28,0Zm6.57-1.07a5.5,5.5,0,0,0,2.05-2.12,6.84,6.84,0,0,0,0-6.23,5.5,5.5,0,0,0-2.05-2.12,5.65,5.65,0,0,0-2.93-.77,5.71,5.71,0,0,0-2.94.77,5.48,5.48,0,0,0-2,2.12,6.84,6.84,0,0,0,0,6.23,5.48,5.48,0,0,0,2,2.12,5.71,5.71,0,0,0,2.94.77A5.65,5.65,0,0,0,630,158.31Z"/><path class="cls-1" d="M638.45,140h1.36V160.2h-1.36Z"/><path class="cls-1" d="M658.23,140V160.2h-1.34v-3.36a6.12,6.12,0,0,1-2.37,2.56,6.72,6.72,0,0,1-3.47.9,7,7,0,0,1-3.6-.92,6.69,6.69,0,0,1-2.52-2.57,7.51,7.51,0,0,1-.92-3.74,7.6,7.6,0,0,1,.92-3.75,6.53,6.53,0,0,1,2.52-2.56,7.14,7.14,0,0,1,3.6-.91,6.47,6.47,0,0,1,3.42.9,6.35,6.35,0,0,1,2.39,2.51V140Zm-4.16,18.36a5.48,5.48,0,0,0,2-2.12,6.84,6.84,0,0,0,0-6.23,5.48,5.48,0,0,0-2-2.12,5.71,5.71,0,0,0-2.94-.77,5.65,5.65,0,0,0-2.93.77,5.43,5.43,0,0,0-2.05,2.12,6.84,6.84,0,0,0,0,6.23,5.43,5.43,0,0,0,2.05,2.12,5.65,5.65,0,0,0,2.93.77A5.71,5.71,0,0,0,654.07,158.31Z"/><path class="cls-1" d="M664.31,159.79a6.92,6.92,0,0,1-2.43-1.31l.63-1.1a6.86,6.86,0,0,0,2.25,1.23,8.47,8.47,0,0,0,2.88.5,5.6,5.6,0,0,0,3.18-.72,2.25,2.25,0,0,0,1-2,1.86,1.86,0,0,0-.56-1.42,3.43,3.43,0,0,0-1.38-.76,20.87,20.87,0,0,0-2.26-.52,18.28,18.28,0,0,1-2.73-.66,4.17,4.17,0,0,1-1.77-1.14,3.09,3.09,0,0,1-.74-2.18,3.42,3.42,0,0,1,1.41-2.8,6.28,6.28,0,0,1,4-1.1,9.57,9.57,0,0,1,2.7.38,6.75,6.75,0,0,1,2.19,1l-.63,1.09a6.56,6.56,0,0,0-2-1,8.08,8.08,0,0,0-2.29-.33,5.12,5.12,0,0,0-3,.74,2.3,2.3,0,0,0-1,1.94,2,2,0,0,0,.58,1.49,3.76,3.76,0,0,0,1.4.79c.56.17,1.33.36,2.34.56a19.75,19.75,0,0,1,2.68.64,4.18,4.18,0,0,1,1.74,1.1,3,3,0,0,1,.7,2.1,3.33,3.33,0,0,1-1.47,2.84,7,7,0,0,1-4.15,1.06A10.46,10.46,0,0,1,664.31,159.79Z"/><path class="cls-1" d="M677.8,140v11.13H677v-10.4h-2.72V140Z"/></g></g></svg>