<?xml version="1.0" encoding="utf-8"?>
<!-- Generator: Adobe Illustrator 25.0.1, SVG Export Plug-In . SVG Version: 6.00 Build 0)  -->
<svg version="1.1" id="Layer_1" xmlns="http://www.w3.org/2000/svg" xmlns:xlink="http://www.w3.org/1999/xlink" x="0px" y="0px"
	 viewBox="0 0 708.6 845.4" style="enable-background:new 0 0 708.6 845.4;" xml:space="preserve">
<style type="text/css">
	.st0{fill:url(#SVGID_1_);}
	.st1{fill:#FFFFFF;}
	.st2{fill:none;stroke:#FFFFFF;stroke-width:0.45;stroke-linecap:round;stroke-miterlimit:10;}
</style>
<g>
	<g id="Layer_2_1_">
		<g id="Layer_1-2">
			
				<linearGradient id="SVGID_1_" gradientUnits="userSpaceOnUse" x1="698.3268" y1="631.6702" x2="495.6068" y2="394.5002" gradientTransform="matrix(1 0 0 -1 0 879.52)">
				<stop  offset="0" style="stop-color:#DC2727"/>
				<stop  offset="0.22" style="stop-color:#B12733"/>
				<stop  offset="0.76" style="stop-color:#4B2950"/>
				<stop  offset="1" style="stop-color:#22295C"/>
			</linearGradient>
			<path class="st0" d="M338.4,668.9v-433c0-18.4,14.9-33.3,33.3-33.3h303.5c18.4,0,33.3,14.9,33.3,33.3v433
				c0,18.4-14.9,33.3-33.3,33.3H371.7C353.4,702.2,338.4,687.3,338.4,668.9z"/>
			
				<image style="overflow:visible;opacity:0.15;enable-background:new    ;" width="769" height="914" xlink:href="44D84A79.png"  transform="matrix(1 0 0 1 -20.8529 -18.24)">
			</image>
			
				<image style="overflow:visible;enable-background:new    ;" width="2549" height="3064" xlink:href="44D84A7B.png"  transform="matrix(0.2798 0 0 0.2798 0 -11.92)">
			</image>
			<path class="st1" d="M595,230h5.5v24.4H595l-11.6-15.3v15.3H578V230h5.1l12,15.7L595,230z"/>
			<path class="st1" d="M621.9,254.4H617v-2.3c-1.2,1.6-3,2.6-5,2.5c-1.8,0-3.6-0.6-5-1.7c-1.3-1.1-2.1-2.8-2-4.6
				c-0.1-1.7,0.7-3.3,2.1-4.3c1.7-1,3.7-1.5,5.7-1.4h3.9v-0.1c0-2-1.1-3-3.2-3c-1,0-2,0.2-2.9,0.5c-0.9,0.3-1.8,0.8-2.6,1.4
				l-2.3-3.4c2.5-1.8,5.4-2.7,8.5-2.7c2-0.1,4,0.5,5.6,1.7c1.4,1.1,2.2,2.9,2.2,5.4L621.9,254.4z M616.7,247.3v-0.9h-3.3
				c-2.1,0-3.2,0.6-3.2,2c0,0.6,0.3,1.2,0.8,1.5c0.6,0.4,1.4,0.6,2.2,0.5c0.9,0,1.8-0.3,2.5-0.9C616.3,249,616.7,248.2,616.7,247.3
				L616.7,247.3z"/>
			<path class="st1" d="M629.7,261.8c-2,0-3.8-0.8-5.2-2.2l2.4-3.9c0.7,0.8,1.7,1.2,2.7,1.3c0.5,0,1-0.3,1.3-0.7
				c0.3-0.4,0.5-1,0.5-1.5c0-0.5-2.4-6.9-7.3-19.1h5.6l4.6,11.7l4.6-11.7h5.6l-8.7,22.1c-0.5,1.2-1.3,2.3-2.4,3
				C632.3,261.5,631,261.8,629.7,261.8z"/>
			<path class="st1" d="M663.4,251.7c-2,1.9-4.7,3-7.5,3c-2.6,0.1-5.2-0.9-7.1-2.6c-1.9-1.8-2.9-4.4-2.8-7.1
				c-0.1-2.7,0.9-5.2,2.8-7.1c3.7-3.4,9.4-3.5,13.3-0.3c1.8,1.6,2.8,4,2.7,6.4v2.8h-13.7c0.2,1,0.7,1.9,1.6,2.5c0.9,0.7,2,1,3.1,1
				c1.7,0.1,3.4-0.6,4.5-1.9L663.4,251.7z M658.4,240.6c-0.7-0.6-1.7-0.9-2.6-0.9c-1,0-2,0.3-2.8,1c-0.8,0.6-1.4,1.5-1.5,2.5h8.2
				C659.6,242.1,659.1,241.2,658.4,240.6L658.4,240.6z"/>
			<path class="st1" d="M674.8,234.5v1.2h4.5v3.8h-4.5v14.9h-5.3v-14.8h-2.2v-3.8h2.2v-1.1c-0.2-3.5,2.4-6.5,5.9-6.7
				c0.2,0,0.4,0,0.6,0c1.9,0,3.7,0.8,5,2.1l-1.8,3.6c-0.6-0.8-1.5-1.3-2.6-1.3c-0.5,0-1,0.2-1.3,0.6
				C674.9,233.3,674.7,233.9,674.8,234.5z"/>
			<path class="st1" d="M564.5,283.8v-2.6h2.3v2.6h1.7v2.2h-1.7v3.6h-2.3V286h-6.2v-2.2l5.3-8.7h2.7l-5.2,8.7H564.5z"/>
			<path class="st1" d="M579.4,275.1v2.2h-6.1v3.5c0.6-0.3,1.3-0.5,2.1-0.5c1.3,0,2.5,0.4,3.5,1.2c1,0.8,1.5,2,1.5,3.3
				c0,1.3-0.5,2.6-1.5,3.5c-1,0.9-2.4,1.4-3.8,1.4c-1.8,0.1-3.5-0.6-4.7-1.9l1.3-1.8c0.1,0.1,0.3,0.2,0.4,0.4
				c0.4,0.2,0.7,0.5,1.2,0.6c0.6,0.3,1.2,0.4,1.9,0.4c0.7,0,1.4-0.2,1.9-0.6c0.6-0.4,0.9-1.1,0.8-1.8c0-0.7-0.3-1.4-0.9-1.8
				c-0.7-0.5-1.5-0.7-2.3-0.6c-0.9,0-1.8,0.2-2.6,0.7l-1-1.1v-6.9L579.4,275.1z"/>
			<path class="st1" d="M590.1,294c-1,0-2-0.4-2.7-1.1l1.1-1.9c0.4,0.4,0.9,0.7,1.5,0.7c0.5,0,0.9-0.2,1.3-0.6
				c0.3-0.3,0.5-0.8,0.5-1.2c0-0.2-1.5-4-4.4-11.3h2.5l3.3,8.1l3.3-8.1h2.5l-5.3,13.1c-0.3,0.7-0.8,1.3-1.4,1.7
				C591.5,293.8,590.8,294,590.1,294z"/>
			<path class="st1" d="M610.8,285.1h-8.7c0,0.8,0.5,1.5,1.1,1.9c1.7,1.2,4,0.9,5.5-0.6l1.3,1.5c-1.2,1.2-2.9,1.9-4.6,1.8
				c-3,0.1-5.5-2.3-5.6-5.3c0-0.1,0-0.3,0-0.4c-0.1-1.6,0.5-3.1,1.7-4.1c1.1-1,2.5-1.5,3.9-1.5c1.4,0,2.8,0.4,3.8,1.4
				c1.1,0.9,1.6,2.3,1.6,3.7L610.8,285.1z M602.1,283.3h6.3c0-0.8-0.3-1.6-0.9-2.1c-0.6-0.5-1.4-0.8-2.1-0.7c-0.8,0-1.6,0.3-2.3,0.8
				C602.5,281.7,602.1,282.5,602.1,283.3z"/>
			<path class="st1" d="M622.2,289.6h-2.1v-1.5c-0.9,1.1-2.3,1.7-3.7,1.6c-1,0-2.1-0.3-2.8-1c-0.7-0.7-1.2-1.6-1.1-2.6
				c-0.1-1,0.4-1.9,1.2-2.4c1-0.6,2.1-0.9,3.2-0.8h3v-0.4c0-1.5-0.8-2.2-2.4-2.2c-1.1,0-2.3,0.4-3.2,1.1l-1-1.5
				c1.3-1,2.9-1.6,4.5-1.6c1.1,0,2.3,0.3,3.2,1c0.9,0.8,1.3,1.9,1.2,3.1L622.2,289.6z M619.9,285.5v-0.9h-2.6
				c-1.7,0-2.5,0.5-2.5,1.6c0,0.5,0.2,1,0.6,1.2c0.5,0.3,1.1,0.4,1.7,0.4c0.7,0,1.4-0.2,1.9-0.6
				C619.6,286.8,619.9,286.1,619.9,285.5z"/>
			<path class="st1" d="M631.2,280.8c-1-0.1-1.9,0.3-2.6,1.1c-0.6,0.9-0.9,1.9-0.9,3v4.7h-2.3v-11h2.3v2.2c0.4-0.7,0.9-1.3,1.5-1.7
				c0.6-0.4,1.3-0.7,2-0.7L631.2,280.8L631.2,280.8z"/>
			<path class="st1" d="M641.5,286.3c0,1-0.4,1.9-1.1,2.5c-0.8,0.7-1.9,1-2.9,0.9c-0.8,0-1.7-0.2-2.5-0.4c-0.8-0.3-1.6-0.7-2.3-1.2
				l1.1-1.8c1.1,0.9,2.4,1.4,3.7,1.4c0.4,0,0.9-0.1,1.2-0.4c0.3-0.2,0.5-0.6,0.5-0.9c0-0.5-0.7-1-2.2-1.5l-0.2-0.1
				c-2.3-0.6-3.4-1.7-3.4-3.1c0-1,0.4-1.9,1.2-2.5c0.9-0.6,2-1,3.1-0.9c1.3,0,2.5,0.4,3.6,1.1l-0.9,1.7c-0.9-0.6-1.9-0.9-2.9-0.9
				c-0.5,0-0.9,0.1-1.3,0.3c-0.3,0.2-0.5,0.5-0.5,0.9c0,0.4,0.2,0.7,0.5,0.8c0.3,0.1,0.7,0.3,1,0.4c0.5,0.1,0.8,0.2,1.2,0.3
				s0.7,0.2,1,0.4c0.3,0.2,0.7,0.4,1,0.6C641.1,284.5,641.6,285.4,641.5,286.3z"/>
			<path class="st1" d="M659,288.1c-2.3,2.2-6,2.2-8.3,0c-2.2-2.2-2.2-5.8,0-8c2.3-2.2,6-2.2,8.3,0
				C661.2,282.3,661.2,285.9,659,288.1z M652.4,286.7c1.4,1.3,3.6,1.3,5,0c1.3-1.5,1.3-3.7,0-5.2c-1.4-1.3-3.6-1.3-5,0
				C651.1,283,651.1,285.2,652.4,286.7z"/>
			<path class="st1" d="M665.6,289.6h-2.3v-15.3h2.3V289.6z"/>
			<path class="st1" d="M669.8,288.2c-1.1-1.1-1.6-2.6-1.5-4.1c-0.1-1.5,0.5-3,1.6-4.1c1-1,2.4-1.6,3.8-1.5c1.4,0,2.8,0.7,3.5,1.9
				v-6h2.3v15.3h-2.3V288c-0.9,1.2-2.3,1.9-3.7,1.8C672,289.8,670.7,289.2,669.8,288.2z M670.5,284.2c0,1,0.3,1.9,1,2.6
				c0.6,0.6,1.5,1,2.4,1c0.9,0,1.7-0.4,2.3-1c0.6-0.7,1-1.6,1-2.6c0-1-0.3-1.9-1-2.6c-0.6-0.7-1.4-1.1-2.3-1c-0.9,0-1.8,0.4-2.4,1
				C670.9,282.3,670.5,283.2,670.5,284.2L670.5,284.2z"/>
			<path class="st1" d="M541.5,358l-1.3,3h-2.4l5.8-13.2h2.4l5.8,13.2h-2.4l-1.3-3L541.5,358z M547.2,355.9l-2.4-5.4l-2.4,5.4H547.2
				z"/>
			<path class="st1" d="M557.8,361.1c-1.3,0-2.6-0.5-3.6-1.4c-1-1-1.6-2.3-1.5-3.7c-0.1-1.4,0.5-2.8,1.6-3.7c1-1,2.4-1.5,3.8-1.5
				c1.4,0,2.8,0.5,3.8,1.6l-1.2,1.5c-0.7-0.7-1.6-1.1-2.6-1.1c-0.8,0-1.7,0.3-2.3,0.9c-0.7,0.6-1,1.4-1,2.3c0,0.9,0.4,1.7,1,2.4
				c0.6,0.6,1.5,1,2.4,1c1,0,2-0.5,2.7-1.3l1.2,1.4C560.9,360.5,559.4,361.1,557.8,361.1z"/>
			<path class="st1" d="M566.8,352.6v5.1c0,0.4,0.1,0.8,0.4,1.1c0.3,0.3,0.7,0.4,1,0.4c0.5,0,1-0.3,1.3-0.7l0.9,1.5
				c-0.7,0.6-1.5,1-2.5,1c-0.9,0-1.7-0.3-2.3-0.9c-0.7-0.7-1-1.6-1-2.5v-5h-1.3V351h1.3v-3.3h2.1v3.1h2.6v1.7L566.8,352.6z"/>
			<path class="st1" d="M580.4,359.6c-2.1,2-5.4,2-7.5,0c-2-2-2-5.3,0-7.3c2.1-2,5.4-2,7.5,0C582.4,354.3,582.4,357.6,580.4,359.6z
				 M574.4,358.3c1.3,1.2,3.3,1.2,4.5,0c1.2-1.4,1.2-3.4,0-4.7c-1.3-1.2-3.3-1.2-4.5,0C573.2,354.9,573.2,357,574.4,358.3z"/>
			<path class="st1" d="M589.6,352.9c-0.9-0.1-1.8,0.3-2.3,1c-0.6,0.8-0.8,1.8-0.8,2.7v4.3h-2.1v-10h2.1v2c0.3-0.6,0.8-1.1,1.4-1.5
				c0.5-0.4,1.2-0.6,1.9-0.6v2.1L589.6,352.9z"/>
			<path class="st1" d="M606.1,348.9c1,0.9,1.5,2.2,1.4,3.5c0.1,1.3-0.4,2.6-1.4,3.5c-1.3,0.8-2.8,1.2-4.3,1.1h-2.3v3.9h-2.2v-13.2
				h4.5C603.3,347.6,604.9,348.1,606.1,348.9z M604.6,354.4c0.5-0.6,0.7-1.3,0.7-2.1c0.1-0.7-0.2-1.5-0.8-1.9
				c-0.8-0.4-1.7-0.6-2.7-0.6h-2.3v5.3h2.6C603,355.2,603.9,354.9,604.6,354.4L604.6,354.4z"/>
			<path class="st1" d="M618.1,359.6c-2.1,2-5.4,2-7.5,0c-2-2-2-5.3,0-7.3c2.1-2,5.4-2,7.5,0C620.2,354.3,620.2,357.6,618.1,359.6z
				 M612.1,358.3c1.3,1.2,3.3,1.2,4.5,0c1.2-1.4,1.2-3.4,0-4.7c-1.3-1.2-3.3-1.2-4.5,0C610.9,354.9,610.9,357,612.1,358.3z"/>
			<path class="st1" d="M627.3,352.9c-0.9-0.1-1.8,0.3-2.4,1c-0.6,0.8-0.8,1.8-0.8,2.7v4.3H622v-10h2.1v2c0.3-0.6,0.8-1.1,1.4-1.5
				c0.5-0.4,1.2-0.6,1.9-0.6L627.3,352.9L627.3,352.9z"/>
			<path class="st1" d="M632.1,352.6v5.1c0,0.4,0.1,0.8,0.4,1.1c0.3,0.3,0.7,0.4,1.1,0.4c0.5,0,1-0.3,1.3-0.7l0.9,1.5
				c-0.7,0.6-1.5,1-2.5,1c-0.9,0-1.7-0.3-2.3-0.9c-0.7-0.7-1-1.6-1-2.5v-5h-1.2V351h1.3v-3.3h2.1v3.1h2.6v1.7L632.1,352.6z"/>
			<path class="st1" d="M642.7,352.9c-0.9-0.1-1.8,0.3-2.4,1c-0.6,0.8-0.8,1.8-0.8,2.7v4.3h-2.1v-10h2.1v2c0.3-0.6,0.8-1.1,1.4-1.5
				c0.5-0.4,1.2-0.6,1.9-0.6L642.7,352.9L642.7,352.9z"/>
			<path class="st1" d="M652.9,361H651v-1.3c-0.8,1-2.1,1.5-3.3,1.5c-0.9,0-1.9-0.3-2.6-0.9c-0.7-0.6-1-1.5-1-2.4
				c-0.1-0.9,0.4-1.7,1.1-2.2c0.9-0.5,1.9-0.8,3-0.7h2.7v-0.4c0-1.3-0.7-2-2.2-2c-1,0-2.1,0.4-2.9,1l-0.9-1.3c1.2-1,2.6-1.5,4.2-1.5
				c1,0,2.1,0.3,2.9,0.9c0.8,0.7,1.2,1.8,1.1,2.8L652.9,361z M650.8,357.2v-0.9h-2.4c-1.5,0-2.3,0.5-2.3,1.4c0,0.4,0.2,0.9,0.6,1.1
				c0.5,0.3,1,0.4,1.6,0.4c0.6,0,1.3-0.2,1.8-0.6C650.5,358.4,650.8,357.8,650.8,357.2L650.8,357.2z"/>
			<path class="st1" d="M657,365c-0.9,0-1.8-0.4-2.5-1l1-1.7c0.4,0.4,0.9,0.6,1.4,0.6c0.4,0,0.9-0.2,1.2-0.5
				c0.3-0.3,0.4-0.7,0.4-1.1c0-0.2-1.3-3.6-4-10.3h2.3l3,7.4l3-7.4h2.3l-4.9,11.9c-0.3,0.6-0.7,1.2-1.2,1.5
				C658.4,364.8,657.7,365,657,365z"/>
			<path class="st1" d="M674.6,361h-1.9v-1.3c-0.8,1-2.1,1.5-3.3,1.5c-0.9,0-1.9-0.3-2.6-0.9c-0.7-0.6-1-1.5-1-2.4
				c-0.1-0.9,0.4-1.7,1.1-2.2c0.9-0.5,1.9-0.8,3-0.7h2.7v-0.4c0-1.3-0.7-2-2.2-2c-1,0-2.1,0.4-2.9,1l-0.9-1.3c1.2-1,2.6-1.5,4.2-1.5
				c1,0,2.1,0.3,2.9,0.9c0.8,0.7,1.2,1.8,1.1,2.8L674.6,361z M672.5,357.2v-0.9h-2.4c-1.5,0-2.3,0.5-2.3,1.4c0,0.4,0.2,0.9,0.6,1.1
				c0.5,0.3,1,0.4,1.6,0.4c0.6,0,1.3-0.2,1.8-0.6C672.2,358.4,672.5,357.8,672.5,357.2z"/>
			<path class="st1" d="M679.6,361h-2.1v-14h2.1V361z"/>
			<line class="st2" x1="530.8" y1="317.7" x2="681.2" y2="317.7"/>
		</g>
	</g>
</g>
</svg>
