<svg xmlns="http://www.w3.org/2000/svg" viewBox="0 0 270.1 91.75"><defs><style>.cls-1{fill:#fff;}.cls-2{fill:#295ba9;}</style></defs><g id="Layer_2" data-name="Layer 2"><g id="Layer_1-2" data-name="Layer 1"><path class="cls-1" d="M135.05-89.17h0A45.88,45.88,0,0,1,180.93-43.3V180.93a0,0,0,0,1,0,0H89.17a0,0,0,0,1,0,0V-43.3A45.88,45.88,0,0,1,135.05-89.17Z" transform="translate(180.93 -89.17) rotate(90)"/><path class="cls-2" d="M215.1,65.36a4.12,4.12,0,0,0,5.83,0L234.59,51.7l2.91-2.91a4.12,4.12,0,0,0,0-5.83l-2.91-2.91L220.93,26.39a4.12,4.12,0,0,0-5.83,0h0a4.12,4.12,0,0,0,0,5.83L227.39,44.5a1.94,1.94,0,0,1,0,2.75L215.1,59.54a4.11,4.11,0,0,0,0,5.82Z"/><path class="cls-2" d="M93.94,33.88V56.83h-7.2L79.12,45.29V56.83h-7.2V33.88h7.2l7.62,11.73V33.88Z"/><path class="cls-2" d="M112.49,39.62h-8.11v2.82h7.13v5.41h-7.13v3.24h8.11v5.74H97.18V33.88h15.31Z"/><path class="cls-2" d="M125.62,50.87l-3.5,6h-8.21L121.47,45l-7.88-11.12h8.53l4,5.74,3.37-5.74h8.21l-7.43,11.6,8,11.35h-8.52Z"/><path class="cls-2" d="M138.69,33.88H158v5.7h-6.09V56.83h-7.2V39.58h-6Z"/></g></g></svg>