<svg xmlns="http://www.w3.org/2000/svg" viewBox="0 0 302.08 102.62"><defs><style>.cls-1{fill:#fff;}.cls-2{fill:#295ba9;}</style></defs><g id="Layer_2" data-name="Layer 2"><g id="Layer_1-2" data-name="Layer 1"><rect class="cls-1" x="99.73" y="-99.73" width="102.62" height="302.08" rx="51.31" transform="translate(202.35 -99.73) rotate(90)"/><polygon class="cls-2" points="243.83 76.36 262.37 57.83 268.88 51.31 262.37 44.8 243.83 26.26 237.31 32.77 255.85 51.31 237.31 69.85 243.83 76.36"/><path class="cls-2" d="M105.06,37.88V63.56H97L88.49,50.65V63.56h-8V37.88h8L97,51V37.88Z"/><path class="cls-2" d="M125.81,44.3h-9.07v3.16h8v6.06h-8v3.62h9.07v6.42H108.69V37.88h17.12Z"/><path class="cls-2" d="M140.5,56.89l-3.92,6.67H127.4l8.45-13.23L127,37.88h9.54l4.53,6.42,3.77-6.42h9.18l-8.3,13,9,12.69h-9.54Z"/><path class="cls-2" d="M155.11,37.88h21.62v6.39h-6.82V63.56h-8V44.27h-6.75Z"/></g></g></svg>