<svg xmlns="http://www.w3.org/2000/svg" viewBox="0 0 266.37 103.95"><defs><style>.cls-1{isolation:isolate;}.cls-2{fill:#00c72e;}.cls-3{fill:#fff;}.cls-4{fill:#a1a1a1;mix-blend-mode:overlay;}</style></defs><g class="cls-1"><g id="Layer_2" data-name="Layer 2"><g id="Layer_1-2" data-name="Layer 1"><rect class="cls-2" x="2.8" y="2.8" width="260.78" height="98.35" rx="49.17"/><path class="cls-3" d="M214.4,104H52A52,52,0,0,1,52,0H214.4a52,52,0,0,1,0,104ZM52,5.6a46.38,46.38,0,0,0,0,92.75H214.4a46.38,46.38,0,1,0,0-92.75Z"/><path class="cls-4" d="M214.4,14.6a37.38,37.38,0,1,1,0,74.75H52A37.38,37.38,0,0,1,52,14.6H214.4m0-1.75H52a39.12,39.12,0,0,0,0,78.24H214.4a39.12,39.12,0,1,0,0-78.24Z"/><path class="cls-3" d="M47,42.33H65.46v5.45H59.64V64.26H52.76V47.78H47Z"/><path class="cls-3" d="M77.54,42.33c5.51,0,8.33,3.15,8.33,7.18a6.45,6.45,0,0,1-4.74,6.35l4.77,8.4H78.35l-4.12-7.87h0v7.87H67.32V42.33Zm-.62,5.76H74.19V51.8h2.73c1.3,0,2-.55,2-1.85A1.76,1.76,0,0,0,76.92,48.09Z"/><path class="cls-3" d="M86.52,42.33h7.87l3.5,7.77,3.5-7.77h7.74L101.27,57.6v6.66H94.39V57.6Z"/><path class="cls-3" d="M130,60.94H122.7l-1.08,3.32H114.4l8-21.93h7.93l8,21.93H131.1Zm-3.65-11.27-2,6.1h4Z"/><path class="cls-3" d="M160.59,49.82h-7.25a3.29,3.29,0,0,0-3-1.36c-2.66,0-4.15,1.89-4.15,4.8,0,3.41,1.55,5.11,4.93,5.11A4.5,4.5,0,0,0,155,56.45h-5.48V51.59h11.18v6.87a11.42,11.42,0,0,1-10.28,5.95c-6.91,0-11.16-4.62-11.16-11.15s4.22-11.15,11.09-11.15C156.19,42.11,159.93,45.14,160.59,49.82Z"/><path class="cls-3" d="M177.25,60.94h-7.31l-1.08,3.32h-7.22l8-21.93h7.93l8,21.93h-7.25ZM173.6,49.67l-2,6.1h4Z"/><path class="cls-3" d="M187.13,42.33H194V64.26h-6.88Z"/><path class="cls-3" d="M218.14,42.33V64.26h-6.88l-7.28-11v11h-6.87V42.33H204l7.28,11.21V42.33Z"/></g></g></g></svg>